<svg width="24" height="24" viewBox="0 0 24 24" fill="none" xmlns="http://www.w3.org/2000/svg">
<path d="M8.55747 17.3957C8.71885 17.2738 9.20059 16.9099 9.4783 16.6931C10.0345 16.2591 10.7736 15.666 11.5105 15.0262C12.2511 14.3831 12.9724 13.7076 13.5027 13.1075C13.7685 12.8066 13.9706 12.5422 14.1021 12.3241C14.2257 12.119 14.2515 11.9978 14.2515 11.9978C14.2515 11.9978 14.2257 11.8801 14.1021 11.675C13.9706 11.4569 13.7685 11.1925 13.5027 10.8916C12.9724 10.2915 12.2511 9.61601 11.5105 8.97297C10.7736 8.33316 10.0345 7.74005 9.47827 7.30598C9.20055 7.08925 8.71949 6.72585 8.55812 6.60396C8.22459 6.35833 8.15266 5.88833 8.39829 5.5548C8.64392 5.22128 9.11342 5.15003 9.44694 5.39566L9.44948 5.39758C9.61874 5.52542 10.1178 5.90232 10.4011 6.12345C10.9699 6.56733 11.7308 7.17776 12.4939 7.84032C13.2533 8.49964 14.032 9.22531 14.6267 9.89842C14.9233 10.2341 15.1901 10.5744 15.3867 10.9006C15.5709 11.2062 15.7522 11.5931 15.7522 11.9996C15.7522 12.4061 15.5709 12.793 15.3867 13.0985C15.1901 13.4247 14.9233 13.765 14.6267 14.1007C14.032 14.7738 13.2533 15.4995 12.4939 16.1588C11.7308 16.8214 10.9699 17.4318 10.4011 17.8757C10.1176 18.097 9.61856 18.4739 9.44966 18.6015L9.44747 18.6031C9.11395 18.8487 8.64398 18.7778 8.39834 18.4443C8.15271 18.1108 8.22398 17.6413 8.55747 17.3957Z" fill="#161616"/>
</svg>
