<svg width="24" height="24" viewBox="0 0 24 24" fill="none" xmlns="http://www.w3.org/2000/svg">
<path d="M15.4425 6.60433C15.2812 6.72622 14.7994 7.09013 14.5217 7.30686C13.9655 7.74093 13.2264 8.33404 12.4895 8.97384C11.7489 9.61689 11.0276 10.2924 10.4973 10.8925C10.2315 11.1934 10.0294 11.4578 9.89794 11.6759C9.77426 11.881 9.74855 12.0022 9.74855 12.0022C9.74855 12.0022 9.77427 12.1199 9.89793 12.325C10.0294 12.5431 10.2315 12.8075 10.4973 13.1084C11.0276 13.7085 11.7489 14.384 12.4895 15.027C13.2264 15.6668 13.9655 16.2599 14.5217 16.694C14.7994 16.9107 15.2805 17.2741 15.4419 17.396C15.7754 17.6417 15.8473 18.1117 15.6017 18.4452C15.3561 18.7787 14.8866 18.85 14.5531 18.6043L14.5505 18.6024C14.3813 18.4746 13.8822 18.0977 13.5989 17.8765C13.0301 17.4327 12.2692 16.8222 11.5061 16.1597C10.7467 15.5004 9.96802 14.7747 9.37327 14.1016C9.07665 13.7659 8.80993 13.4256 8.61331 13.0994C8.42909 12.7938 8.24781 12.4069 8.24781 12.0004C8.24782 11.5939 8.4291 11.207 8.61331 10.9015C8.80994 10.5753 9.07666 10.235 9.37327 9.89931C9.96802 9.22619 10.7467 8.50052 11.5061 7.8412C12.2692 7.17864 13.0301 6.56821 13.5989 6.12434C13.8824 5.90305 14.3814 5.52612 14.5503 5.39855L14.5525 5.3969C14.886 5.15126 15.356 5.22216 15.6017 5.55568C15.8473 5.88919 15.776 6.35869 15.4425 6.60433Z" fill="#161616"/>
</svg>
