<svg width="28" height="28" viewBox="0 0 28 28" fill="none" xmlns="http://www.w3.org/2000/svg">
<path d="M13.9983 0.78125C6.54463 0.78125 0.5 6.8495 0.5 14.3352C0.5 20.3225 4.36775 25.4019 9.734 27.1957C10.409 27.3206 10.6554 26.9021 10.6554 26.5426C10.6554 26.2203 10.6436 25.3681 10.6368 24.2375C6.88212 25.0559 6.089 22.4201 6.089 22.4201C5.47644 20.8541 4.5905 20.4373 4.5905 20.4373C3.36369 19.5969 4.68162 19.6138 4.68162 19.6138C6.03669 19.7099 6.74881 21.011 6.74881 21.011C7.95369 23.0816 9.9095 22.4842 10.679 22.1366C10.8005 21.2608 11.1498 20.6634 11.5363 20.3242C8.53925 19.9816 5.387 18.8189 5.387 13.6265C5.387 12.1466 5.9135 10.9366 6.7775 9.98825C6.63744 9.64569 6.17506 8.267 6.90913 6.40231C6.90913 6.40231 8.04313 6.03781 10.6216 7.79113C11.6982 7.49075 12.8525 7.34056 14.0017 7.3355C15.1475 7.34225 16.3034 7.49075 17.3818 7.79281C19.9586 6.0395 21.0909 6.404 21.0909 6.404C21.8266 8.27038 21.3643 9.64738 21.2259 9.98994C22.0916 10.9383 22.613 12.1483 22.613 13.6282C22.613 18.8341 19.4574 19.9799 16.4502 20.3158C16.9346 20.7343 17.3666 21.5611 17.3666 22.8251C17.3666 24.6374 17.3497 26.0988 17.3497 26.5426C17.3497 26.9054 17.5927 27.3273 18.2778 27.194C23.6356 25.3985 27.5 20.3208 27.5 14.3352C27.5 6.8495 21.4554 0.78125 13.9983 0.78125Z" fill="#161616"/>
</svg>
