<svg width="25" height="24" viewBox="0 0 25 24" fill="none" xmlns="http://www.w3.org/2000/svg">
<path d="M21.083 11.9995C21.083 11.6259 20.9174 11.2794 20.7605 11.0191C20.5912 10.7383 20.3636 10.4484 20.1138 10.1657C19.6128 9.59864 18.9592 8.98966 18.3248 8.4388C17.6867 7.88469 17.0508 7.37448 16.5758 7.00371C16.3379 6.81801 16.1394 6.66657 16 6.56126C15.9303 6.50859 15.8753 6.46742 15.8374 6.43923L15.7939 6.40684L15.7823 6.39829L15.7783 6.39533C15.4448 6.14967 14.9749 6.22056 14.7292 6.55406C14.4836 6.88754 14.5547 7.35702 14.8882 7.60269L14.9009 7.61211L14.941 7.64188C14.9764 7.66828 15.0288 7.70752 15.0958 7.75813C15.2299 7.85938 15.422 8.00598 15.6528 8.18615C16.1153 8.54712 16.7294 9.04002 17.3413 9.57137C17.9569 10.106 18.5532 10.6648 18.9897 11.1589C19.0173 11.1901 19.044 11.2208 19.0699 11.251L4.33301 11.251C3.91879 11.251 3.58301 11.5868 3.58301 12.001C3.58301 12.4152 3.91879 12.751 4.33301 12.751L19.0673 12.751C19.0423 12.7802 19.0164 12.8099 18.9897 12.8401C18.5532 13.3342 17.9569 13.893 17.3413 14.4276C16.7294 14.959 16.1153 15.4519 15.6528 15.8128C15.422 15.993 15.2299 16.1396 15.0958 16.2409C15.0288 16.2915 14.9764 16.3307 14.941 16.3571L14.9009 16.3869L14.8882 16.3963C14.5547 16.642 14.4836 17.1115 14.7292 17.4449C14.9749 17.7784 15.4448 17.8493 15.7783 17.6037L15.7823 17.6007L15.7939 17.5922L15.8374 17.5598C15.8753 17.5316 15.9303 17.4904 16 17.4377C16.1394 17.3324 16.3379 17.181 16.5758 16.9953C17.0508 16.6245 17.6867 16.1143 18.3248 15.5602C18.9592 15.0093 19.6128 14.4003 20.1138 13.8333C20.3636 13.5506 20.5912 13.2607 20.7605 12.9799C20.9164 12.7212 21.081 12.3772 21.083 12.0062" fill="#161616"/>
</svg>
