<svg width="16" height="16" viewBox="0 0 16 16" fill="none" xmlns="http://www.w3.org/2000/svg">
<path d="M15.6249 13.875L11.9061 10.125C12.7811 8.83333 13.1249 7.32292 12.9374 5.59375C12.7082 4.13542 12.0832 2.90625 11.0624 1.90625C10.0416 0.885417 8.80198 0.270833 7.34365 0.0625C5.90615 -0.104166 4.60406 0.125 3.4374 0.75C2.29156 1.39583 1.39573 2.29167 0.749897 3.4375C0.124897 4.60417 -0.104269 5.90625 0.0623972 7.34375C0.270731 8.80208 0.885314 10.0417 1.90615 11.0625C2.90615 12.1042 4.13531 12.7292 5.59365 12.9375C7.32281 13.125 8.83323 12.7812 10.1249 11.9062L13.8749 15.625C14.1249 15.875 14.4166 16 14.7499 16C15.0832 16 15.3749 15.875 15.6249 15.625C15.8749 15.375 15.9999 15.0833 15.9999 14.75C15.9999 14.4167 15.8749 14.125 15.6249 13.875ZM2.46865 6.5C2.48948 5.375 2.88531 4.4375 3.65615 3.6875C4.40615 2.91667 5.34365 2.52083 6.46865 2.5C7.59365 2.52083 8.54156 2.91667 9.3124 3.6875C10.0624 4.4375 10.4478 5.375 10.4686 6.5C10.4478 7.625 10.0624 8.5625 9.3124 9.3125C8.54156 10.0833 7.59365 10.4792 6.46865 10.5C5.34365 10.4792 4.40615 10.0833 3.65615 9.3125C2.88531 8.5625 2.48948 7.625 2.46865 6.5Z" fill="white"/>
</svg>
