<svg width="24" height="24" viewBox="0 0 24 24" fill="none" xmlns="http://www.w3.org/2000/svg">
<path d="M18.1872 5.81242C17.923 5.54827 17.5608 5.42035 17.2659 5.34726C16.9476 5.26839 16.5816 5.22435 16.2052 5.20106C15.4499 5.15434 14.5571 5.18595 13.719 5.24499C12.876 5.30438 12.0656 5.39325 11.4675 5.46697C11.168 5.50389 10.9205 5.53715 10.7475 5.56126C10.661 5.57332 10.593 5.58309 10.5463 5.5899L10.4926 5.59781L10.4783 5.59994L10.4734 5.60068C10.0639 5.66279 9.78171 6.04521 9.84383 6.45474C9.90594 6.86426 10.2882 7.14589 10.6978 7.08381L10.7134 7.08146L10.7628 7.0742C10.8065 7.06782 10.8713 7.0585 10.9545 7.04691C11.1208 7.02373 11.3604 6.99153 11.651 6.95571C12.2333 6.88394 13.016 6.79824 13.8244 6.74128C14.6377 6.68399 15.4545 6.65749 16.1125 6.6982C16.1542 6.70077 16.1948 6.70359 16.2344 6.70666L5.81383 17.1272C5.52094 17.4201 5.52094 17.895 5.81383 18.1879C6.10672 18.4807 6.5816 18.4807 6.87449 18.1879L17.2932 7.76911C17.2962 7.80747 17.2989 7.84678 17.3014 7.88704C17.3421 8.54505 17.3156 9.36185 17.2583 10.1752C17.2013 10.9836 17.1156 11.7663 17.0439 12.3486C17.0081 12.6392 16.9758 12.8787 16.9527 13.0451C16.9411 13.1283 16.9318 13.1931 16.9254 13.2368L16.9181 13.2862L16.9158 13.3018C16.8537 13.7113 17.1353 14.0936 17.5448 14.1558C17.9544 14.2179 18.3368 13.9357 18.3989 13.5262L18.3996 13.5212L18.4018 13.507L18.4097 13.4533C18.4165 13.4066 18.4263 13.3386 18.4383 13.2521C18.4624 13.079 18.4957 12.8316 18.5326 12.5321C18.6063 11.934 18.6952 11.1236 18.7546 10.2806C18.8136 9.4425 18.8452 8.54965 18.7985 7.79442C18.7752 7.41794 18.7312 7.05196 18.6523 6.7337C18.5797 6.44054 18.4528 6.08092 18.1919 5.81719" fill="#6A1B9A"/>
</svg>
