<svg width="28" height="28" viewBox="0 0 28 28" fill="none" xmlns="http://www.w3.org/2000/svg">
<path d="M20.25 7.75V20.875C20.25 21.0408 20.1842 21.1997 20.0669 21.3169C19.9497 21.4342 19.7908 21.5 19.625 21.5H8.375C8.20924 21.5 8.05027 21.4342 7.93306 21.3169C7.81585 21.1997 7.75 21.0408 7.75 20.875V7.75C7.75 7.58424 7.81585 7.42527 7.93306 7.30806C8.05027 7.19085 8.20924 7.125 8.375 7.125H11.5C11.0934 7.66547 10.874 8.32369 10.875 9V9.625H17.125V9C17.126 8.32369 16.9066 7.66547 16.5 7.125H19.625C19.7908 7.125 19.9497 7.19085 20.0669 7.30806C20.1842 7.42527 20.25 7.58424 20.25 7.75Z" fill="white" fill-opacity="0.1"/>
<path d="M17.125 15.8749C17.125 16.0406 17.0592 16.1996 16.9419 16.3168C16.8247 16.434 16.6658 16.4999 16.5 16.4999H11.5C11.3342 16.4999 11.1753 16.434 11.0581 16.3168C10.9408 16.1996 10.875 16.0406 10.875 15.8749C10.875 15.7091 10.9408 15.5502 11.0581 15.4329C11.1753 15.3157 11.3342 15.2499 11.5 15.2499H16.5C16.6658 15.2499 16.8247 15.3157 16.9419 15.4329C17.0592 15.5502 17.125 15.7091 17.125 15.8749ZM16.5 12.7499H11.5C11.3342 12.7499 11.1753 12.8157 11.0581 12.9329C10.9408 13.0502 10.875 13.2091 10.875 13.3749C10.875 13.5406 10.9408 13.6996 11.0581 13.8168C11.1753 13.934 11.3342 13.9999 11.5 13.9999H16.5C16.6658 13.9999 16.8247 13.934 16.9419 13.8168C17.0592 13.6996 17.125 13.5406 17.125 13.3749C17.125 13.2091 17.0592 13.0502 16.9419 12.9329C16.8247 12.8157 16.6658 12.7499 16.5 12.7499ZM20.875 7.74989V20.8749C20.875 21.2064 20.7433 21.5243 20.5089 21.7588C20.2745 21.9932 19.9565 22.1249 19.625 22.1249H8.375C8.04348 22.1249 7.72554 21.9932 7.49112 21.7588C7.2567 21.5243 7.125 21.2064 7.125 20.8749V7.74989C7.125 7.41837 7.2567 7.10042 7.49112 6.866C7.72554 6.63158 8.04348 6.49989 8.375 6.49989H11.2078C11.559 6.1067 11.9892 5.79212 12.4704 5.57673C12.9516 5.36134 13.4728 5.25 14 5.25C14.5272 5.25 15.0484 5.36134 15.5296 5.57673C16.0108 5.79212 16.441 6.1067 16.7922 6.49989H19.625C19.9565 6.49989 20.2745 6.63158 20.5089 6.866C20.7433 7.10042 20.875 7.41837 20.875 7.74989ZM11.5 8.99989H16.5C16.5 8.33685 16.2366 7.70096 15.7678 7.23212C15.2989 6.76328 14.663 6.49989 14 6.49989C13.337 6.49989 12.7011 6.76328 12.2322 7.23212C11.7634 7.70096 11.5 8.33685 11.5 8.99989ZM19.625 7.74989H17.5352C17.6773 8.15131 17.75 8.57403 17.75 8.99989V9.62489C17.75 9.79065 17.6842 9.94962 17.5669 10.0668C17.4497 10.184 17.2908 10.2499 17.125 10.2499H10.875C10.7092 10.2499 10.5503 10.184 10.4331 10.0668C10.3158 9.94962 10.25 9.79065 10.25 9.62489V8.99989C10.25 8.57403 10.3227 8.15131 10.4648 7.74989H8.375V20.8749H19.625V7.74989Z" fill="white"/>
</svg>
