<svg width="204" height="155" viewBox="0 0 204 155" fill="none" xmlns="http://www.w3.org/2000/svg">
<path d="M41.7247 52.8922L51.1103 63.1656C45.2372 67.5957 41.5534 76.2885 51.3843 86.626L38.1677 93.0321C28.9045 76.811 30.2141 63.9932 41.7247 52.8922Z" fill="#5565DE"/>
<path d="M36.196 89.3056L45.3017 89.4521L46.9369 80.4841C51.9382 90.7562 63.757 95.049 77.2809 90.6673L84.1099 103.362C64.5916 112.26 44.8341 107.694 36.196 89.3056Z" fill="#7C98F4"/>
<path d="M112.56 75.7349C119.941 61.1449 139.422 55.7632 153.432 63.7527L167.632 59.0525C151.047 36.9276 120.91 41.1252 102.188 63.2347L112.56 75.7349Z" fill="#3934B7"/>
<path d="M145.319 91.1784L151.344 105.253C173.328 96.0961 179.98 65.0902 160.132 51.4299L160.277 60.549L150.935 62.4927C164.693 69.0187 158.562 87.5143 145.319 91.1784Z" fill="#91B3F9"/>
<path d="M106.077 95.1608C126.904 110.14 145.128 112.092 159.659 100.19L149.432 96.5559L152.279 87.4469C139.526 96.2975 127.674 93.4177 116.297 84.3553L106.077 95.1608Z" fill="#7C94F5"/>
<path d="M41.7247 52.8926V62.7595L51.1103 63.166C57.1963 59.2182 66.0088 59.5369 77.1025 63.0866L83.5489 48.7944C66.692 41.5755 52.8718 43.2989 41.7247 52.8926Z" fill="#7C98F4"/>
<path d="M77.1024 63.0866L71.83 52.1038L83.5488 48.7944C91.1615 52.7648 97.2924 57.6278 102.188 63.2348C107.578 75.1042 114.975 85.2343 124.225 89.5576L112.084 89.6856L113.954 100.276C109.197 97.4271 104.607 94.2298 100.568 90.7439L91.4514 74.535C88.2724 69.7072 83.8378 65.7761 77.1024 63.0866Z" fill="#5565DE"/>
<path d="M102.188 63.2348C98.6219 67.0478 96.2876 72.669 92.9365 76.6636C87.5917 83.0346 80.9264 91.2656 68.899 92.3363L78.7182 97.417L72.8727 107.002C92.4877 103.104 106.212 90.3091 112.56 75.7349V61.7084L102.188 63.2348Z" fill="#91B3F9"/>
<path opacity="0.5" d="M105.518 22.4362L153.26 22.2274C153.717 22.2233 154.088 22.5937 154.086 23.0503L153.984 39.7615C153.981 40.2212 153.601 40.5885 153.142 40.5748C148.932 40.4493 105.783 39.8955 104.958 39.93C104.143 39.9641 104.586 26.7671 104.707 23.2257C104.722 22.7879 105.08 22.4401 105.518 22.4362Z" fill="url(#paint0_linear_963_19439)"/>
<path d="M153.167 39.9277L153.162 39.9276C150.471 39.8474 124.687 39.5255 112.295 39.3709C108.672 39.3257 106.1 39.2936 105.415 39.284L105.351 39.283L105.339 39.22C105.047 37.5679 105.052 32.0447 105.354 23.2472C105.357 23.1555 105.432 23.0829 105.524 23.0821L153.266 22.8735C153.314 22.8735 153.357 22.8915 153.389 22.9242C153.422 22.9569 153.439 22.999 153.439 23.0459L153.337 39.7573C153.337 39.8512 153.26 39.9277 153.167 39.9277ZM105.481 39.13C106.252 39.1406 108.779 39.1722 112.297 39.216C124.689 39.3707 150.474 39.6925 153.166 39.7728L153.171 39.7731C153.175 39.7729 153.183 39.7653 153.183 39.7563L153.284 23.0449L153.267 22.9509L153.267 23.0283L105.525 23.2369C105.516 23.2371 105.509 23.2437 105.509 23.2526C105.21 31.9299 105.201 37.4139 105.481 39.13Z" fill="white"/>
<path opacity="0.7" d="M107.561 26.7522C107.561 27.2041 107.712 27.5705 107.898 27.5705H126.186C126.372 27.5705 126.523 27.2041 126.523 26.7522C126.523 26.3003 126.372 25.934 126.186 25.934H107.898C107.712 25.934 107.561 26.3003 107.561 26.7522Z" fill="url(#paint1_linear_963_19439)"/>
<path opacity="0.7" d="M107.561 29.5412C107.561 29.9931 107.712 30.3595 107.898 30.3595H126.186C126.372 30.3595 126.523 29.9931 126.523 29.5412C126.523 29.0893 126.372 28.723 126.186 28.723H107.898C107.712 28.723 107.561 29.0893 107.561 29.5412Z" fill="url(#paint2_linear_963_19439)"/>
<path opacity="0.7" d="M107.561 32.3308C107.561 32.7827 107.712 33.1491 107.898 33.1491H126.186C126.372 33.1491 126.523 32.7827 126.523 32.3308C126.523 31.8789 126.372 31.5126 126.186 31.5126H107.898C107.712 31.5126 107.561 31.8789 107.561 32.3308Z" fill="url(#paint3_linear_963_19439)"/>
<path opacity="0.7" d="M107.561 35.1199C107.561 35.5718 107.712 35.9382 107.898 35.9382H126.186C126.372 35.9382 126.523 35.5718 126.523 35.1199C126.523 34.668 126.372 34.3016 126.186 34.3016H107.898C107.712 34.3016 107.561 34.668 107.561 35.1199Z" fill="url(#paint4_linear_963_19439)"/>
<path d="M131.155 30.509C132.912 30.509 134.337 29.0847 134.337 27.3278C134.337 25.5709 132.912 24.1467 131.155 24.1467C129.399 24.1467 127.974 25.5709 127.974 27.3278C127.974 29.0847 129.399 30.509 131.155 30.509Z" fill="url(#paint5_linear_963_19439)"/>
<path d="M139.062 30.5089C140.819 30.5089 142.243 29.0847 142.243 27.3278C142.243 25.5709 140.819 24.1466 139.062 24.1466C137.305 24.1466 135.881 25.5709 135.881 27.3278C135.881 29.0847 137.305 30.5089 139.062 30.5089Z" fill="url(#paint6_linear_963_19439)"/>
<path d="M146.968 30.6136C148.725 30.6136 150.15 29.1893 150.15 27.4324C150.15 25.6755 148.725 24.2513 146.968 24.2513C145.212 24.2513 143.787 25.6755 143.787 27.4324C143.787 29.1893 145.212 30.6136 146.968 30.6136Z" fill="url(#paint7_linear_963_19439)"/>
<path d="M133.046 26.6552C133.145 26.8947 133.199 27.1567 133.199 27.4317C133.199 28.5602 132.285 29.475 131.156 29.475C130.028 29.475 129.113 28.5602 129.113 27.4317C129.113 26.3031 130.028 25.3883 131.156 25.3883C131.191 25.3883 131.225 25.3892 131.259 25.3909V24.8729C131.225 24.8716 131.191 24.8707 131.156 24.8707C129.742 24.8707 128.595 26.0173 128.595 27.4317C128.595 28.8461 129.742 29.9926 131.156 29.9926C132.57 29.9926 133.717 28.846 133.717 27.4317C133.717 27.0834 133.647 26.7515 133.521 26.4488L133.046 26.6552Z" fill="white"/>
<path d="M140.117 29.1604C139.801 29.3594 139.428 29.475 139.028 29.475C137.899 29.475 136.984 28.5601 136.984 27.4316C136.984 26.3031 137.899 25.3883 139.028 25.3883C139.062 25.3883 139.097 25.3892 139.131 25.3908V24.8729C139.097 24.8715 139.062 24.8707 139.028 24.8707C137.613 24.8707 136.467 26.0173 136.467 27.4316C136.467 28.846 137.613 29.9926 139.028 29.9926C139.521 29.9926 139.982 29.8528 140.373 29.6108L140.117 29.1604Z" fill="white"/>
<path d="M148.674 28.5804C148.306 29.1203 147.686 29.475 146.984 29.475C145.855 29.475 144.94 28.5601 144.94 27.4316C144.94 26.3031 145.855 25.3883 146.984 25.3883C147.018 25.3883 147.053 25.3892 147.087 25.3908V24.8729C147.053 24.8715 147.018 24.8707 146.984 24.8707C145.569 24.8707 144.423 26.0173 144.423 27.4316C144.423 28.846 145.569 29.9926 146.984 29.9926C147.859 29.9926 148.631 29.5537 149.093 28.8841L148.674 28.5804Z" fill="white"/>
<g opacity="0.64">
<path d="M133.747 31.857H128.563C128.238 31.857 127.974 32.1208 127.974 32.4462C127.974 32.7715 128.238 33.0353 128.563 33.0353H133.747C134.073 33.0353 134.337 32.7716 134.337 32.4462C134.337 32.1207 134.073 31.857 133.747 31.857Z" fill="url(#paint8_linear_963_19439)"/>
<path d="M141.654 31.8569H136.47C136.145 31.8569 135.881 32.1207 135.881 32.4461C135.881 32.7714 136.145 33.0352 136.47 33.0352H141.654C141.979 33.0352 142.243 32.7715 142.243 32.4461C142.243 32.1207 141.979 31.8569 141.654 31.8569Z" fill="url(#paint9_linear_963_19439)"/>
<path d="M144.376 33.0352H149.56C149.886 33.0352 150.15 32.7715 150.15 32.4461C150.15 32.1207 149.886 31.8569 149.56 31.8569H144.376C144.051 31.8569 143.787 32.1207 143.787 32.4461C143.787 32.7714 144.051 33.0352 144.376 33.0352Z" fill="url(#paint10_linear_963_19439)"/>
<path d="M133.747 33.6895H128.563C128.238 33.6895 127.974 33.9533 127.974 34.2787V37.7482C127.974 38.0736 128.238 38.3374 128.563 38.3374H133.747C134.073 38.3374 134.337 38.0736 134.337 37.7482V34.2787C134.337 33.9533 134.073 33.6895 133.747 33.6895Z" fill="url(#paint11_linear_963_19439)"/>
<path d="M141.654 33.6895H136.47C136.145 33.6895 135.881 33.9533 135.881 34.2787V37.7482C135.881 38.0736 136.145 38.3374 136.47 38.3374H141.654C141.979 38.3374 142.243 38.0736 142.243 37.7482V34.2787C142.243 33.9533 141.979 33.6895 141.654 33.6895Z" fill="url(#paint12_linear_963_19439)"/>
<path d="M149.56 33.6895H144.376C144.051 33.6895 143.787 33.9533 143.787 34.2787V37.7482C143.787 38.0736 144.051 38.3374 144.376 38.3374H149.56C149.886 38.3374 150.15 38.0736 150.15 37.7482V34.2787C150.15 33.9533 149.886 33.6895 149.56 33.6895Z" fill="url(#paint13_linear_963_19439)"/>
</g>
<path d="M84.891 140.223C84.891 140.223 84.6307 141.618 84.4966 143C84.4441 143.54 84.8564 144.014 85.3985 144.041C87.24 144.136 91.1793 144.323 92.5939 144.273C92.8066 144.265 92.9477 144.049 92.8709 143.851C92.8065 143.684 92.6806 143.549 92.5193 143.473L86.0386 140.42L84.891 140.223Z" fill="url(#paint14_linear_963_19439)"/>
<path d="M84.6982 139.401L84.8806 141.074C84.8806 141.074 86.0158 141.616 86.8001 141.026L86.3457 139.158L84.6982 139.401Z" fill="url(#paint15_linear_963_19439)"/>
<path d="M85.1453 107.974C85.0554 108.41 84.4776 129.754 86.6682 139.342C86.7039 139.499 86.6232 139.659 86.4741 139.718C86.1228 139.858 85.4347 140.059 84.6121 140.078C84.3574 140.084 84.1307 139.917 84.0611 139.672C83.4301 137.446 80.4105 126.295 80.1042 115.668C79.7618 103.793 80.108 115.264 80.108 115.264L80.4452 107.929L85.1453 107.974Z" fill="url(#paint16_linear_963_19439)"/>
<path d="M77.3955 140.881C77.3955 140.881 76.9959 141.583 76.5975 143.454C76.5256 143.792 76.7591 144.118 77.1026 144.155C77.7103 144.221 78.6461 144.307 79.3963 144.309C79.7421 144.31 80.0148 144.011 79.9764 143.667C79.8999 142.982 79.6517 141.857 78.8604 140.974L77.3955 140.881Z" fill="url(#paint17_linear_963_19439)"/>
<path d="M77.0714 138.727L77.5107 141.26C77.5107 141.26 77.9657 141.605 78.8745 141.367L78.6792 138.645L77.0714 138.727Z" fill="url(#paint18_linear_963_19439)"/>
<path d="M76.1073 108.544C74.1336 119.789 76.2465 136.385 76.9815 139.637C77.0265 139.836 77.1854 139.99 77.3864 140.025C77.7278 140.085 78.2902 140.136 78.8467 139.98C79.0384 139.927 79.1744 139.756 79.1841 139.557C79.3119 136.935 79.2805 120.832 81.0801 114.486C81.1713 114.164 81.371 113.885 81.6453 113.693L85.0433 111.326L85.3391 107.45L76.1073 108.544Z" fill="url(#paint19_linear_963_19439)"/>
<path d="M88.2038 87.3159C82.6118 87.1702 76.4258 88.6723 76.4258 88.6723C74.6659 98.3839 75.9345 109.617 75.9345 109.617C80.2535 110.794 85.1553 109.011 85.1553 109.011C85.9138 104.952 89.3807 93.541 89.3807 93.541C92.1166 93.228 94.3752 92.4611 96.239 91.4364C94.8405 89.7838 94.1938 87.6917 93.9161 86.4561C91.9327 87.0517 89.9286 87.3609 88.2038 87.3159Z" fill="url(#paint20_linear_963_19439)"/>
<path d="M104.802 79.2351C104.259 78.5662 103.561 78.8735 103.561 78.8735C102.705 82.3422 98.3623 85.12 93.9155 86.4556C94.1933 87.6912 94.84 89.7833 96.2384 91.4359C103.636 87.369 104.802 79.2351 104.802 79.2351Z" fill="url(#paint21_linear_963_19439)"/>
<path d="M104.668 79.4028C104.724 79.5861 104.055 79.8581 103.67 79.1069C103.66 78.7485 103.457 77.2117 103.674 76.9219C104.829 75.3785 107.057 73.4511 107.057 73.4511C107.428 73.8233 107.116 74.1825 107.116 74.1825L106.033 75.2893C106.254 75.6967 106.524 76.0414 106.648 76.5329C106.741 76.9051 106.678 77.3012 106.487 77.6373C106.296 77.9746 106.035 78.413 105.789 78.7556C105.323 79.4041 104.668 79.4028 104.668 79.4028Z" fill="url(#paint22_linear_963_19439)"/>
<path d="M105.556 76.0093L104.571 76.8284L104.257 77.6502L105.119 78.625C105.119 78.625 105.427 76.9914 105.648 76.6392C105.869 76.2872 105.758 76.1148 105.556 76.0093Z" fill="url(#paint23_linear_963_19439)"/>
<path d="M78.5185 94.108L76.425 88.6719C76.425 88.6719 71.167 92.1716 70.265 96.6638C71.2514 96.7459 73.0451 97.0198 74.7948 97.9243C75.2014 95.803 78.5185 94.108 78.5185 94.108Z" fill="url(#paint24_linear_963_19439)"/>
<path d="M83.0359 99.2473C83.0359 99.2473 77.1389 102.506 75.1868 99.6568C74.7816 99.0651 74.6889 98.4801 74.7954 97.9242C73.0457 97.0197 71.2521 96.7458 70.2656 96.6636C69.9937 98.0179 70.1168 99.4622 70.9001 100.928C74.3063 107.303 83.7982 100.701 83.7982 100.701L83.0359 99.2473Z" fill="url(#paint25_linear_963_19439)"/>
<path d="M82.5804 82.721L80.7517 87.8505C80.7214 87.9354 80.7555 88.0302 80.8341 88.0746C81.3167 88.3474 83.0569 89.1393 85.1758 87.8241C85.3965 87.6871 85.5481 87.4616 85.5838 87.2044L86.2026 82.7556L82.5804 82.721Z" fill="url(#paint26_linear_963_19439)"/>
<path d="M86.4985 77.9922C86.4985 77.9922 88.4176 81.6893 88.1529 83.1729C87.8882 84.6564 85.4674 84.5266 83.364 83.2996L81.9241 79.3136L86.4985 77.9922Z" fill="url(#paint27_linear_963_19439)"/>
<path d="M83.477 81.3501C83.5633 81.3128 83.596 81.2079 83.5453 81.1288C83.391 80.8881 83.1022 80.3974 83.0126 79.9693C83.0126 79.9693 82.6634 79.7409 83.9117 79.4547C85.16 79.1685 87.0216 78.7235 87.4221 77.6672C87.8125 76.6372 86.8373 74.0285 85.2221 76.0843C85.1607 76.1625 85.0417 76.1631 84.9819 76.0837C84.7236 75.7408 84.0427 75.0276 83.084 75.4469C82.1868 75.8393 82.0799 76.4929 82.089 76.823C82.0917 76.9201 82.0042 76.9948 81.909 76.9757C81.4581 76.8852 80.3749 76.8009 79.8583 77.908C79.4329 78.8199 79.6988 79.3409 79.9431 79.5968C80.0222 79.6797 79.9859 79.8147 79.876 79.8472C79.5782 79.9353 79.1925 80.1833 79.2242 80.8792C79.2681 81.8411 80.3439 81.7667 80.6504 81.7258C80.7006 81.7191 80.751 81.7368 80.7846 81.7747C81.0442 82.0676 82.2148 83.312 83.4931 83.4728C83.6038 83.4868 83.6907 83.3781 83.6555 83.2723L83.117 81.6572C83.092 81.5822 83.1286 81.5005 83.2011 81.4692L83.477 81.3501Z" fill="url(#paint28_linear_963_19439)"/>
<path d="M83.6965 81.5808C83.6965 81.5808 82.3142 80.6129 82.2049 81.4158C82.0956 82.2188 83.4467 82.5922 84.1205 82.2989L83.6965 81.5808Z" fill="url(#paint29_linear_963_19439)"/>
<path d="M81.8305 104.397L85.0428 93.1793C85.0793 93.0519 85.1879 92.9591 85.3195 92.9437C85.9015 92.8758 87.588 92.6852 89.5351 92.5204C91.8806 92.322 94.6044 92.1613 96.2319 92.298C96.4633 92.3175 96.6032 92.5622 96.5002 92.7704C95.5747 94.6429 91.7675 102.26 89.8609 104.755C89.7978 104.838 89.7001 104.886 89.5961 104.885L82.143 104.816C81.9261 104.814 81.7708 104.606 81.8305 104.397Z" fill="url(#paint30_linear_963_19439)"/>
<path d="M82.6061 101.688C82.6061 101.688 82.1586 99.8478 82.3391 99.195C82.5196 98.5422 82.8693 97.7029 84.035 97.8894C85.2008 98.0759 86.5758 98.567 86.5758 98.567C86.5758 98.567 86.5064 99.4173 85.6204 99.143L86.1698 99.5681C86.1698 99.5681 86.0913 100.249 85.3429 99.8851L85.8539 100.449C85.8539 100.449 85.5325 101.008 84.9819 100.649C84.4314 100.291 84.1675 101.909 82.6061 101.688Z" fill="url(#paint31_linear_963_19439)"/>
<path d="M89.3204 95.8696C89.3204 96.3904 89.7425 96.8126 90.2633 96.8126C90.7841 96.8126 91.2063 96.3904 91.2063 95.8696C91.2063 95.3488 90.7841 94.9266 90.2633 94.9266C89.7425 94.9266 89.3204 95.3488 89.3204 95.8696Z" fill="url(#paint32_linear_963_19439)"/>
<path d="M85.4056 96.4908L85.1652 96.4198L85.8192 94.2013C85.9259 93.8399 86.2176 93.5685 86.5803 93.4931C88.6533 93.0602 94.1132 92.9721 94.3445 92.9684L94.3484 93.2191C94.292 93.2198 88.6811 93.3107 86.6314 93.7383C86.3592 93.7951 86.1401 93.9996 86.0595 94.2723L85.4056 96.4908Z" fill="url(#paint33_linear_963_19439)"/>
<path d="M47.3893 127.886C47.0469 128.392 45.686 139.865 45.4729 144.102C45.4585 144.388 45.6877 144.627 45.9746 144.627C46.2221 144.627 46.4326 144.447 46.4708 144.203L48.96 128.251L47.3893 127.886Z" fill="#7D97F4"/>
<path d="M58.3306 127.886C58.6731 128.392 60.034 139.865 60.247 144.102C60.2615 144.388 60.0322 144.627 59.7453 144.627C59.4979 144.627 59.2874 144.447 59.2492 144.203L56.7599 128.251L58.3306 127.886Z" fill="#7D97F4"/>
<path d="M45.3305 126.99L45.3293 127.115C45.3211 128.015 46.0965 128.754 47.0674 128.77L58.5732 128.966C59.5301 128.982 60.3277 128.291 60.3742 127.405L60.3802 127.29C60.4286 126.366 59.6438 125.588 58.646 125.57L47.1352 125.363C46.15 125.346 45.3388 126.077 45.3305 126.99Z" fill="#7D97F4"/>
<path d="M69.5686 143.685C67.5233 143.685 66.6183 143.509 66.2137 143.349C66.2924 143.685 66.5915 143.95 66.9695 143.95H74.2053C74.4489 143.95 74.6027 143.717 74.5445 143.506C73.7197 143.572 71.9679 143.685 69.5686 143.685Z" fill="#7D97F4"/>
<path d="M74.5442 143.506C74.5325 143.463 74.5152 143.421 74.4849 143.383C73.9338 142.679 72.8265 141.574 71.3204 141.595C69.114 141.626 68.3447 141.866 66.6301 141.609L66.2256 142.949C66.1844 143.086 66.1837 143.223 66.2134 143.349C66.618 143.509 67.523 143.685 69.5683 143.685C71.9676 143.685 73.7194 143.572 74.5442 143.506Z" fill="url(#paint34_linear_963_19439)"/>
<path d="M67.1265 140.164L66.6299 141.853C66.6299 141.853 67.7299 142.354 68.6974 141.951L68.8873 140.488L67.1265 140.164Z" fill="url(#paint35_linear_963_19439)"/>
<path d="M82.1242 142.621C80.5298 143.903 79.7149 144.333 79.2997 144.463C79.5705 144.674 79.9689 144.692 80.2636 144.455L85.9042 139.923C86.0941 139.771 86.0686 139.493 85.8916 139.366C85.29 139.934 83.9945 141.119 82.1242 142.621Z" fill="#7D97F4"/>
<path d="M85.8905 139.366C85.8548 139.34 85.8152 139.319 85.7676 139.308C84.8992 139.107 83.3472 138.943 82.1863 139.903C80.4857 141.309 80.0352 141.977 78.5385 142.851L79.0589 144.145C79.112 144.277 79.1965 144.383 79.2987 144.463C79.7138 144.333 80.5287 143.903 82.1231 142.622C83.9934 141.119 85.2889 139.934 85.8905 139.366Z" fill="url(#paint36_linear_963_19439)"/>
<path d="M56.505 120.925C56.505 120.925 68.7504 121.925 71.2625 123.107C73.7745 124.29 69.2125 140.864 69.2125 140.864C69.2125 140.864 68.5286 141.193 67.0069 140.72C67.0069 140.72 68.5674 128.489 67.4062 125.837L54.1476 123.668L56.505 120.925Z" fill="url(#paint37_linear_963_19439)"/>
<path d="M77.3214 140.523C77.4351 140.627 78.538 142.851 78.538 142.851C78.538 142.851 79.7659 142.586 80.0164 141.809L78.9115 139.801L77.3214 140.523Z" fill="url(#paint38_linear_963_19439)"/>
<path d="M49.1305 120.822C49.1305 120.822 48.7314 121.782 48.7477 123.058C48.7702 124.823 50.1889 126.254 51.9515 126.342L66.4276 127.003C66.7333 127.017 66.9919 127.228 67.0686 127.524C67.4087 128.84 69.0714 132.881 77.1993 140.944C77.4155 141.158 77.7524 141.195 78.0099 141.032L79.1669 140.301C79.2884 140.224 79.3271 140.065 79.2545 139.941L70.8258 125.548C70.3831 124.817 69.6714 124.289 68.8438 124.078L56.5057 120.924L49.1305 120.822Z" fill="url(#paint39_linear_963_19439)"/>
<path d="M63.397 98.3383C63.397 98.3383 61.8463 101.08 60.2652 102.408L63.5332 104.232C63.5332 104.232 64.2696 101.329 65.952 100.479L63.397 98.3383Z" fill="url(#paint40_linear_963_19439)"/>
<path d="M48.8682 120.925C48.8682 120.925 52.7762 121.877 56.5065 120.925C56.5065 120.925 61.7261 113.908 63.7455 111.998C63.7455 111.998 66.9665 117.081 74.136 117.801L74.5359 116.908C74.5359 116.908 68.8281 114.277 67.0711 110.234C65.314 106.191 64.6082 104.467 63.0096 103.412C62.014 102.755 61.4179 102.306 61.1099 102.061C60.9412 101.927 60.7084 101.912 60.5244 102.024C58.8278 103.058 50.8452 108.525 48.8682 120.925Z" fill="url(#paint41_linear_963_19439)"/>
<path d="M63.5317 111.899C63.4564 111.899 63.382 111.865 63.3327 111.801C62.0882 110.178 61.3951 108.39 61.3662 108.314C61.3166 108.185 61.3811 108.04 61.5103 107.991C61.6398 107.941 61.7845 108.006 61.8342 108.135C61.841 108.153 62.5317 109.933 63.7305 111.496C63.8147 111.606 63.794 111.763 63.6841 111.848C63.6387 111.882 63.5849 111.899 63.5317 111.899Z" fill="url(#paint42_linear_963_19439)"/>
<path d="M73.7046 116.441L74.5116 116.226L76.9618 115.659C77.2567 115.59 77.5668 115.643 77.823 115.804L79.9297 117.13L74.1118 117.12L73.7046 116.441Z" fill="url(#paint43_linear_963_19439)"/>
<path d="M65.8582 94.2272C65.8582 94.2272 67.3652 96.7325 67.6267 98.1172C67.8882 99.5018 68.3081 100.367 66.7322 100.861C65.1562 101.354 63.6917 100.73 62.7725 99.4372C62.7725 99.4372 61.3372 97.448 61.4803 96.5372C61.6235 95.6263 65.8582 94.2272 65.8582 94.2272Z" fill="url(#paint44_linear_963_19439)"/>
<path d="M63.193 98.3651L63.3968 98.3382C63.3968 98.3382 62.3297 96.7256 63.028 96.3256C63.7263 95.9257 66.5718 94.9441 67.066 93.8234C67.5424 92.7431 66.8298 91.5225 65.9706 91.2678C65.9163 91.2517 65.8589 91.2839 65.8392 91.337L65.7887 91.4731C65.7542 91.5662 65.6238 91.57 65.5839 91.479C65.5461 91.3926 65.4225 91.389 65.3836 91.4748C65.2313 91.8105 64.7749 92.384 63.4064 92.8276C61.4648 93.4571 60.2552 94.4359 60.4041 95.8155C60.4135 95.9029 60.3267 95.9632 60.2464 95.9277C60.0876 95.8575 59.847 95.8465 59.5676 96.1521C59.0817 96.6835 59.4623 97.846 60.7894 98.6686C60.8524 98.7077 60.8637 98.7967 60.8073 98.8449C60.6088 99.0149 60.3295 99.394 61.2274 99.7318C62.1459 100.077 62.6471 99.9605 62.8323 99.8862C62.8821 99.8663 62.9106 99.8147 62.9003 99.762L62.6644 98.5531C62.6522 98.4905 62.6953 98.4307 62.7584 98.4223L63.193 98.3651Z" fill="url(#paint45_linear_963_19439)"/>
<path d="M63.2759 98.6141C63.2759 98.6141 62.6109 96.9745 61.9125 97.5508C61.2141 98.1271 62.5581 99.401 63.1784 99.3839L63.2759 98.6141Z" fill="url(#paint46_linear_963_19439)"/>
<path d="M71.4555 118.271C71.465 118.272 71.4745 118.272 71.4841 118.272L83.9132 118.259C84.2204 118.259 84.4692 118.01 84.4688 117.704C84.4685 117.397 84.2183 117.143 83.9118 117.149L71.4827 117.161C71.1755 117.162 70.9267 117.41 70.9271 117.717C70.9274 118.014 71.1615 118.257 71.4555 118.271Z" fill="url(#paint47_linear_963_19439)"/>
<path d="M88.7262 106.098C88.7218 106.107 88.7176 106.115 88.7136 106.124L83.4839 117.399C83.3545 117.678 83.4753 118.009 83.7536 118.138C84.0319 118.267 84.3673 118.147 84.4915 117.866L89.7211 106.591C89.8505 106.312 89.7297 105.982 89.4515 105.853C89.1819 105.728 88.8634 105.838 88.7262 106.098Z" fill="url(#paint48_linear_963_19439)"/>
<path d="M121.275 129.603H119.963V143.789H121.275V129.603Z" fill="#7D97F4"/>
<path d="M126.364 144.062H114.874C114.874 143.591 115.256 143.208 115.728 143.208H125.51C125.981 143.208 126.364 143.591 126.364 144.062Z" fill="#7D97F4"/>
<path d="M128.069 129.11C128.069 129.885 127.434 130.52 126.658 130.52H115.033C114.257 130.52 113.623 129.885 113.623 129.11V127.834C113.623 127.058 114.257 126.423 115.033 126.423H126.658C127.434 126.423 128.069 127.058 128.069 127.834V129.11Z" fill="#7D97F4"/>
<path d="M110.935 120.143C110.935 120.143 108.985 120.445 106.794 121.91C106.449 122.14 106.259 122.542 106.311 122.954C106.574 125.033 107.653 131.761 111.211 138.333C111.399 138.679 111.453 139.083 111.37 139.468L110.752 142.345L109.605 143.42H112.558L114.524 138.099L113.683 137.833C113.032 137.627 112.584 137.028 112.572 136.344L112.474 130.637C112.558 128.094 110.915 126.34 110.915 126.34L115.63 126.11L110.935 120.143Z" fill="url(#paint49_linear_963_19439)"/>
<path d="M108.452 143.939C108.183 144.29 111.346 144.755 112.944 143.985C112.944 143.985 115.16 140.131 115.16 138.146C115.16 138.146 114.984 137.741 113.683 137.833C113.683 137.833 112.939 142.397 112.154 142.908C111.368 143.42 109.956 142.96 109.956 142.96C109.956 142.96 108.849 143.419 108.452 143.939Z" fill="url(#paint50_linear_963_19439)"/>
<path d="M115.035 126.423C115.01 126.379 109.957 125.815 109.957 125.815C109.957 125.815 110.123 127.351 109.606 129.466C109.089 131.581 101.672 140.742 101.672 140.742L102.45 143.208C100.045 144.045 97.6794 144.179 95.3517 143.635L100.172 140.742C100.172 140.742 104.683 125.37 107.446 122.627L112.51 120.875L115.035 126.423Z" fill="url(#paint51_linear_963_19439)"/>
<path d="M126.362 117.478C126.362 117.478 129.273 121.808 129.512 123.782C129.751 125.757 128.715 126.56 125.661 126.692C122.606 126.824 114.453 126.822 114.453 126.822L107.494 120.875C107.494 120.875 112.566 119.066 113.884 118.554C115.203 118.042 126.362 117.478 126.362 117.478Z" fill="url(#paint52_linear_963_19439)"/>
<path d="M102.153 142.378C102.153 142.378 102.991 143.189 102.425 144.092C102.425 144.092 95.7919 145.267 93.9909 144.734C93.9909 144.734 94.3648 143.88 96.3928 142.909L96.2432 143.024C96.0538 143.169 96.1648 143.472 96.4032 143.458C97.7396 143.382 100.505 143.137 102.153 142.378Z" fill="url(#paint53_linear_963_19439)"/>
<path d="M113.753 90.0218C119.703 89.0102 122.505 93.863 122.3 94.8827C122.273 95.0179 122.4 95.1324 122.534 95.0965C123.217 94.9126 124.726 94.6808 125.661 95.853C126.487 96.8879 125.87 97.8645 125.367 98.4006C125.245 98.53 125.347 98.7403 125.523 98.7181C126.779 98.5595 129.508 98.5215 129.955 101.078C130.371 103.462 128.712 104.134 127.728 104.324C127.561 104.356 127.522 104.575 127.665 104.665C128.156 104.977 128.725 105.62 128.495 106.891C128.135 108.881 124.232 108.718 123.776 108.692C123.747 108.691 123.72 108.682 123.695 108.668L117.443 105.103C117.394 105.075 117.361 105.027 117.351 104.972L116.089 97.6826C116.079 97.6237 116.097 97.5634 116.139 97.5202L112.063 91.7688C110.584 91.5512 113.683 90.0337 113.753 90.0218Z" fill="url(#paint54_linear_963_19439)"/>
<path d="M118.492 116.906C118.492 116.906 115.103 113.679 113.434 111.541C112.532 110.385 112.249 108.864 112.666 107.459C113.428 104.892 114.782 102.234 114.905 101.82C115.094 101.186 118.895 101.213 118.895 101.213C118.895 101.213 126.374 106.067 129.312 114.289L126.012 115.316C126.012 115.316 124.059 112.04 122.13 109.957C122.13 109.957 125.469 114.367 125.586 116.173L118.492 116.906Z" fill="url(#paint55_linear_963_19439)"/>
<path d="M114.444 98.2758C114.484 98.4076 115.476 101.696 115.553 101.764C115.631 101.833 117.729 101.945 118.716 101.271L116.267 96.4795L114.444 98.2758Z" fill="url(#paint56_linear_963_19439)"/>
<path d="M110.467 94.0506C110.467 94.0506 109.987 95.9344 111.314 98.4683C112.64 101.002 114.141 100.999 114.962 100.188C115.783 99.3773 116.795 98.0012 116.555 95.5514C116.314 93.1017 111.159 91.6539 110.467 94.0506Z" fill="url(#paint57_linear_963_19439)"/>
<path d="M114.721 95.6842C114.721 95.6842 112.52 92.3201 110.456 94.9678L110.419 95.9307C110.419 95.9307 108.002 95.6438 108.425 93.4277C108.848 91.2115 110.937 89.8264 113.627 90.7864C116.317 91.7463 117.858 92.7308 118.032 94.6584C118.205 96.5861 116.672 96.1634 116.672 96.1634C116.672 96.1634 116.172 94.8061 115.46 94.665C114.749 94.5238 114.934 95.5824 114.934 95.5824L114.721 95.6842Z" fill="url(#paint58_linear_963_19439)"/>
<path d="M115.284 95.6391C115.284 95.6391 114.142 93.9164 115.312 93.6596C116.481 93.4026 116.3 95.3382 116.174 96.0541L115.284 95.6391Z" fill="url(#paint59_linear_963_19439)"/>
<path d="M111.586 117.145L114.076 114.745L117.521 116.2C117.521 116.2 120.951 116.732 122.913 116.2C124.876 115.669 124.876 115.669 124.876 115.669L129.311 114.288L130.008 116.257C130.185 116.757 130.007 117.311 129.575 117.619C129.191 117.891 128.741 118.191 128.455 118.316C127.87 118.572 114.056 118.14 114.056 118.14L111.586 117.145Z" fill="url(#paint60_linear_963_19439)"/>
<path d="M121.01 118.277C120.999 118.278 120.988 118.278 120.977 118.278L106.53 118.262C106.173 118.262 105.884 117.972 105.884 117.615C105.885 117.257 106.175 116.962 106.532 116.969L120.978 116.984C121.335 116.985 121.624 117.275 121.624 117.632C121.624 117.978 121.351 118.26 121.01 118.277Z" fill="url(#paint61_linear_963_19439)"/>
<path d="M93.5434 105.16H105.574C106.462 105.16 107.27 105.672 107.648 106.475L113.21 118.269H98.259C97.687 118.269 97.1732 117.919 96.9629 117.387L92.6499 106.474C92.4007 105.843 92.8654 105.16 93.5434 105.16Z" fill="url(#paint62_linear_963_19439)"/>
<path d="M102.021 111.207C102.281 112.017 102.089 112.803 101.591 112.964C101.092 113.124 100.477 112.598 100.216 111.788C99.9556 110.978 100.148 110.191 100.646 110.031C101.145 109.87 101.76 110.397 102.021 111.207Z" fill="url(#paint63_linear_963_19439)"/>
<path d="M137.479 142.274C137.479 142.274 137.63 143.116 137.69 144.116C137.716 144.542 137.4 144.912 136.976 144.953C135.497 145.096 132.131 145.361 129.982 145.051C129.681 145.008 129.561 144.638 129.784 144.43C130.67 143.605 132.81 141.999 136.333 141.648L137.479 142.274Z" fill="url(#paint64_linear_963_19439)"/>
<path d="M138.214 140.376L137.467 142.208C137.364 142.459 137.109 142.616 136.84 142.587C136.657 142.568 136.44 142.533 136.229 142.469C135.807 142.341 135.569 141.894 135.695 141.471L136.26 139.584L138.214 140.376Z" fill="url(#paint65_linear_963_19439)"/>
<path d="M150.996 143.733C150.996 143.733 149.499 144.986 148.916 146.593C148.756 147.034 149.095 147.5 149.565 147.5H152.646C153.097 147.5 153.442 147.094 153.364 146.65C153.167 145.541 152.602 143.738 150.996 143.733Z" fill="url(#paint66_linear_963_19439)"/>
<path d="M152.851 142.103C152.851 142.103 152.549 143.441 152.316 144.326C152.274 144.486 152.103 144.574 151.946 144.518C151.48 144.352 151.101 144.278 150.825 144.315C150.697 144.332 150.586 144.226 150.584 144.098L150.555 141.874L152.851 142.103Z" fill="url(#paint67_linear_963_19439)"/>
<path d="M144.889 111.986L135.784 139.765C135.784 139.765 137.53 140.909 138.362 140.862L149.178 118.536C149.178 118.536 151.07 132.292 150.153 142.168L153.251 142.405C153.251 142.405 158.289 117.167 154.473 108.523L144.889 111.986Z" fill="url(#paint68_linear_963_19439)"/>
<path d="M149.119 118.297C149.122 118.297 149.126 118.297 149.13 118.296C149.178 118.29 149.212 118.246 149.206 118.198L148.853 115.393C148.847 115.345 148.803 115.311 148.754 115.316C148.706 115.323 148.672 115.367 148.678 115.415L149.031 118.22C149.037 118.264 149.075 118.297 149.119 118.297Z" fill="#91B3FA"/>
<path d="M143.181 87.5417C143.181 87.5417 150.559 88.1969 149.515 93.4535C149.515 93.4535 153.593 101.128 155.5 110.168C155.562 110.463 155.365 110.75 155.069 110.8L142.783 112.904C142.444 112.962 142.117 112.751 142.031 112.418L139.095 101.072L137.951 106.347L134.316 105.4L137.376 89.9004C137.376 89.9004 137.803 87.639 143.181 87.5417Z" fill="url(#paint69_linear_963_19439)"/>
<path d="M139.033 100.564C139.039 100.564 139.046 100.564 139.053 100.562C139.102 100.552 139.133 100.503 139.122 100.454L138.098 95.7511C138.088 95.7018 138.039 95.6707 137.989 95.6812C137.94 95.692 137.909 95.7406 137.92 95.79L138.944 100.492C138.953 100.535 138.991 100.564 139.033 100.564Z" fill="url(#paint70_linear_963_19439)"/>
<path d="M139.775 114.557C140.162 114.345 140.615 114.286 141.043 114.392L141.898 114.605C142.08 114.65 142.26 114.525 142.281 114.339L143.165 106.466C144.271 106.991 145.867 106.928 146.393 106.89L144.357 116.172H137.233L139.775 114.557Z" fill="url(#paint71_linear_963_19439)"/>
<path d="M120.845 97.4794L121.061 96.7637C121.185 96.3518 121.489 96.0186 121.888 95.8582L125.783 94.2919C125.783 94.2919 125.842 93.7924 124.96 93.453C124.078 93.1135 124.285 92.126 124.285 92.126C124.285 92.126 125.489 92.6755 127.253 93.547C128.261 94.0455 128.827 94.9254 129.127 95.5879L137.952 106.347L136.916 107.059C135.554 107.995 133.68 107.535 132.905 106.074L128.124 96.9064C125.724 97.6275 123.295 97.7654 120.845 97.4794Z" fill="url(#paint72_linear_963_19439)"/>
<path d="M140.792 82.5224L143.061 88.8731C143.061 88.8731 141.052 90.4439 139.585 89.9128L138.442 86.2725C138.442 86.2725 139.315 81.8232 140.792 82.5224Z" fill="url(#paint73_linear_963_19439)"/>
<path d="M134.019 80.2417C134.019 80.3396 136.204 86.4294 136.204 86.4294L139.655 85.1074L138.441 79.0278C138.441 79.0278 134.019 78.6034 134.019 80.2417Z" fill="url(#paint74_linear_963_19439)"/>
<path d="M137.836 80.5089L138.726 83.6593C138.737 83.6997 138.743 83.7404 138.743 83.7824C138.744 84.0394 138.68 84.9235 137.78 84.8033C136.962 84.6941 136.215 84.6067 135.74 84.8306C135.526 84.9311 135.424 85.1766 135.504 85.3986C135.703 85.9519 136.174 87.1902 136.747 88.2038C136.863 88.4095 137.118 88.4894 137.333 88.3916C137.982 88.0967 139.331 87.4366 140.292 86.6513C140.422 86.5449 140.485 86.3775 140.454 86.2122C140.303 85.4063 139.852 82.9552 139.832 82.2527C139.814 81.5934 140.554 81.0901 140.879 80.9008C140.986 80.8388 141.062 80.7367 141.091 80.6166C141.193 80.1922 141.28 79.2318 140.055 79.0201C139.798 78.9758 139.631 78.7304 139.683 78.4754C139.787 77.9679 139.754 77.221 138.79 76.9459C137.81 76.6663 137.194 77.256 136.88 77.7081C136.754 77.891 136.516 77.9503 136.313 77.8595C136.198 77.8079 136.058 77.8056 135.908 77.9321C135.706 78.1027 135.398 78.0508 135.249 77.8319C134.963 77.4114 134.444 76.9918 133.566 77.276C132.007 77.7804 132.081 79.5778 132.653 80.555C133.224 81.5321 134.883 80.8891 135.669 80.2416C136.266 79.7493 137.175 80.0438 137.577 80.2133C137.704 80.2671 137.799 80.3761 137.836 80.5089Z" fill="url(#paint75_linear_963_19439)"/>
<path d="M140.145 83.4029C140.145 83.4029 139.223 81.6575 139.833 81.1094C140.443 80.5613 141.476 80.651 141.449 82.0159C141.414 83.7135 140.145 83.4029 140.145 83.4029Z" fill="url(#paint76_linear_963_19439)"/>
<path d="M145.678 107.008C146.181 107.008 146.541 106.97 146.58 106.966L146.645 106.959L149.331 94.4338C149.342 94.3844 149.311 94.3357 149.261 94.3252C149.211 94.3142 149.163 94.3461 149.153 94.3954L146.494 106.79C146.094 106.825 143.959 106.967 142.832 106.169L145.16 95.287L144.674 94.3717C144.65 94.327 144.595 94.3101 144.55 94.3337C144.505 94.3575 144.488 94.4128 144.512 94.4574L144.967 95.314L142.629 106.246L142.676 106.281C143.49 106.893 144.802 107.008 145.678 107.008Z" fill="url(#paint77_linear_963_19439)"/>
<path d="M65.1428 145.195C65.0811 145.195 65.0184 145.181 64.9581 145.153C64.7206 145.042 64.6109 144.741 64.7131 144.482L74.5295 119.575C74.6315 119.315 74.9067 119.196 75.1444 119.307C75.3818 119.419 75.4916 119.719 75.3894 119.978L65.5731 144.886C65.4968 145.079 65.3242 145.195 65.1428 145.195Z" fill="#91B3FA"/>
<path d="M76.2027 145.195C76.0213 145.195 75.8487 145.079 75.7725 144.886L65.9561 119.979C65.854 119.719 65.9637 119.419 66.2011 119.307C66.4384 119.196 66.7138 119.316 66.8161 119.575L76.6325 144.482C76.7346 144.741 76.6249 145.042 76.3874 145.153C76.3272 145.182 76.2644 145.195 76.2027 145.195Z" fill="#91B3FA"/>
<path d="M131.765 145.195C131.703 145.195 131.64 145.182 131.58 145.153C131.342 145.042 131.233 144.741 131.335 144.482L141.151 119.575C141.253 119.316 141.528 119.196 141.766 119.307C142.004 119.419 142.113 119.719 142.011 119.978L132.195 144.886C132.119 145.079 131.946 145.195 131.765 145.195Z" fill="#91B3FA"/>
<path d="M142.823 145.195C142.642 145.195 142.469 145.079 142.393 144.886L132.577 119.979C132.475 119.719 132.584 119.419 132.822 119.307C133.059 119.196 133.335 119.316 133.437 119.575L143.253 144.482C143.355 144.741 143.246 145.042 143.008 145.153C142.948 145.182 142.885 145.195 142.823 145.195Z" fill="#91B3FA"/>
<path d="M130.341 117.815H144.558V116.348H130.341C130.645 116.348 130.645 117.815 130.341 117.815Z" fill="#BDD0FB"/>
<path d="M144.389 117.815C144.482 117.815 144.558 117.739 144.558 117.646V116.517C144.558 116.424 144.482 116.348 144.389 116.348H130.075C129.982 116.348 129.906 116.273 129.906 116.182C129.906 116.091 129.982 116.016 130.075 116.016H145.372C145.711 116.016 145.986 116.291 145.986 116.63V117.568C145.986 117.887 145.726 118.147 145.407 118.147H130.075C129.982 118.147 129.906 118.072 129.906 117.981C129.906 117.889 129.982 117.815 130.075 117.815H144.389V117.815Z" fill="url(#paint78_linear_963_19439)"/>
<path d="M146.618 118.804C146.666 118.641 146.601 118.471 146.441 118.343C146.281 118.214 146.043 118.139 145.791 118.139H60.6004C60.2697 118.139 59.9618 118.251 59.7836 118.436C59.6054 118.621 59.5815 118.853 59.7202 119.052L60.6434 120.378C60.8548 120.681 61.3129 120.875 61.8169 120.875H145.207C145.675 120.875 146.078 120.655 146.168 120.35L146.618 118.804Z" fill="#91B3FA"/>
<g opacity="0.3">
<path d="M100.124 31.8858C99.854 31.8297 99.6809 31.5655 99.7371 31.2959C99.8461 30.7721 99.934 30.2357 99.9984 29.7016C100.031 29.4314 100.274 29.2379 100.544 29.2651C100.547 29.2655 100.55 29.2658 100.553 29.2661C100.827 29.2991 101.022 29.5475 100.989 29.821C100.921 30.3831 100.828 30.9478 100.713 31.4993C100.661 31.7515 100.426 31.9192 100.176 31.8938C100.158 31.892 100.141 31.8895 100.124 31.8858ZM100.133 27.0806C100.124 26.543 100.092 26.0008 100.038 25.4684C100.01 25.1946 100.209 24.9497 100.483 24.9216C100.758 24.8944 101.002 25.0931 101.03 25.3672C101.087 25.9272 101.121 26.4981 101.131 27.0637C101.135 27.3391 100.916 27.5661 100.64 27.5707C100.62 27.571 100.601 27.5702 100.581 27.5683C100.333 27.5432 100.138 27.336 100.133 27.0806ZM99.5901 22.8838C99.462 22.3632 99.3096 21.8418 99.1372 21.3339C99.0487 21.0732 99.1883 20.7899 99.4491 20.7013C99.7097 20.6132 99.9929 20.7525 100.082 21.0133C100.263 21.5481 100.424 22.0973 100.559 22.6455C100.624 22.9129 100.461 23.183 100.194 23.249C100.136 23.263 100.079 23.2666 100.024 23.261C99.8202 23.2404 99.6419 23.0943 99.5901 22.8838ZM98.122 18.9139C97.8805 18.4344 97.6152 17.96 97.3339 17.5035C97.1894 17.269 97.2623 16.9618 97.4967 16.8173C97.7313 16.673 98.0384 16.746 98.1829 16.9801C98.4792 17.4608 98.7583 17.9604 99.0127 18.4648C99.1366 18.7108 99.0378 19.0107 98.7918 19.1346C98.7038 19.1789 98.6089 19.1948 98.5176 19.1855C98.3538 19.169 98.2017 19.0718 98.122 18.9139ZM95.8061 15.37C95.4649 14.9572 95.1012 14.5531 94.725 14.1692C94.5323 13.9723 94.5355 13.6567 94.7322 13.4639C94.929 13.271 95.2448 13.2744 95.4374 13.4713C95.8331 13.8751 96.2158 14.3004 96.5748 14.7348C96.7503 14.947 96.7205 15.2613 96.5081 15.4368C96.4011 15.5252 96.2682 15.5615 96.1402 15.5486C96.0143 15.5358 95.8931 15.4754 95.8061 15.37ZM92.7637 12.4269C92.3391 12.0992 91.8952 11.7858 91.4441 11.4953C91.2125 11.3462 91.1457 11.0375 91.2948 10.806C91.444 10.5744 91.7525 10.5075 91.9842 10.6567C92.4589 10.9624 92.9262 11.2924 93.3731 11.6372C93.5911 11.8055 93.6315 12.1186 93.4632 12.3367C93.3539 12.4784 93.1835 12.5449 93.0177 12.5282C92.9282 12.5191 92.8402 12.4859 92.7637 12.4269ZM74.5337 9.16991C74.4456 8.90898 74.5857 8.62594 74.8467 8.53783C75.3812 8.35735 75.931 8.19782 76.4805 8.0637C76.7481 7.99841 77.0179 8.16232 77.0832 8.42996C77.1485 8.6974 76.9845 8.96721 76.717 9.03255C76.1953 9.15991 75.6733 9.31145 75.1657 9.48289C75.096 9.50637 75.0249 9.5137 74.9562 9.50673C74.7677 9.48764 74.5983 9.36124 74.5337 9.16991ZM89.1469 10.2327C88.6603 10.0078 88.158 9.80128 87.6539 9.61908C87.3948 9.52531 87.2608 9.23939 87.3544 8.98044C87.4481 8.72128 87.7337 8.58868 87.9931 8.68109C88.5239 8.87303 89.0528 9.09047 89.5652 9.32736C89.8152 9.44295 89.9242 9.73922 89.8086 9.98928C89.717 10.1876 89.5116 10.2972 89.3058 10.2764C89.2522 10.271 89.1986 10.2565 89.1469 10.2327ZM78.7572 8.14339C78.7297 7.86944 78.9297 7.62493 79.2037 7.59746C79.7651 7.5413 80.3363 7.50868 80.9014 7.5001C81.177 7.49469 81.4033 7.71592 81.4075 7.99129C81.4117 8.2666 81.1918 8.49319 80.9164 8.49743C80.3793 8.50551 79.8364 8.53651 79.303 8.58999C79.2689 8.59342 79.2354 8.59312 79.2026 8.58984C78.9716 8.56646 78.7812 8.3833 78.7572 8.14339ZM85.1311 8.90207C84.6068 8.79183 84.0708 8.7027 83.5379 8.63746C83.2644 8.60408 83.07 8.35533 83.1035 8.08188C83.1365 7.81212 83.3793 7.61912 83.6485 7.64639C83.652 7.64674 83.6556 7.6471 83.659 7.64765C84.2201 7.71618 84.7844 7.8099 85.3363 7.92589C85.6058 7.98275 85.7784 8.24711 85.7217 8.51667C85.6688 8.7684 85.4345 8.9356 85.1841 8.91025C85.1665 8.90843 85.1488 8.90565 85.1311 8.90207Z" fill="white"/>
<path d="M71.7551 10.9219C71.8528 10.9318 71.9545 10.9131 72.0469 10.8617C72.2716 10.7368 72.5028 10.6148 72.7339 10.4983C72.9799 10.3746 73.0791 10.0747 72.9553 9.82879C72.8315 9.58271 72.5316 9.48323 72.2856 9.60751C72.0425 9.72976 71.7994 9.85828 71.5628 9.98957C71.3221 10.1232 71.2352 10.4269 71.3688 10.6676C71.4512 10.8161 71.5981 10.906 71.7551 10.9219Z" fill="white"/>
</g>
<g opacity="0.3">
<path d="M62.3986 22.9072C62.6381 22.9315 62.8665 22.7792 62.9303 22.5391C62.9962 22.2906 63.0686 22.0393 63.1453 21.7924C63.2269 21.5293 63.0799 21.2499 62.8168 21.1682C62.5527 21.0863 62.2743 21.2337 62.1927 21.4967C62.112 21.7567 62.0358 22.0213 61.9662 22.283C61.8955 22.5491 62.054 22.8222 62.3202 22.893C62.3463 22.8999 62.3726 22.9046 62.3986 22.9072Z" fill="white"/>
<path d="M78.2161 47.1092C77.9438 47.0681 77.7563 46.814 77.7975 46.5415C77.8387 46.2692 78.0925 46.0823 78.3651 46.123C78.8836 46.2013 79.4134 46.2587 79.946 46.2945C80.2195 46.312 80.4285 46.5509 80.41 46.8257C80.3915 47.1005 80.1537 47.3083 79.8789 47.2898C79.6482 47.2743 79.4186 47.255 79.1903 47.2319C78.8646 47.1989 78.5368 47.1577 78.2161 47.1092ZM82.0651 46.8246C82.0462 46.55 82.2537 46.312 82.5284 46.2932C83.0559 46.2568 83.5876 46.1981 84.1087 46.1181C84.3805 46.0755 84.6355 46.263 84.6774 46.5353C84.7191 46.8074 84.5323 47.062 84.2601 47.1037C83.7115 47.188 83.1518 47.25 82.5968 47.288C82.568 47.29 82.5395 47.2895 82.5118 47.2867C82.2745 47.2627 82.082 47.0707 82.0651 46.8246ZM75.5632 46.5204C75.031 46.3633 74.4983 46.1814 73.9798 45.9793C73.7232 45.8793 73.5962 45.5902 73.6962 45.3334C73.7962 45.0769 74.0852 44.9503 74.3419 45.0499C74.8343 45.2419 75.3401 45.4147 75.8454 45.5637C76.1096 45.6417 76.2606 45.919 76.1826 46.1833C76.1136 46.4169 75.8885 46.562 75.6546 46.5383C75.6243 46.5352 75.5936 46.5293 75.5632 46.5204ZM86.2921 46.1725C86.2134 45.9086 86.3634 45.6307 86.6274 45.552C87.1333 45.4012 87.6388 45.2268 88.1298 45.0339C88.3863 44.933 88.6755 45.0592 88.7763 45.3157C88.877 45.572 88.7509 45.8613 88.4946 45.962C87.9775 46.1652 87.4451 46.3489 86.9124 46.5077C86.8481 46.5269 86.7829 46.5326 86.7199 46.5263C86.5248 46.5066 86.3516 46.372 86.2921 46.1725ZM71.5234 44.8218C71.0391 44.5517 70.5597 44.2571 70.0983 43.9461C69.8699 43.7922 69.8095 43.4824 69.9633 43.254C70.1172 43.0254 70.4272 42.9652 70.6556 43.1191C71.094 43.4144 71.5494 43.6943 72.0092 43.9507C72.2498 44.0849 72.3361 44.3887 72.2018 44.6293C72.1019 44.8085 71.9078 44.902 71.7159 44.8826C71.6502 44.8759 71.5847 44.856 71.5234 44.8218ZM67.954 42.2784C67.5395 41.9081 67.1358 41.516 66.7541 41.1129C66.5648 40.9129 66.5733 40.5973 66.7733 40.4078C66.9736 40.2182 67.2891 40.2269 67.4782 40.4271C67.841 40.81 68.2246 41.1826 68.6184 41.5346C68.8239 41.7181 68.8416 42.0334 68.6581 42.2388C68.5474 42.3625 68.389 42.4181 68.2356 42.4025C68.1345 42.3924 68.0355 42.3512 67.954 42.2784ZM65.0236 39.0175C64.6994 38.5655 64.3907 38.0947 64.1061 37.6185C63.9648 37.382 64.0419 37.0759 64.2783 36.9346C64.515 36.7931 64.8209 36.8705 64.9621 37.1068C65.2326 37.5594 65.5259 38.0066 65.8341 38.4362C65.9946 38.66 65.9433 38.9716 65.7195 39.132C65.6167 39.2058 65.4955 39.2348 65.3788 39.223C65.2414 39.2091 65.1105 39.1385 65.0236 39.0175ZM62.8744 35.195C62.6569 34.6831 62.4588 34.156 62.2856 33.6282C62.1997 33.3665 62.3421 33.0847 62.6039 32.9988C62.8651 32.9131 63.1473 33.0556 63.2331 33.3172C63.3976 33.8183 63.5857 34.3188 63.7924 34.8051C63.9001 35.0586 63.782 35.3513 63.5285 35.459C63.4484 35.4929 63.3645 35.5045 63.2836 35.4963C63.1085 35.4785 62.9482 35.3685 62.8744 35.195ZM61.617 30.9915C61.5178 30.4455 61.4408 29.8881 61.388 29.3346C61.3619 29.0604 61.5629 28.8168 61.8371 28.7907C62.1104 28.7647 62.3547 28.9654 62.3809 29.2396C62.431 29.7655 62.5043 30.2949 62.5983 30.8135C62.6475 31.0844 62.4677 31.344 62.1967 31.3931C62.1495 31.4017 62.1027 31.4034 62.0572 31.3988C61.8417 31.377 61.6576 31.2153 61.617 30.9915ZM61.3136 26.619C61.3299 26.2105 61.359 25.7974 61.4001 25.3913C61.415 25.2442 61.4314 25.0979 61.4495 24.9518C61.4832 24.6786 61.7293 24.4785 62.0054 24.5181C62.2787 24.5516 62.4731 24.8005 62.4394 25.074C62.4223 25.2126 62.4065 25.352 62.3924 25.4918C62.3533 25.8779 62.3257 26.2703 62.3101 26.6588C62.2992 26.934 62.0671 27.1481 61.792 27.1372C61.7816 27.1367 61.7713 27.1361 61.7612 27.135C61.5009 27.1087 61.3029 26.8838 61.3136 26.619Z" fill="white"/>
<path d="M90.6685 44.8514C90.7672 44.8614 90.8697 44.8422 90.9626 44.7901C91.198 44.6579 91.435 44.5182 91.6672 44.3748C91.9016 44.2302 91.9743 43.9229 91.8296 43.6886C91.6848 43.4542 91.3779 43.3813 91.1434 43.5261C90.9228 43.6622 90.6977 43.7949 90.4742 43.9205C90.2341 44.0551 90.1487 44.3592 90.2835 44.5994C90.3663 44.7466 90.5125 44.8356 90.6685 44.8514Z" fill="white"/>
</g>
<path d="M92.9869 36.6221C93.0572 36.5517 93.0751 36.4446 93.0316 36.3552L91.789 33.8051C92.4873 32.6793 93.0112 31.4341 93.322 30.1067L96.002 29.1823C96.0961 29.1498 96.1591 29.0614 96.1591 28.9619L96.1588 25.5593C96.1588 25.4598 96.0957 25.3713 96.0017 25.339L93.3215 24.415C93.0105 23.0876 92.4864 21.8424 91.7878 20.7168L93.03 18.1665C93.0736 18.0771 93.0556 17.9699 92.9853 17.8996L90.579 15.4938C90.5087 15.4235 90.4015 15.4055 90.3121 15.4491L87.762 16.6917C86.6362 15.9933 85.391 15.4694 84.0635 15.1587L83.1391 12.4786C83.1067 12.3846 83.0182 12.3215 82.9188 12.3216L79.516 12.3218C79.4166 12.3219 79.3281 12.385 79.2957 12.479L78.3718 15.1592C77.0444 15.4702 75.7992 15.9943 74.6736 16.6929L72.1232 15.4506C72.0339 15.4071 71.9266 15.425 71.8564 15.4954L69.4505 17.9016C69.3802 17.9719 69.3623 18.0791 69.4058 18.1685L70.6485 20.7187C69.9501 21.8444 69.4262 23.0896 69.1154 24.4171L66.4354 25.3415C66.3414 25.3739 66.2783 25.4624 66.2783 25.5618L66.2786 28.9646C66.2786 29.064 66.3417 29.1525 66.4357 29.1849L69.1159 30.1088C69.427 31.4362 69.9511 32.6814 70.6496 33.807L69.4074 36.3573C69.3638 36.4467 69.3818 36.5539 69.4522 36.6242L71.8584 39.0301C71.9287 39.1004 72.0359 39.1183 72.1253 39.0748L74.6754 37.8321C75.8012 38.5305 77.0464 39.0543 78.3739 39.3652L79.2982 42.0452C79.3307 42.1392 79.4191 42.2023 79.5186 42.2023L82.9213 42.202C83.0207 42.202 83.1093 42.1389 83.1416 42.0449L84.0656 39.3647C85.393 39.0537 86.6381 38.5296 87.7637 37.8311L90.3141 39.0733C90.4035 39.1168 90.5107 39.0989 90.581 39.0286L92.9869 36.6221Z" fill="url(#paint79_linear_963_19439)"/>
<path opacity="0.56" d="M80.3821 30.5782C78.5536 30.1167 77.4412 28.2537 77.9027 26.4249C78.1261 25.5391 78.6814 24.7933 79.4658 24.325C80.2501 23.8568 81.1699 23.7218 82.0559 23.9455C83.8845 24.4071 84.9968 26.2701 84.5353 28.0988C84.1154 29.7625 82.5356 30.8331 80.8768 30.6653C80.7124 30.6487 80.547 30.6198 80.3821 30.5782ZM79.8748 25.0102C79.2734 25.3693 78.8478 25.941 78.6763 26.6203C78.3226 28.0222 79.1753 29.4509 80.5774 29.8047C81.9797 30.159 83.408 29.3056 83.7618 27.9035C84.1155 26.5016 83.2628 25.0729 81.8608 24.7192C81.7336 24.6871 81.6057 24.6648 81.4777 24.6518C80.9213 24.5955 80.3637 24.7184 79.8748 25.0102Z" fill="white"/>
<path opacity="0.56" d="M80.3105 35.5739C80.5954 35.6027 80.8834 35.6174 81.1736 35.6174C81.265 35.6175 81.3564 35.6159 81.4477 35.613C81.898 35.5985 82.3465 35.5481 82.7862 35.4628C82.7922 35.4617 82.7981 35.4605 82.8042 35.4594C82.8211 35.456 82.8381 35.4526 82.8551 35.4491C82.8882 35.4425 82.9212 35.4354 82.9541 35.4284C83.0408 35.4098 83.102 35.3375 83.1106 35.2537C83.1127 35.2334 83.1116 35.2123 83.107 35.1913C83.0839 35.0836 82.9776 35.0155 82.87 35.0385C82.3158 35.158 81.7452 35.2186 81.1736 35.2185C78.3349 35.2192 75.8364 33.7352 74.413 31.5023C73.6211 30.2606 73.1619 28.7869 73.1619 27.2081C73.1618 26.9312 73.1757 26.6563 73.2033 26.3846C73.3886 24.5559 74.1906 22.8606 75.5077 21.5433C77.0207 20.03 79.0324 19.1965 81.1722 19.1963C85.5915 19.1964 89.1837 22.7897 89.184 27.2068C89.1841 27.4791 89.1703 27.7505 89.143 28.0197C89.0247 29.1862 88.6525 30.3139 88.0492 31.3205C88.0336 31.3466 88.0246 31.3746 88.0218 31.4029C88.0143 31.4773 88.0492 31.5531 88.1177 31.5941C88.2124 31.6505 88.3347 31.6204 88.3914 31.5255C89.0248 30.4687 89.4157 29.2847 89.5399 28.0601C89.5686 27.7775 89.583 27.4927 89.5831 27.2069C89.5828 22.5692 85.8082 18.797 81.1723 18.7973C78.9259 18.7975 76.8141 19.6725 75.2258 21.2612C73.8429 22.6441 73.0011 24.4239 72.8065 26.3437C72.7776 26.629 72.763 26.9174 72.7629 27.208C72.7632 29.4546 73.6382 31.5665 75.2267 33.1548C76.6099 34.5377 78.3903 35.3795 80.3105 35.5739Z" fill="white"/>
<g opacity="0.3">
<path d="M115.785 46.6815C115.917 46.6949 116.048 46.6208 116.101 46.491C116.2 46.2488 116.292 46.0003 116.376 45.7524C116.431 45.5913 116.344 45.4166 116.183 45.3619C116.022 45.3066 115.847 45.3938 115.793 45.5549C115.713 45.791 115.624 46.0279 115.53 46.2591C115.466 46.4164 115.542 46.5961 115.7 46.6605C115.728 46.6717 115.756 46.6785 115.785 46.6815Z" fill="white"/>
<path d="M116.441 44.4105C116.274 44.3761 116.167 44.2134 116.201 44.0467C116.287 43.6261 116.353 43.1962 116.396 42.7692C116.406 42.6791 116.414 42.5886 116.421 42.4978C116.435 42.3283 116.583 42.2018 116.753 42.2154C116.912 42.2346 117.048 42.3775 117.035 42.5472C117.027 42.6423 117.019 42.737 117.009 42.8312C116.964 43.2789 116.895 43.7296 116.805 44.1707C116.773 44.3267 116.627 44.4309 116.472 44.4152C116.462 44.4141 116.451 44.4124 116.441 44.4105ZM116.451 40.9338C116.429 40.4137 116.374 39.8903 116.289 39.3783C116.261 39.2104 116.374 39.052 116.542 39.0239C116.709 38.9963 116.869 39.1093 116.897 39.2772C116.986 39.8138 117.043 40.3625 117.066 40.9078C117.073 41.0778 116.941 41.2214 116.771 41.2287C116.756 41.2293 116.741 41.2287 116.727 41.2272C116.577 41.212 116.457 41.0886 116.451 40.9338ZM115.936 37.8542C115.788 37.3561 115.607 36.8622 115.398 36.3857C115.329 36.2301 115.4 36.0483 115.556 35.98C115.712 35.9114 115.893 35.9821 115.962 36.1381C116.181 36.6376 116.371 37.156 116.527 37.6782C116.575 37.8412 116.483 38.0129 116.32 38.0614C116.28 38.0731 116.24 38.0766 116.201 38.0727C116.08 38.0605 115.973 37.9774 115.936 37.8542ZM114.681 34.9951C114.415 34.5479 114.118 34.1131 113.8 33.7035C113.695 33.569 113.72 33.3755 113.854 33.2713C113.988 33.1672 114.182 33.1911 114.286 33.3253C114.62 33.7552 114.931 34.2108 115.211 34.6798C115.298 34.8259 115.25 35.0152 115.104 35.1023C115.045 35.1371 114.979 35.1504 114.915 35.144C114.821 35.1344 114.733 35.0823 114.681 34.9951ZM112.766 32.529C112.399 32.1602 112.006 31.8108 111.597 31.4901C111.464 31.3853 111.44 31.1916 111.545 31.0577C111.65 30.9238 111.844 30.9001 111.978 31.0056C112.406 31.3416 112.818 31.708 113.203 32.0944C113.323 32.215 113.323 32.41 113.202 32.5299C113.134 32.5977 113.042 32.6271 112.953 32.6181C112.885 32.6112 112.819 32.5815 112.766 32.529ZM110.311 30.6025C109.865 30.3343 109.399 30.0916 108.925 29.8809C108.77 29.812 108.699 29.6298 108.769 29.4745C108.838 29.3192 109.019 29.2492 109.175 29.3179C109.672 29.5388 110.162 29.7935 110.629 30.0748C110.774 30.1627 110.821 30.3519 110.734 30.4975C110.67 30.6029 110.553 30.6567 110.438 30.6451C110.395 30.6407 110.351 30.6269 110.311 30.6025ZM107.46 29.3357C106.964 29.1854 106.452 29.0643 105.938 28.9761C105.77 28.947 105.658 28.7878 105.687 28.6202C105.715 28.4526 105.874 28.3426 106.043 28.3687C106.581 28.4617 107.118 28.5886 107.638 28.7461C107.801 28.7955 107.893 28.9675 107.844 29.1303C107.8 29.2735 107.662 29.3619 107.518 29.3474C107.499 29.3453 107.479 29.3416 107.46 29.3357ZM102.489 28.5435C102.476 28.3738 102.603 28.2261 102.773 28.2134C103.242 28.1781 103.722 28.168 104.197 28.1831C104.269 28.1849 104.341 28.188 104.413 28.1913C104.582 28.1946 104.714 28.3439 104.705 28.5142C104.697 28.6842 104.552 28.815 104.382 28.8069C104.315 28.8034 104.247 28.8008 104.179 28.7989C103.724 28.7843 103.266 28.794 102.819 28.8276C102.8 28.829 102.782 28.8287 102.764 28.8269C102.618 28.8121 102.5 28.6946 102.489 28.5435Z" fill="white"/>
</g>
<g opacity="0.3">
<path d="M102.251 54.6943C101.717 54.6334 101.183 54.5391 100.663 54.4147C100.498 54.3751 100.395 54.209 100.435 54.0434C100.475 53.8778 100.642 53.7777 100.806 53.8155C101.302 53.9344 101.812 54.024 102.321 54.0822C102.49 54.1014 102.611 54.2543 102.592 54.4232C102.573 54.5908 102.422 54.7117 102.255 54.6948C102.254 54.6946 102.252 54.6945 102.251 54.6943ZM103.552 54.4747C103.551 54.3047 103.688 54.1659 103.858 54.165C104.37 54.1617 104.886 54.1276 105.394 54.0632C105.561 54.0424 105.717 54.1611 105.738 54.3302C105.759 54.499 105.64 54.6528 105.471 54.6745C104.94 54.7419 104.398 54.7778 103.862 54.781C103.851 54.781 103.84 54.7805 103.828 54.7794C103.674 54.7637 103.553 54.6339 103.552 54.4747ZM99.1195 53.9438C98.6164 53.7556 98.1205 53.5353 97.6457 53.2886C97.4948 53.2101 97.436 53.024 97.5144 52.8732C97.5927 52.7221 97.778 52.6638 97.9296 52.7417C98.3826 52.9771 98.8554 53.1873 99.3353 53.3671C99.4947 53.4268 99.5755 53.6043 99.5159 53.7633C99.4658 53.8973 99.3324 53.9757 99.1965 53.962C99.1708 53.9593 99.145 53.9534 99.1195 53.9438ZM106.682 54.1506C106.64 53.9859 106.74 53.8182 106.905 53.7762C107.401 53.6502 107.894 53.4924 108.37 53.3069C108.529 53.2456 108.707 53.3241 108.769 53.4821C108.831 53.6407 108.752 53.8193 108.594 53.8809C108.094 54.0755 107.577 54.2412 107.057 54.3733C107.021 54.3823 106.985 54.3847 106.95 54.3812C106.825 54.3685 106.715 54.2794 106.682 54.1506ZM96.2634 52.4594C95.8214 52.1564 95.3933 51.8232 94.9908 51.469C94.8631 51.3566 94.8507 51.1618 94.9632 51.0341C95.0756 50.9064 95.2702 50.8937 95.398 51.0064C95.7817 51.3446 96.19 51.6623 96.6118 51.951C96.752 52.0472 96.7879 52.2388 96.6916 52.3793C96.6258 52.4755 96.5147 52.5226 96.4063 52.5116C96.3567 52.5066 96.3075 52.4896 96.2634 52.4594ZM93.8464 50.3328C93.4891 49.932 93.153 49.5059 92.8473 49.0665C92.7502 48.927 92.7846 48.7352 92.9243 48.638C93.0636 48.5409 93.2558 48.5752 93.353 48.715C93.6446 49.1339 93.9653 49.5403 94.3063 49.9229C94.4195 50.0498 94.4083 50.2446 94.2813 50.3578C94.2142 50.4175 94.1282 50.4426 94.0452 50.4343C93.9713 50.4267 93.8998 50.3926 93.8464 50.3328ZM92.0081 47.6885C91.7568 47.2135 91.5327 46.7189 91.3418 46.2189C91.2811 46.0597 91.3607 45.8819 91.5197 45.8212C91.6785 45.7604 91.8565 45.8404 91.9173 45.999C92.0992 46.476 92.313 46.9475 92.5527 47.4002C92.6323 47.5506 92.5749 47.7371 92.4244 47.8165C92.3687 47.8462 92.308 47.8567 92.2497 47.8508C92.1506 47.8408 92.0582 47.7831 92.0081 47.6885Z" fill="white"/>
<path d="M109.895 53.2342C109.954 53.2402 110.015 53.2292 110.072 53.1989C110.304 53.074 110.533 52.9415 110.754 52.8054C110.898 52.716 110.943 52.5262 110.854 52.3814C110.764 52.2372 110.575 52.1921 110.43 52.2811C110.22 52.411 110.001 52.5373 109.779 52.6566C109.63 52.7373 109.574 52.9242 109.654 53.0739C109.705 53.1672 109.796 53.2243 109.895 53.2342Z" fill="white"/>
</g>
<path d="M111.651 47.6396C111.698 47.5925 111.71 47.5208 111.681 47.461L110.849 45.7545C111.317 45.0012 111.667 44.168 111.875 43.2797L113.669 42.6611C113.731 42.6394 113.774 42.5802 113.774 42.5137L113.774 40.2368C113.774 40.1702 113.731 40.111 113.668 40.0893L111.875 39.4711C111.667 38.5828 111.316 37.7496 110.849 36.9964L111.68 35.2898C111.709 35.23 111.697 35.1583 111.65 35.1112L110.04 33.5013C109.993 33.4543 109.921 33.4423 109.861 33.4714L108.155 34.3029C107.401 33.8356 106.568 33.4851 105.68 33.2771L105.061 31.4837C105.04 31.4208 104.98 31.3786 104.914 31.3787L102.637 31.3788C102.57 31.3788 102.511 31.4211 102.49 31.484L101.871 33.2774C100.983 33.4856 100.15 33.8362 99.3967 34.3037L97.6901 33.4724C97.6303 33.4433 97.5585 33.4553 97.5115 33.5023L95.9016 35.1125C95.8546 35.1595 95.8426 35.2313 95.8717 35.2911L96.7033 36.9975C96.2359 37.7508 95.8854 38.5841 95.6774 39.4723L93.8841 40.0909C93.8212 40.1126 93.7789 40.1718 93.779 40.2384L93.7792 42.5153C93.7792 42.5819 93.8214 42.6411 93.8843 42.6627L95.6778 43.281C95.886 44.1692 96.2366 45.0025 96.7041 45.7557L95.8728 47.4623C95.8437 47.522 95.8557 47.5938 95.9028 47.6409L97.5129 49.2507C97.56 49.2978 97.6317 49.3098 97.6916 49.2807L99.398 48.4491C100.151 48.9165 100.985 49.267 101.873 49.475L102.491 51.2683C102.513 51.3312 102.572 51.3734 102.639 51.3734L104.916 51.3732C104.982 51.3732 105.041 51.331 105.063 51.2681L105.681 49.4746C106.57 49.2665 107.403 48.9158 108.156 48.4484L109.863 49.2796C109.922 49.3088 109.994 49.2967 110.041 49.2497L111.651 47.6396Z" fill="url(#paint80_linear_963_19439)"/>
<path opacity="0.56" d="M103.208 43.6345C102.604 43.4824 102.096 43.1041 101.777 42.5697C101.458 42.0355 101.366 41.4089 101.519 40.8054C101.833 39.56 103.1 38.8038 104.348 39.1164C105.593 39.4311 106.351 40.7001 106.036 41.9453C105.884 42.5488 105.506 43.0568 104.972 43.3758C104.538 43.6351 104.042 43.7442 103.548 43.6942C103.434 43.6828 103.32 43.6628 103.208 43.6345ZM102.116 40.956C102.004 41.3999 102.071 41.8608 102.306 42.2541C102.541 42.6469 102.914 42.9251 103.358 43.0372C103.802 43.1486 104.263 43.0816 104.656 42.8469C105.049 42.6124 105.327 42.2385 105.439 41.7948C105.67 40.8786 105.113 39.9451 104.197 39.7137C104.114 39.6929 104.032 39.6785 103.949 39.6701C103.118 39.586 102.326 40.1226 102.116 40.956Z" fill="white"/>
<path opacity="0.56" d="M103.156 47.1115C103.35 47.1312 103.546 47.141 103.745 47.1412C104.14 47.1413 104.536 47.1012 104.921 47.0217C104.939 47.0181 104.956 47.0144 104.973 47.0106C105.107 46.9819 105.202 46.8702 105.215 46.7409C105.218 46.7095 105.216 46.677 105.209 46.6446C105.174 46.4783 105.01 46.3734 104.844 46.4086C104.484 46.4862 104.115 46.5253 103.745 46.5252H103.745C103.725 46.5252 103.705 46.525 103.685 46.5248C102.811 46.5165 101.972 46.2907 101.229 45.8768C100.825 45.6522 100.449 45.3716 100.111 45.0396C100.108 45.0369 100.106 45.0342 100.103 45.0315C100.095 45.0231 100.086 45.015 100.078 45.0066C99.0983 44.0271 98.5587 42.7248 98.5586 41.3395C98.5585 41.1602 98.5676 40.9825 98.5853 40.8065C98.7053 39.6227 99.2245 38.5252 100.077 37.6721C101.057 36.6926 102.359 36.1532 103.744 36.1531C105.128 36.1536 106.432 36.6924 107.412 37.6716C108.391 38.6511 108.931 39.9535 108.931 41.3387C108.931 41.515 108.922 41.6907 108.904 41.8648C108.828 42.6202 108.587 43.3501 108.196 44.0016C108.172 44.0418 108.158 44.0852 108.154 44.1289C108.142 44.2438 108.196 44.3608 108.302 44.4241C108.448 44.5112 108.637 44.4644 108.725 44.3182C109.162 43.5891 109.431 42.7723 109.517 41.9275C109.537 41.7324 109.547 41.536 109.547 41.3388C109.547 39.7888 108.943 38.3318 107.847 37.2359C106.751 36.1403 105.295 35.5358 103.744 35.537C102.194 35.537 100.738 36.1405 99.6417 37.2368C98.6876 38.1908 98.1068 39.4187 97.9726 40.7433C97.9527 40.9398 97.9425 41.139 97.9425 41.3394C97.943 44.34 100.233 46.8156 103.156 47.1115Z" fill="white"/>
<defs>
<linearGradient id="paint0_linear_963_19439" x1="104.478" y1="31.4013" x2="154.086" y2="31.4013" gradientUnits="userSpaceOnUse">
<stop stop-color="#B37CFF"/>
<stop offset="1" stop-color="#F895E7"/>
</linearGradient>
<linearGradient id="paint1_linear_963_19439" x1="107.561" y1="26.7522" x2="126.522" y2="26.7522" gradientUnits="userSpaceOnUse">
<stop stop-color="#DAE3FE"/>
<stop offset="1" stop-color="#E9EFFD"/>
</linearGradient>
<linearGradient id="paint2_linear_963_19439" x1="107.561" y1="29.5412" x2="126.522" y2="29.5412" gradientUnits="userSpaceOnUse">
<stop stop-color="#DAE3FE"/>
<stop offset="1" stop-color="#E9EFFD"/>
</linearGradient>
<linearGradient id="paint3_linear_963_19439" x1="107.561" y1="32.3308" x2="126.522" y2="32.3308" gradientUnits="userSpaceOnUse">
<stop stop-color="#DAE3FE"/>
<stop offset="1" stop-color="#E9EFFD"/>
</linearGradient>
<linearGradient id="paint4_linear_963_19439" x1="107.561" y1="35.1199" x2="126.522" y2="35.1199" gradientUnits="userSpaceOnUse">
<stop stop-color="#DAE3FE"/>
<stop offset="1" stop-color="#E9EFFD"/>
</linearGradient>
<linearGradient id="paint5_linear_963_19439" x1="133.843" y1="22.3179" x2="121.003" y2="31.0746" gradientUnits="userSpaceOnUse">
<stop stop-color="#FDF53F"/>
<stop offset="1" stop-color="#D93C65"/>
</linearGradient>
<linearGradient id="paint6_linear_963_19439" x1="141.749" y1="22.3178" x2="128.91" y2="31.0746" gradientUnits="userSpaceOnUse">
<stop stop-color="#FDF53F"/>
<stop offset="1" stop-color="#D93C65"/>
</linearGradient>
<linearGradient id="paint7_linear_963_19439" x1="149.656" y1="22.4225" x2="136.816" y2="31.1792" gradientUnits="userSpaceOnUse">
<stop stop-color="#FDF53F"/>
<stop offset="1" stop-color="#D93C65"/>
</linearGradient>
<linearGradient id="paint8_linear_963_19439" x1="127.974" y1="32.4462" x2="134.337" y2="32.4462" gradientUnits="userSpaceOnUse">
<stop stop-color="#DAE3FE"/>
<stop offset="1" stop-color="#E9EFFD"/>
</linearGradient>
<linearGradient id="paint9_linear_963_19439" x1="135.881" y1="32.4461" x2="142.243" y2="32.4461" gradientUnits="userSpaceOnUse">
<stop stop-color="#DAE3FE"/>
<stop offset="1" stop-color="#E9EFFD"/>
</linearGradient>
<linearGradient id="paint10_linear_963_19439" x1="143.787" y1="32.4461" x2="150.15" y2="32.4461" gradientUnits="userSpaceOnUse">
<stop stop-color="#DAE3FE"/>
<stop offset="1" stop-color="#E9EFFD"/>
</linearGradient>
<linearGradient id="paint11_linear_963_19439" x1="127.974" y1="36.0134" x2="134.337" y2="36.0134" gradientUnits="userSpaceOnUse">
<stop stop-color="#DAE3FE"/>
<stop offset="1" stop-color="#E9EFFD"/>
</linearGradient>
<linearGradient id="paint12_linear_963_19439" x1="135.881" y1="36.0134" x2="142.243" y2="36.0134" gradientUnits="userSpaceOnUse">
<stop stop-color="#DAE3FE"/>
<stop offset="1" stop-color="#E9EFFD"/>
</linearGradient>
<linearGradient id="paint13_linear_963_19439" x1="143.787" y1="36.0134" x2="150.15" y2="36.0134" gradientUnits="userSpaceOnUse">
<stop stop-color="#DAE3FE"/>
<stop offset="1" stop-color="#E9EFFD"/>
</linearGradient>
<linearGradient id="paint14_linear_963_19439" x1="92.4439" y1="138.363" x2="68.3616" y2="164.064" gradientUnits="userSpaceOnUse">
<stop stop-color="#09005D"/>
<stop offset="1" stop-color="#1A0F91"/>
</linearGradient>
<linearGradient id="paint15_linear_963_19439" x1="84.6904" y1="140.216" x2="86.8077" y2="140.236" gradientUnits="userSpaceOnUse">
<stop stop-color="#FEBBBA"/>
<stop offset="1" stop-color="#FF928E"/>
</linearGradient>
<linearGradient id="paint16_linear_963_19439" x1="94.6004" y1="109.059" x2="74.0557" y2="136.358" gradientUnits="userSpaceOnUse">
<stop stop-color="#09005D"/>
<stop offset="1" stop-color="#1A0F91"/>
</linearGradient>
<linearGradient id="paint17_linear_963_19439" x1="87.1428" y1="133.396" x2="63.0595" y2="159.098" gradientUnits="userSpaceOnUse">
<stop stop-color="#09005D"/>
<stop offset="1" stop-color="#1A0F91"/>
</linearGradient>
<linearGradient id="paint18_linear_963_19439" x1="77.059" y1="140.034" x2="78.887" y2="140.052" gradientUnits="userSpaceOnUse">
<stop stop-color="#FEBBBA"/>
<stop offset="1" stop-color="#FF928E"/>
</linearGradient>
<linearGradient id="paint19_linear_963_19439" x1="91.0107" y1="106.358" x2="70.4663" y2="133.656" gradientUnits="userSpaceOnUse">
<stop stop-color="#09005D"/>
<stop offset="1" stop-color="#1A0F91"/>
</linearGradient>
<linearGradient id="paint20_linear_963_19439" x1="93.8611" y1="85.8234" x2="62.8388" y2="123.165" gradientUnits="userSpaceOnUse">
<stop stop-color="#FDF53F"/>
<stop offset="1" stop-color="#D93C65"/>
</linearGradient>
<linearGradient id="paint21_linear_963_19439" x1="93.9287" y1="85.0609" x2="104.746" y2="85.1637" gradientUnits="userSpaceOnUse">
<stop stop-color="#FEBBBA"/>
<stop offset="1" stop-color="#FF928E"/>
</linearGradient>
<linearGradient id="paint22_linear_963_19439" x1="104.301" y1="82.9357" x2="105.539" y2="74.7186" gradientUnits="userSpaceOnUse">
<stop stop-color="#FEBBBA"/>
<stop offset="1" stop-color="#FF928E"/>
</linearGradient>
<linearGradient id="paint23_linear_963_19439" x1="104.763" y1="77.8503" x2="107.836" y2="73.2224" gradientUnits="userSpaceOnUse">
<stop stop-color="#FEBBBA"/>
<stop offset="1" stop-color="#FF928E"/>
</linearGradient>
<linearGradient id="paint24_linear_963_19439" x1="77.5725" y1="88.4235" x2="65.4211" y2="103.242" gradientUnits="userSpaceOnUse">
<stop stop-color="#FDF53F"/>
<stop offset="1" stop-color="#D93C65"/>
</linearGradient>
<linearGradient id="paint25_linear_963_19439" x1="70.1133" y1="100.157" x2="83.8022" y2="100.287" gradientUnits="userSpaceOnUse">
<stop stop-color="#FEBBBA"/>
<stop offset="1" stop-color="#FF928E"/>
</linearGradient>
<linearGradient id="paint26_linear_963_19439" x1="80.7625" y1="85.6229" x2="86.1749" y2="85.6743" gradientUnits="userSpaceOnUse">
<stop stop-color="#FEBBBA"/>
<stop offset="1" stop-color="#FF928E"/>
</linearGradient>
<linearGradient id="paint27_linear_963_19439" x1="87.4954" y1="82.2434" x2="81.5792" y2="78.5575" gradientUnits="userSpaceOnUse">
<stop stop-color="#FEBBBA"/>
<stop offset="1" stop-color="#FF928E"/>
</linearGradient>
<linearGradient id="paint28_linear_963_19439" x1="78.4665" y1="74.7018" x2="86.0964" y2="80.8466" gradientUnits="userSpaceOnUse">
<stop stop-color="#09005D"/>
<stop offset="1" stop-color="#1A0F91"/>
</linearGradient>
<linearGradient id="paint29_linear_963_19439" x1="85.9194" y1="83.5823" x2="80.5965" y2="80.266" gradientUnits="userSpaceOnUse">
<stop stop-color="#FEBBBA"/>
<stop offset="1" stop-color="#FF928E"/>
</linearGradient>
<linearGradient id="paint30_linear_963_19439" x1="87.4726" y1="91.4588" x2="95.0261" y2="122.932" gradientUnits="userSpaceOnUse">
<stop stop-color="#09005D"/>
<stop offset="1" stop-color="#1A0F91"/>
</linearGradient>
<linearGradient id="paint31_linear_963_19439" x1="82.2962" y1="99.7859" x2="86.5758" y2="99.7859" gradientUnits="userSpaceOnUse">
<stop stop-color="#FEBBBA"/>
<stop offset="1" stop-color="#FF928E"/>
</linearGradient>
<linearGradient id="paint32_linear_963_19439" x1="91.0598" y1="94.3845" x2="87.254" y2="96.9802" gradientUnits="userSpaceOnUse">
<stop stop-color="#FDF53F"/>
<stop offset="1" stop-color="#D93C65"/>
</linearGradient>
<linearGradient id="paint33_linear_963_19439" x1="85.1652" y1="94.7297" x2="94.3484" y2="94.7297" gradientUnits="userSpaceOnUse">
<stop stop-color="#DAE3FE"/>
<stop offset="1" stop-color="#E9EFFD"/>
</linearGradient>
<linearGradient id="paint34_linear_963_19439" x1="73.8957" y1="140.994" x2="70.9658" y2="148.979" gradientUnits="userSpaceOnUse">
<stop stop-color="#FDF53F"/>
<stop offset="1" stop-color="#D93C65"/>
</linearGradient>
<linearGradient id="paint35_linear_963_19439" x1="66.6299" y1="141.136" x2="68.8873" y2="141.136" gradientUnits="userSpaceOnUse">
<stop stop-color="#FEBBBA"/>
<stop offset="1" stop-color="#FF928E"/>
</linearGradient>
<linearGradient id="paint36_linear_963_19439" x1="85.3197" y1="137.628" x2="73.8316" y2="148.48" gradientUnits="userSpaceOnUse">
<stop stop-color="#FDF53F"/>
<stop offset="1" stop-color="#D93C65"/>
</linearGradient>
<linearGradient id="paint37_linear_963_19439" x1="92.3545" y1="109.067" x2="67.029" y2="127.808" gradientUnits="userSpaceOnUse">
<stop stop-color="#09005D"/>
<stop offset="1" stop-color="#1A0F91"/>
</linearGradient>
<linearGradient id="paint38_linear_963_19439" x1="77.3214" y1="141.326" x2="80.0164" y2="141.326" gradientUnits="userSpaceOnUse">
<stop stop-color="#FEBBBA"/>
<stop offset="1" stop-color="#FF928E"/>
</linearGradient>
<linearGradient id="paint39_linear_963_19439" x1="67.2471" y1="128.425" x2="99.3276" y2="106.307" gradientUnits="userSpaceOnUse">
<stop stop-color="#09005D"/>
<stop offset="1" stop-color="#1A0F91"/>
</linearGradient>
<linearGradient id="paint40_linear_963_19439" x1="62.3534" y1="103.348" x2="63.6821" y2="99.9979" gradientUnits="userSpaceOnUse">
<stop stop-color="#FEBBBA"/>
<stop offset="1" stop-color="#FF928E"/>
</linearGradient>
<linearGradient id="paint41_linear_963_19439" x1="68.9125" y1="99.2405" x2="57.5746" y2="131.42" gradientUnits="userSpaceOnUse">
<stop stop-color="#CB236D"/>
<stop offset="0.0721" stop-color="#C2236D"/>
<stop offset="1" stop-color="#4C246D"/>
</linearGradient>
<linearGradient id="paint42_linear_963_19439" x1="82.886" y1="64.7493" x2="92.5076" y2="54.147" gradientUnits="userSpaceOnUse">
<stop stop-color="#CB236D"/>
<stop offset="0.0721" stop-color="#C2236D"/>
<stop offset="1" stop-color="#4C246D"/>
</linearGradient>
<linearGradient id="paint43_linear_963_19439" x1="73.7046" y1="116.38" x2="79.9298" y2="116.38" gradientUnits="userSpaceOnUse">
<stop stop-color="#FEBBBA"/>
<stop offset="1" stop-color="#FF928E"/>
</linearGradient>
<linearGradient id="paint44_linear_963_19439" x1="66.4089" y1="96.5347" x2="60.4617" y2="102.466" gradientUnits="userSpaceOnUse">
<stop stop-color="#FEBBBA"/>
<stop offset="1" stop-color="#FF928E"/>
</linearGradient>
<linearGradient id="paint45_linear_963_19439" x1="61.2371" y1="93.1515" x2="68.2419" y2="100.073" gradientUnits="userSpaceOnUse">
<stop stop-color="#09005D"/>
<stop offset="1" stop-color="#1A0F91"/>
</linearGradient>
<linearGradient id="paint46_linear_963_19439" x1="65.4475" y1="95.5707" x2="59.5004" y2="101.502" gradientUnits="userSpaceOnUse">
<stop stop-color="#FEBBBA"/>
<stop offset="1" stop-color="#FF928E"/>
</linearGradient>
<linearGradient id="paint47_linear_963_19439" x1="-1260.33" y1="-1307.72" x2="-1238.37" y2="-1284.24" gradientUnits="userSpaceOnUse">
<stop stop-color="#09005D"/>
<stop offset="1" stop-color="#1A0F91"/>
</linearGradient>
<linearGradient id="paint48_linear_963_19439" x1="1942.8" y1="-500.126" x2="1912.25" y2="-490.114" gradientUnits="userSpaceOnUse">
<stop stop-color="#09005D"/>
<stop offset="1" stop-color="#1A0F91"/>
</linearGradient>
<linearGradient id="paint49_linear_963_19439" x1="106.303" y1="131.781" x2="115.63" y2="131.781" gradientUnits="userSpaceOnUse">
<stop stop-color="#FEBBBA"/>
<stop offset="1" stop-color="#FF928E"/>
</linearGradient>
<linearGradient id="paint50_linear_963_19439" x1="114.638" y1="135.928" x2="101.253" y2="145.252" gradientUnits="userSpaceOnUse">
<stop stop-color="#FDF53F"/>
<stop offset="1" stop-color="#D93C65"/>
</linearGradient>
<linearGradient id="paint51_linear_963_19439" x1="95.3517" y1="132.418" x2="115.035" y2="132.418" gradientUnits="userSpaceOnUse">
<stop stop-color="#FEBBBA"/>
<stop offset="1" stop-color="#FF928E"/>
</linearGradient>
<linearGradient id="paint52_linear_963_19439" x1="107.495" y1="122.15" x2="129.545" y2="122.15" gradientUnits="userSpaceOnUse">
<stop stop-color="#09005D"/>
<stop offset="1" stop-color="#1A0F91"/>
</linearGradient>
<linearGradient id="paint53_linear_963_19439" x1="101.951" y1="141.661" x2="98.066" y2="150.829" gradientUnits="userSpaceOnUse">
<stop stop-color="#FDF53F"/>
<stop offset="1" stop-color="#D93C65"/>
</linearGradient>
<linearGradient id="paint54_linear_963_19439" x1="123.026" y1="85.3206" x2="119.779" y2="102.378" gradientUnits="userSpaceOnUse">
<stop stop-color="#09005D"/>
<stop offset="1" stop-color="#1A0F91"/>
</linearGradient>
<linearGradient id="paint55_linear_963_19439" x1="125.624" y1="99.0212" x2="114.926" y2="123.637" gradientUnits="userSpaceOnUse">
<stop stop-color="#CB236D"/>
<stop offset="0.0721" stop-color="#C2236D"/>
<stop offset="1" stop-color="#4C246D"/>
</linearGradient>
<linearGradient id="paint56_linear_963_19439" x1="117.654" y1="106.662" x2="116.325" y2="98.1368" gradientUnits="userSpaceOnUse">
<stop stop-color="#FEBBBA"/>
<stop offset="1" stop-color="#FF928E"/>
</linearGradient>
<linearGradient id="paint57_linear_963_19439" x1="110.429" y1="97.6253" x2="120.391" y2="94.2649" gradientUnits="userSpaceOnUse">
<stop stop-color="#FEBBBA"/>
<stop offset="1" stop-color="#FF928E"/>
</linearGradient>
<linearGradient id="paint58_linear_963_19439" x1="108.305" y1="88.7335" x2="119.935" y2="101.627" gradientUnits="userSpaceOnUse">
<stop stop-color="#09005D"/>
<stop offset="1" stop-color="#1A0F91"/>
</linearGradient>
<linearGradient id="paint59_linear_963_19439" x1="110.133" y1="96.746" x2="120.094" y2="93.3857" gradientUnits="userSpaceOnUse">
<stop stop-color="#FEBBBA"/>
<stop offset="1" stop-color="#FF928E"/>
</linearGradient>
<linearGradient id="paint60_linear_963_19439" x1="123.11" y1="116.343" x2="141.6" y2="116.343" gradientUnits="userSpaceOnUse">
<stop stop-color="#FEBBBA"/>
<stop offset="1" stop-color="#FF928E"/>
</linearGradient>
<linearGradient id="paint61_linear_963_19439" x1="123.461" y1="114.439" x2="111.993" y2="118.2" gradientUnits="userSpaceOnUse">
<stop stop-color="#09005D"/>
<stop offset="1" stop-color="#1A0F91"/>
</linearGradient>
<linearGradient id="paint62_linear_963_19439" x1="107.707" y1="106.919" x2="99.4483" y2="115.648" gradientUnits="userSpaceOnUse">
<stop stop-color="#09005D"/>
<stop offset="1" stop-color="#1A0F91"/>
</linearGradient>
<linearGradient id="paint63_linear_963_19439" x1="101.979" y1="109.142" x2="97.025" y2="111.443" gradientUnits="userSpaceOnUse">
<stop stop-color="#FDF53F"/>
<stop offset="1" stop-color="#D93C65"/>
</linearGradient>
<linearGradient id="paint64_linear_963_19439" x1="133.557" y1="157.52" x2="133.435" y2="170.446" gradientUnits="userSpaceOnUse">
<stop stop-color="#09005D"/>
<stop offset="1" stop-color="#1A0F91"/>
</linearGradient>
<linearGradient id="paint65_linear_963_19439" x1="136.673" y1="143.083" x2="137.344" y2="137.839" gradientUnits="userSpaceOnUse">
<stop stop-color="#FEBBBA"/>
<stop offset="1" stop-color="#FF928E"/>
</linearGradient>
<linearGradient id="paint66_linear_963_19439" x1="151.023" y1="157.684" x2="150.901" y2="170.61" gradientUnits="userSpaceOnUse">
<stop stop-color="#09005D"/>
<stop offset="1" stop-color="#1A0F91"/>
</linearGradient>
<linearGradient id="paint67_linear_963_19439" x1="151.333" y1="144.88" x2="151.987" y2="139.77" gradientUnits="userSpaceOnUse">
<stop stop-color="#FEBBBA"/>
<stop offset="1" stop-color="#FF928E"/>
</linearGradient>
<linearGradient id="paint68_linear_963_19439" x1="155.901" y1="125.464" x2="135.784" y2="125.464" gradientUnits="userSpaceOnUse">
<stop stop-color="#09005D"/>
<stop offset="1" stop-color="#1A0F91"/>
</linearGradient>
<linearGradient id="paint69_linear_963_19439" x1="150.868" y1="83.999" x2="130.734" y2="120.076" gradientUnits="userSpaceOnUse">
<stop stop-color="#CB236D"/>
<stop offset="0.0721" stop-color="#C2236D"/>
<stop offset="1" stop-color="#4C246D"/>
</linearGradient>
<linearGradient id="paint70_linear_963_19439" x1="148.604" y1="41.8846" x2="157.465" y2="37.9915" gradientUnits="userSpaceOnUse">
<stop stop-color="#CB236D"/>
<stop offset="0.0721" stop-color="#C2236D"/>
<stop offset="1" stop-color="#4C246D"/>
</linearGradient>
<linearGradient id="paint71_linear_963_19439" x1="152.457" y1="102.034" x2="137.515" y2="117.989" gradientUnits="userSpaceOnUse">
<stop stop-color="#FEBBBA"/>
<stop offset="1" stop-color="#FF928E"/>
</linearGradient>
<linearGradient id="paint72_linear_963_19439" x1="137.952" y1="99.8358" x2="120.845" y2="99.8358" gradientUnits="userSpaceOnUse">
<stop stop-color="#FEBBBA"/>
<stop offset="1" stop-color="#FF928E"/>
</linearGradient>
<linearGradient id="paint73_linear_963_19439" x1="144.111" y1="90.2414" x2="138.157" y2="84.1331" gradientUnits="userSpaceOnUse">
<stop stop-color="#FEBBBA"/>
<stop offset="1" stop-color="#FF928E"/>
</linearGradient>
<linearGradient id="paint74_linear_963_19439" x1="135.475" y1="80.2847" x2="142.898" y2="90.1042" gradientUnits="userSpaceOnUse">
<stop stop-color="#FEBBBA"/>
<stop offset="1" stop-color="#FF928E"/>
</linearGradient>
<linearGradient id="paint75_linear_963_19439" x1="141.145" y1="82.6534" x2="132.278" y2="82.6534" gradientUnits="userSpaceOnUse">
<stop stop-color="#09005D"/>
<stop offset="1" stop-color="#1A0F91"/>
</linearGradient>
<linearGradient id="paint76_linear_963_19439" x1="146.348" y1="88.0608" x2="140.394" y2="81.9526" gradientUnits="userSpaceOnUse">
<stop stop-color="#FEBBBA"/>
<stop offset="1" stop-color="#FF928E"/>
</linearGradient>
<linearGradient id="paint77_linear_963_19439" x1="201.982" y1="-45.3617" x2="233.162" y2="-74.6622" gradientUnits="userSpaceOnUse">
<stop stop-color="#CB236D"/>
<stop offset="0.0721" stop-color="#C2236D"/>
<stop offset="1" stop-color="#4C246D"/>
</linearGradient>
<linearGradient id="paint78_linear_963_19439" x1="-199.987" y1="-704.742" x2="-187.574" y2="-674.548" gradientUnits="userSpaceOnUse">
<stop stop-color="#4F52FF"/>
<stop offset="1" stop-color="#4042E2"/>
</linearGradient>
<linearGradient id="paint79_linear_963_19439" x1="98.0828" y1="27.2737" x2="5.76924" y2="27.21" gradientUnits="userSpaceOnUse">
<stop stop-color="#CB236D"/>
<stop offset="1" stop-color="#4C246D"/>
</linearGradient>
<linearGradient id="paint80_linear_963_19439" x1="115.061" y1="41.3839" x2="53.2893" y2="41.3413" gradientUnits="userSpaceOnUse">
<stop stop-color="#CB236D"/>
<stop offset="1" stop-color="#4C246D"/>
</linearGradient>
</defs>
</svg>
