<svg width="49" height="49" viewBox="0 0 49 49" fill="none" xmlns="http://www.w3.org/2000/svg">
<path d="M41.5 20.88H35.72C30.98 20.88 27.12 17.02 27.12 12.28V6.5C27.12 5.4 26.22 4.5 25.12 4.5H16.64C10.48 4.5 5.5 8.5 5.5 15.64V33.36C5.5 40.5 10.48 44.5 16.64 44.5H32.36C38.52 44.5 43.5 40.5 43.5 33.36V22.88C43.5 21.78 42.6 20.88 41.5 20.88ZM25.06 32.06L21.06 36.06C20.92 36.2 20.74 36.32 20.56 36.38C20.38 36.46 20.2 36.5 20 36.5C19.8 36.5 19.62 36.46 19.44 36.38C19.28 36.32 19.12 36.2 19 36.08C18.98 36.06 18.96 36.06 18.96 36.04L14.96 32.04C14.38 31.46 14.38 30.5 14.96 29.92C15.54 29.34 16.5 29.34 17.08 29.92L18.5 31.38V23C18.5 22.18 19.18 21.5 20 21.5C20.82 21.5 21.5 22.18 21.5 23V31.38L22.94 29.94C23.52 29.36 24.48 29.36 25.06 29.94C25.64 30.52 25.64 31.48 25.06 32.06Z" fill="white"/>
<path d="M35.3594 18.121C37.2594 18.141 39.8994 18.141 42.1594 18.141C43.2994 18.141 43.8994 16.801 43.0994 16.001C40.2194 13.101 35.0594 7.88096 32.0994 4.92096C31.2794 4.10096 29.8594 4.66096 29.8594 5.80096V12.781C29.8594 15.701 32.3394 18.121 35.3594 18.121Z" fill="white"/>
</svg>
