<svg width="48" height="49" viewBox="0 0 48 49" fill="none" xmlns="http://www.w3.org/2000/svg">
<path d="M34.606 5H13.394C11.0352 5 8.77294 5.93704 7.10499 7.60499C5.43704 9.27294 4.5 11.5352 4.5 13.894V35.106C4.5 37.4648 5.43704 39.7271 7.10499 41.395C8.77294 43.063 11.0352 44 13.394 44H34.606C36.9648 44 39.2271 43.063 40.895 41.395C42.563 39.7271 43.5 37.4648 43.5 35.106V13.894C43.5 11.5352 42.563 9.27294 40.895 7.60499C39.2271 5.93704 36.9648 5 34.606 5ZM17.686 36.484C17.6923 36.5929 17.6762 36.7019 17.6388 36.8043C17.6014 36.9067 17.5435 37.0004 17.4686 37.0797C17.3937 37.1589 17.3033 37.222 17.2032 37.265C17.103 37.3081 16.995 37.3302 16.886 37.33H13.326C13.1113 37.3248 12.9072 37.2355 12.7577 37.0814C12.6081 36.9274 12.5249 36.7207 12.526 36.506V21.7C12.5231 21.5931 12.5416 21.4867 12.5805 21.3871C12.6193 21.2875 12.6778 21.1967 12.7524 21.12C12.827 21.0434 12.9162 20.9825 13.0147 20.9409C13.1132 20.8994 13.2191 20.878 13.326 20.878H16.886C16.9929 20.878 17.0988 20.8994 17.1973 20.9409C17.2958 20.9825 17.385 21.0434 17.4596 21.12C17.5342 21.1967 17.5927 21.2875 17.6315 21.3871C17.6704 21.4867 17.6889 21.5931 17.686 21.7V36.484ZM15.04 17.764C14.6546 17.7611 14.2735 17.6823 13.9185 17.5322C13.5635 17.382 13.2416 17.1634 12.9711 16.8888C12.7006 16.6142 12.4868 16.289 12.342 15.9319C12.1972 15.5747 12.1241 15.1924 12.127 14.807C12.1299 14.4216 12.2087 14.0405 12.3588 13.6855C12.509 13.3305 12.7276 13.0086 13.0022 12.7381C13.2768 12.4676 13.602 12.2538 13.9591 12.109C14.3163 11.9642 14.6986 11.8911 15.084 11.894C15.849 11.9189 16.5741 12.2417 17.1044 12.7937C17.6347 13.3457 17.9283 14.083 17.9226 14.8485C17.9168 15.6139 17.6122 16.3467 17.0736 16.8907C16.5351 17.4346 15.8053 17.7466 15.04 17.76M36.674 36.46C36.6731 36.6621 36.5937 36.8559 36.4527 37.0007C36.3117 37.1454 36.12 37.2298 35.918 37.236H32.16C31.9577 37.2298 31.7657 37.1451 31.6246 36.9999C31.4835 36.8548 31.4044 36.6604 31.404 36.458V29.61C31.404 28.588 31.716 25.164 28.692 25.164C26.334 25.164 25.868 27.564 25.778 28.632V36.614C25.7781 36.8168 25.6992 37.0116 25.5581 37.1572C25.417 37.3028 25.2247 37.3878 25.022 37.394H21.376C21.1695 37.3935 20.9716 37.3111 20.8257 37.1648C20.6799 37.0186 20.598 36.8205 20.598 36.614V21.628C20.6042 21.4253 20.6892 21.233 20.8348 21.0919C20.9804 20.9508 21.1752 20.8719 21.378 20.872H25.022C25.2248 20.8719 25.4196 20.9508 25.5652 21.0919C25.7108 21.233 25.7958 21.4253 25.802 21.628V22.918C26.3341 22.1392 27.0687 21.5205 27.9265 21.1286C28.7844 20.7367 29.733 20.5864 30.67 20.694C36.74 20.694 36.718 26.364 36.718 29.588L36.674 36.46Z" fill="white"/>
</svg>
