<svg width="48" height="49" viewBox="0 0 48 49" fill="none" xmlns="http://www.w3.org/2000/svg">
<path d="M40.7202 25.9592C39.9802 25.9592 39.3602 25.3992 39.2802 24.6592C38.8002 20.2592 36.4402 16.2992 32.8002 13.7792C32.1402 13.3192 31.9802 12.4192 32.4402 11.7592C32.9002 11.0992 33.8002 10.9392 34.4602 11.3992C38.8002 14.4192 41.6002 19.1392 42.1802 24.3592C42.2602 25.1592 41.6802 25.8792 40.8802 25.9592C40.8202 25.9592 40.7802 25.9592 40.7202 25.9592Z" fill="white"/>
<path d="M7.48058 26.0604C7.44058 26.0604 7.38058 26.0604 7.34058 26.0604C6.54058 25.9804 5.96058 25.2604 6.04058 24.4604C6.58058 19.2404 9.34058 14.5204 13.6406 11.4804C14.2806 11.0204 15.2006 11.1804 15.6606 11.8204C16.1206 12.4804 15.9606 13.3804 15.3206 13.8404C11.7206 16.4004 9.38058 20.3604 8.94058 24.7404C8.86058 25.5004 8.22058 26.0604 7.48058 26.0604Z" fill="white"/>
<path d="M31.9792 42.7007C29.5192 43.8807 26.8792 44.4807 24.1192 44.4807C21.2392 44.4807 18.4992 43.8407 15.9392 42.5407C15.2192 42.2007 14.9392 41.3207 15.2992 40.6007C15.6392 39.8807 16.5192 39.6007 17.2392 39.9407C18.4992 40.5807 19.8392 41.0207 21.1992 41.2807C23.0392 41.6407 24.9192 41.6607 26.7592 41.3407C28.1192 41.1007 29.4592 40.6807 30.6992 40.0807C31.4392 39.7407 32.3192 40.0207 32.6392 40.7607C32.9992 41.4807 32.7192 42.3607 31.9792 42.7007Z" fill="white"/>
<path d="M24.1009 4.51953C21.0009 4.51953 18.4609 7.03953 18.4609 10.1595C18.4609 13.2795 20.9809 15.7995 24.1009 15.7995C27.2209 15.7995 29.7409 13.2795 29.7409 10.1595C29.7409 7.03953 27.2209 4.51953 24.1009 4.51953Z" fill="white"/>
<path d="M10.1009 28.2402C7.00094 28.2402 4.46094 30.7602 4.46094 33.8802C4.46094 37.0002 6.98094 39.5202 10.1009 39.5202C13.2209 39.5202 15.7409 37.0002 15.7409 33.8802C15.7409 30.7602 13.2009 28.2402 10.1009 28.2402Z" fill="white"/>
<path d="M37.8998 28.2402C34.7998 28.2402 32.2598 30.7602 32.2598 33.8802C32.2598 37.0002 34.7798 39.5202 37.8998 39.5202C41.0198 39.5202 43.5398 37.0002 43.5398 33.8802C43.5398 30.7602 41.0198 28.2402 37.8998 28.2402Z" fill="white"/>
</svg>
