<svg width="48" height="49" viewBox="0 0 48 49" fill="none" xmlns="http://www.w3.org/2000/svg">
<path d="M29.0791 4.25977C26.6191 4.25977 24.6191 6.25973 24.6191 8.71973V17.9998C24.6191 20.4598 26.6191 22.4598 29.0791 22.4598C31.5391 22.4598 33.5392 20.4598 33.5392 17.9998V8.71973C33.5392 6.27973 31.5391 4.25977 29.0791 4.25977Z" fill="white"/>
<path d="M40.3604 14.7207C38.2204 14.7207 36.4805 16.4607 36.4805 18.6007V21.7407C36.4805 22.1607 36.8204 22.5007 37.2404 22.5007H40.3805C42.5205 22.5007 44.2605 20.7607 44.2605 18.6207C44.2605 16.4807 42.5004 14.7207 40.3604 14.7207Z" fill="white"/>
<path d="M16.9998 14.4805H7.71976C5.25976 14.4805 3.25977 16.4805 3.25977 18.9405C3.25977 21.4005 5.25976 23.4005 7.71976 23.4005H16.9998C19.4598 23.4005 21.4597 21.4005 21.4597 18.9405C21.4597 16.4805 19.4598 14.4805 16.9998 14.4805Z" fill="white"/>
<path d="M17.5792 3.74023C15.4392 3.74023 13.6992 5.48024 13.6992 7.62024C13.6992 9.76024 15.4392 11.5002 17.5792 11.5002H20.7192C21.1392 11.5002 21.4792 11.1602 21.4792 10.7402V7.60022C21.4592 5.50022 19.7192 3.74023 17.5792 3.74023Z" fill="white"/>
<path d="M18.8604 26.5605C16.4004 26.5605 14.4004 28.5606 14.4004 31.0206V40.3005C14.4004 42.7605 16.4004 44.7606 18.8604 44.7606C21.3204 44.7606 23.3204 42.7605 23.3204 40.3005V31.0206C23.3204 28.5606 21.3204 26.5605 18.8604 26.5605Z" fill="white"/>
<path d="M10.7192 26.5605H7.57919C5.43919 26.5605 3.69922 28.3006 3.69922 30.4406C3.69922 32.5806 5.43919 34.3206 7.57919 34.3206C9.71919 34.3206 11.4592 32.5806 11.4592 30.4406V27.3005C11.4592 26.9005 11.1192 26.5605 10.7192 26.5605Z" fill="white"/>
<path d="M40.2205 25.6406H30.9405C28.4805 25.6406 26.4805 27.6406 26.4805 30.1006C26.4805 32.5606 28.4805 34.5606 30.9405 34.5606H40.2205C42.6805 34.5606 44.6805 32.5606 44.6805 30.1006C44.6805 27.6406 42.6805 25.6406 40.2205 25.6406Z" fill="white"/>
<path d="M30.3609 37.4395H27.2209C26.8009 37.4395 26.4609 37.7795 26.4609 38.1995V41.3395C26.4609 43.4795 28.2009 45.2194 30.3409 45.2194C32.4809 45.2194 34.2209 43.4795 34.2209 41.3395C34.2409 39.1795 32.5009 37.4395 30.3609 37.4395Z" fill="white"/>
</svg>
