<svg width="166" height="155" viewBox="0 0 166 155" fill="none" xmlns="http://www.w3.org/2000/svg">
<path d="M29.6309 142.195L97.411 109.515L101.929 118.885L34.1483 151.565L29.6309 142.195Z" fill="url(#paint0_linear_1988_63960)"/>
<path opacity="0.6" d="M29.6309 142.195L41.0371 136.695C43.4485 137.736 47.0702 138.827 50.9182 137.83C55.4049 136.668 56.858 133.534 61.4002 130.739C66.2365 127.763 70.4101 127.733 75.3661 127.078C81.6682 126.245 90.6273 124.215 101.929 118.884C79.3352 129.778 56.7418 140.671 34.1483 151.564L29.6309 142.195Z" fill="url(#paint1_linear_1988_63960)"/>
<path opacity="0.15" d="M37.8325 46.0104L16.6563 45.7544L5.80566 67.8538L16.6563 89.8512L37.8325 89.3958L48.1664 67.6544L37.8325 46.0104Z" fill="url(#paint2_linear_1988_63960)"/>
<path opacity="0.47" d="M37.8325 95.4849L16.6563 96.0401L5.80566 118.555L16.6563 140.137L37.8325 138.87L48.1664 116.733L37.8325 95.4849Z" fill="url(#paint3_linear_1988_63960)"/>
<path opacity="0.5" d="M71.8219 23.4026L51.7544 22.7925L41.4785 44.1117L51.7544 65.7102L71.8219 65.6461L81.621 44.6576L71.8219 23.4026Z" fill="url(#paint4_linear_1988_63960)"/>
<path opacity="0.5" d="M85.1219 44.7036L75.3779 65.6331L118.899 65.4939L127.98 45.2866L85.1219 44.7036Z" fill="url(#paint5_linear_1988_63960)"/>
<path d="M51.713 116.58L41.4365 138.655L114.307 134.296L123.458 113.494L51.713 116.58Z" fill="#9E66FF"/>
<path opacity="0.5" d="M71.8219 70.5371L51.7544 70.6794L41.4785 92.3837L51.7544 113.597L71.8219 112.781L81.621 91.4248L71.8219 70.5371Z" fill="url(#paint6_linear_1988_63960)"/>
<path opacity="0.15" d="M104.065 0.943248L85.021 0L75.2754 20.581L85.021 41.8L104.065 42.1034L113.37 21.828L104.065 0.943248Z" fill="url(#paint7_linear_1988_63960)"/>
<path opacity="0.15" d="M139.123 3.0883L108.212 1.1001L117.468 21.9294L108.212 42.1528L139.123 41.7911L147.353 22.7092L139.123 3.0883Z" fill="url(#paint8_linear_1988_63960)"/>
<path opacity="0.15" d="M148.818 69.9355L75.2754 70.4534L85.021 91.2848L75.2754 112.581L148.818 109.592L157.458 89.5579L148.818 69.9355Z" fill="url(#paint9_linear_1988_63960)"/>
<path d="M156.024 39.8931L107.445 97.3584L115.389 104.074L163.968 46.6084L156.024 39.8931Z" fill="url(#paint10_linear_1988_63960)"/>
<path opacity="0.6" d="M156.023 39.8931L147.848 49.5635C148.254 52.1587 148.405 55.9378 146.478 59.4147C144.232 63.4688 140.835 64.0929 136.993 67.7927C132.903 71.732 131.832 75.7658 129.959 80.4009C127.578 86.2948 123.374 94.4627 115.389 104.074C131.582 84.9185 147.774 65.7635 163.967 46.6084L156.023 39.8931Z" fill="url(#paint11_linear_1988_63960)"/>
<path d="M165.068 46.6787L160.15 51.8094C159.681 52.2986 158.904 52.315 158.415 51.846L131.59 26.1297L138.207 19.2275L165.032 44.9439C165.521 45.4128 165.537 46.1895 165.068 46.6787Z" fill="url(#paint12_linear_1988_63960)"/>
<path d="M160.912 43.6354C162.057 44.7334 162.095 46.552 160.997 47.6973C159.899 48.8427 158.081 48.881 156.936 47.7831C155.79 46.6851 155.752 44.8666 156.85 43.7212C157.948 42.5759 159.766 42.5375 160.912 43.6354Z" fill="url(#paint13_linear_1988_63960)"/>
<path d="M112.03 33.4093L115.238 38.7423C115.683 39.4831 117.262 39.5855 117.836 38.94L130.319 24.3099C131.515 22.987 131.554 20.9855 130.41 19.6172L129.629 18.682C128.463 17.2878 126.348 17.2062 125.079 18.5067L112.206 31.8583C111.803 32.2761 111.731 32.9121 112.03 33.4093Z" fill="#97A6B7"/>
<path d="M112.809 33.3106L116.017 38.6436C116.463 39.3844 117.499 39.4811 118.073 38.8356L131.099 24.2112C132.294 22.8883 132.333 20.8868 131.19 19.5185L130.408 18.5834C129.242 17.1892 127.127 17.1076 125.858 18.408L112.985 31.7597C112.582 32.1774 112.51 32.8134 112.809 33.3106Z" fill="url(#paint14_linear_1988_63960)"/>
<path d="M130.934 22.4443C130.53 24.2035 128.995 25.3522 127.504 25.01C126.013 24.6678 125.132 22.9643 125.535 21.2051C125.939 19.4459 127.475 18.2972 128.966 18.6394C130.457 18.9816 131.338 20.6851 130.934 22.4443Z" fill="#D8DEE8"/>
<path d="M144.331 35.9792L149.014 29.0546C149.309 28.6182 149.258 28.035 148.893 27.6558L140.343 18.784C140.19 18.625 139.993 18.5151 139.778 18.4682L131.048 16.5652C130.609 16.4695 130.156 16.6466 129.898 17.0145L126.785 21.4528C126.502 21.8565 126.518 22.398 126.823 22.7848L134.656 32.6958C134.772 32.8424 134.923 32.9575 135.094 33.0306L142.971 36.3808C143.462 36.5897 144.032 36.4214 144.331 35.9792Z" fill="url(#paint15_linear_1988_63960)"/>
<path d="M138.956 20.0121L136.168 23.5344C135.908 23.8623 135.895 24.3223 136.137 24.6637C137.391 26.437 141.32 31.6983 143.023 33.974C143.42 34.5054 144.218 34.4994 144.608 33.9625C145.624 32.5639 147.359 30.1749 148.164 29.0645C148.433 28.693 148.395 28.1826 148.075 27.8539L140.372 19.9396C139.975 19.5318 139.31 19.5658 138.956 20.0121Z" fill="url(#paint16_linear_1988_63960)"/>
<path d="M113.534 33.7056L120.731 26.5193C121.243 26.0084 121.991 25.8153 122.686 26.0148L131.89 28.6572C132.639 28.8723 133.187 29.5141 133.283 30.2878L134.111 36.9767L126.345 43.2485C125.88 43.6243 125.259 43.7475 124.686 43.5781L114.832 40.6685C114.081 40.4469 113.533 39.8035 113.433 39.0278L112.962 35.3806C112.882 34.7639 113.094 34.145 113.534 33.7056Z" fill="#D8DEE8"/>
<path d="M114.838 34.8596L124.28 37.1642C124.547 37.2293 124.74 37.4605 124.756 37.7346L125.015 41.9979C125.042 42.4287 124.634 42.7562 124.219 42.6384L115.029 40.0305C114.788 39.9621 114.611 39.7564 114.579 39.5078L114.068 35.5489C114.012 35.1123 114.411 34.7552 114.838 34.8596Z" fill="url(#paint17_linear_1988_63960)"/>
<path d="M126.439 36.7222L129.647 42.0553C130.093 42.796 131.671 42.8985 132.246 42.253L144.729 27.6228C145.924 26.2999 145.963 24.2984 144.819 22.9301L144.038 21.995C142.872 20.6008 140.757 20.5192 139.488 21.8196L126.615 35.1713C126.212 35.5889 126.14 36.225 126.439 36.7222Z" fill="#97A6B7"/>
<path d="M127.218 36.623L130.425 41.9561C130.871 42.6969 131.907 42.7935 132.482 42.148L145.507 27.5237C146.703 26.2008 146.741 24.1992 145.598 22.831L144.816 21.8959C143.651 20.5016 141.536 20.4201 140.266 21.7205L127.393 35.0722C126.991 35.4898 126.919 36.1258 127.218 36.623Z" fill="url(#paint18_linear_1988_63960)"/>
<path d="M145.341 25.7568C144.938 27.516 143.402 28.6647 141.911 28.3225C140.42 27.9803 139.539 26.2768 139.943 24.5176C140.347 22.7584 141.882 21.6097 143.373 21.9519C144.864 22.2941 145.745 23.9976 145.341 25.7568Z" fill="#D8DEE8"/>
<path d="M117.24 31.2593L127.111 40.5213L120.058 47.7513L110.187 38.4892L117.24 31.2593Z" fill="url(#paint19_linear_1988_63960)"/>
<path d="M117.255 31.2362C117.868 30.583 120.575 32.1268 123.301 34.6845C126.026 37.2422 127.739 39.8451 127.126 40.4983C126.513 41.1515 123.807 39.6077 121.081 37.05C118.355 34.4924 116.642 31.8894 117.255 31.2362Z" fill="url(#paint20_linear_1988_63960)"/>
<path opacity="0.6" d="M119.148 46.3495L124.463 40.9725C125.1 40.293 125.154 39.2521 124.586 38.5131C124.022 37.7791 123.223 36.8738 122.175 35.89C121.126 34.9061 120.172 34.1661 119.404 33.6504C118.63 33.1309 117.595 33.2504 116.957 33.9299L111.643 39.3069L119.148 46.3495Z" fill="url(#paint21_linear_1988_63960)"/>
<path d="M110.185 38.4877C110.798 37.8345 113.504 39.3783 116.23 41.936C118.956 44.4937 120.669 47.0965 120.056 47.7498C119.443 48.403 116.736 46.8592 114.011 44.3015C111.285 41.7438 109.572 39.1409 110.185 38.4877Z" fill="url(#paint22_linear_1988_63960)"/>
<path d="M108.811 49.1888C108.652 49.3875 109.274 49.9708 109.462 49.7995L116.469 45.1049C116.683 44.9095 116.076 44.0143 115.121 43.1178C114.166 42.2214 113.234 41.6725 113.052 41.8993L108.811 49.1888Z" fill="url(#paint23_linear_1988_63960)"/>
<path d="M17.0524 25.6289L43.766 95.9746L34.0417 99.6674L7.32812 29.3217L17.0524 25.6289Z" fill="url(#paint24_linear_1988_63960)"/>
<path opacity="0.6" d="M17.0525 25.6289L21.5479 37.4669C20.3025 39.7795 18.9042 43.2937 19.5654 47.2133C20.3363 51.7836 23.3329 53.5015 25.7259 58.2678C28.2739 63.3428 27.9433 67.5033 28.1689 72.4974C28.4559 78.8479 29.7056 87.9487 34.0417 99.6675C25.1372 76.2189 16.2327 52.7703 7.32812 29.3217L17.0525 25.6289Z" fill="url(#paint25_linear_1988_63960)"/>
<path d="M7.51238 31.7705L7.95346 32.7439C8.92137 34.8801 11.4377 35.8272 13.5738 34.8592L44.672 20.7687L40.7259 12.0596L9.62777 26.1501C7.49153 27.118 6.54447 29.6343 7.51238 31.7705Z" fill="url(#paint26_linear_1988_63960)"/>
<path d="M12.3846 33.025C13.9712 33.025 15.2574 31.7388 15.2574 30.1521C15.2574 28.5655 13.9712 27.2793 12.3846 27.2793C10.7979 27.2793 9.51172 28.5655 9.51172 30.1521C9.51172 31.7388 10.7979 33.025 12.3846 33.025Z" fill="url(#paint27_linear_1988_63960)"/>
<path d="M60.6953 34.1386L55.8971 38.1021C55.2307 38.6525 53.7083 38.2246 53.3807 37.4247L46.4708 19.4771C45.7828 17.8318 46.4117 15.9312 47.945 15.021L48.9931 14.3989C50.5557 13.4713 52.5776 14.0976 53.3424 15.7459L61.0451 32.6175C61.286 33.1452 61.1426 33.7691 60.6953 34.1386Z" fill="#97A6B7"/>
<path d="M59.9931 33.7845L55.195 37.748C54.5286 38.2985 53.5195 38.0454 53.1918 37.2455L45.7686 19.123C45.0807 17.4778 45.7095 15.5772 47.2429 14.667L48.291 14.0449C49.8536 13.1174 51.8754 13.7435 52.6402 15.3919L60.3429 32.2635C60.5839 32.7912 60.4404 33.415 59.9931 33.7845Z" fill="url(#paint28_linear_1988_63960)"/>
<path d="M46.5113 17.5155C46.3074 19.3088 47.3741 20.9028 48.8939 21.0756C50.4137 21.2484 51.8111 19.9347 52.015 18.1413C52.2189 16.3479 51.1522 14.754 49.6324 14.5812C48.1127 14.4083 46.7152 15.722 46.5113 17.5155Z" fill="#D8DEE8"/>
<path d="M29.3775 25.8267L27.263 17.7391C27.1297 17.2296 27.3711 16.6963 27.8419 16.4601L38.8547 10.9348C39.0519 10.8359 39.2741 10.7977 39.493 10.825L48.3584 11.932C48.8043 11.9877 49.1732 12.3056 49.2943 12.7383L50.7545 17.9589C50.8872 18.4337 50.6926 18.9393 50.2757 19.2024L39.5938 25.9462C39.4359 26.0459 39.2554 26.1043 39.069 26.1161L30.5272 26.6576C29.9945 26.6914 29.5125 26.3431 29.3775 25.8267Z" fill="url(#paint29_linear_1988_63960)"/>
<path d="M39.7552 12.5499L41.2145 16.7989C41.3503 17.1945 41.2098 17.6327 40.8684 17.8744C39.0957 19.1297 33.6416 22.7859 31.2791 24.3662C30.7275 24.7352 29.9772 24.4644 29.7878 23.8283C29.2944 22.1715 28.4518 19.3414 28.0624 18.0269C27.9321 17.5871 28.1373 17.1182 28.5483 16.9146L38.4442 12.011C38.9543 11.7583 39.5703 12.0115 39.7552 12.5499Z" fill="url(#paint30_linear_1988_63960)"/>
<path d="M59.1811 33.916L54.7819 24.7459C54.4692 24.0939 53.8274 23.6629 53.1055 23.6201L43.5471 23.0527C42.7688 23.0066 42.0381 23.4295 41.6907 24.1274L38.6865 30.1608L43.9259 38.6573C44.2398 39.1665 44.7839 39.4889 45.3812 39.5198L55.6423 40.0514C56.4234 40.0918 57.1548 39.6673 57.507 38.969L59.1634 35.6858C59.4436 35.1306 59.4501 34.4767 59.1811 33.916Z" fill="#D8DEE8"/>
<path d="M57.566 34.5692L47.8954 33.6042C47.6222 33.5769 47.3631 33.7308 47.2563 33.9837L45.5948 37.9185C45.4269 38.3161 45.702 38.7603 46.1328 38.7872L55.6668 39.3824C55.9171 39.3981 56.1526 39.263 56.2656 39.0392L58.0635 35.4754C58.2617 35.0825 58.0039 34.6129 57.566 34.5692Z" fill="url(#paint31_linear_1988_63960)"/>
<path d="M46.0048 32.4745L41.2066 36.438C40.5402 36.9885 39.0178 36.5606 38.6902 35.7607L31.7803 17.813C31.0924 16.1678 31.7212 14.2672 33.2546 13.357L34.3027 12.7348C35.8653 11.8073 37.8872 12.4335 38.652 14.0819L46.3546 30.9534C46.5955 31.4812 46.4521 32.105 46.0048 32.4745Z" fill="#97A6B7"/>
<path d="M45.3046 32.1201L40.5065 36.0836C39.84 36.634 38.8309 36.3809 38.5033 35.581L31.0801 17.4585C30.3922 15.8133 31.021 13.9128 32.5544 13.0025L33.6024 12.3804C35.1651 11.4528 37.1869 12.079 37.9518 13.7274L45.6544 30.599C45.8953 31.1267 45.7519 31.7505 45.3046 32.1201Z" fill="url(#paint32_linear_1988_63960)"/>
<path d="M31.8209 15.847C31.617 17.6404 32.6837 19.2344 34.2034 19.4071C35.7232 19.58 37.1207 18.2663 37.3246 16.4729C37.5285 14.6795 36.4618 13.0856 34.942 12.9127C33.4222 12.74 32.0249 14.0537 31.8209 15.847Z" fill="#D8DEE8"/>
<path d="M56.4999 30.376L44.1113 35.83L48.36 44.9934L60.7486 39.5394L56.4999 30.376Z" fill="url(#paint33_linear_1988_63960)"/>
<path d="M56.4908 30.3506C56.1299 29.5308 53.064 30.0871 49.6431 31.5932C46.222 33.0993 43.7414 34.9848 44.1023 35.8046C44.4631 36.6244 47.5291 36.0681 50.95 34.562C54.3711 33.0559 56.8518 31.1704 56.4908 30.3506Z" fill="url(#paint34_linear_1988_63960)"/>
<path opacity="0.6" d="M49.6836 43.9729L46.4587 37.135C46.0833 36.2822 46.3789 35.2827 47.1599 34.7744C47.9355 34.2696 48.9901 33.6814 50.306 33.1021C51.6219 32.5227 52.768 32.1421 53.664 31.911C54.5663 31.6783 55.5031 32.1352 55.8785 32.988L59.1034 39.8258L49.6836 43.9729Z" fill="url(#paint35_linear_1988_63960)"/>
<path d="M60.7487 39.5386C60.3877 38.7188 57.3219 39.2751 53.9009 40.7812C50.4798 42.2873 47.9992 44.1728 48.3601 44.9927C48.721 45.8125 51.7868 45.2562 55.2078 43.75C58.6289 42.2439 61.1096 40.3584 60.7487 39.5386Z" fill="url(#paint36_linear_1988_63960)"/>
<path d="M58.4854 50.0874C58.5693 50.3276 57.7891 50.6711 57.6686 50.4471L52.6208 43.6903C52.4831 43.4345 53.3532 42.7921 54.5523 42.2642C55.7514 41.7362 56.8128 41.5284 56.9084 41.8027L58.4854 50.0874Z" fill="url(#paint37_linear_1988_63960)"/>
<path opacity="0.95" d="M157.641 141.751C157.598 140.875 157.322 140.089 156.876 139.484C156.627 139.115 156.315 138.806 155.946 138.581L155.899 138.582C155.899 138.582 155.898 138.581 155.898 138.581C155.898 138.581 157.7 132.331 156.281 124.844L156.32 124.797C155.745 121.798 154.665 118.605 152.757 115.537C152.75 115.538 152.743 115.539 152.735 115.54C152.734 115.539 152.734 115.538 152.733 115.537C151.624 113.755 150.254 112.018 148.533 110.386C148.533 110.386 141.09 102.918 127.433 100.976C127.433 100.976 116.114 91.0233 105.756 84.4263C100.649 81.1728 95.053 79.5142 89.28 79.5142H51.4186C44.8471 79.5142 38.3996 81.7283 32.8088 85.9129L22.9473 93.2817C22.9473 93.2817 20.5925 94.9791 18.1923 99.0434C18.1921 99.0436 18.192 99.0439 18.1918 99.0442C18.1906 99.044 18.1893 99.0439 18.1882 99.0438C15.457 103.664 12.6698 111.347 13.2202 123.065L12.9899 123.625C12.8133 124.595 12.9307 125.594 13.3008 126.455C13.4407 126.78 13.6157 127.086 13.8262 127.362L15.2458 129.221C15.2458 129.221 15.2458 129.221 15.2458 129.221L15.2461 129.221C15.2467 129.213 15.2475 129.205 15.2482 129.197C15.2482 129.203 15.2481 129.21 15.2482 129.216H15.7349C15.7222 129.539 15.7145 129.866 15.7145 130.198C15.7145 136.337 17.9275 141.424 20.6093 141.552C20.6333 141.553 20.6569 141.551 20.6808 141.551C26.1888 142.287 27.974 141.464 28.1207 141.437C28.1207 141.437 28.145 141.434 28.145 141.434C29.5933 141.111 30.8387 139.186 31.5378 136.418L59.3756 142.654L61.2753 143.08C61.9662 148.07 64.0176 151.878 66.4798 152.497C66.4798 152.498 66.4798 152.498 66.4798 152.498C66.4854 152.499 66.4906 152.5 66.4963 152.501C66.6816 152.546 66.8689 152.576 67.0584 152.584C67.0823 152.585 67.1058 152.583 67.1296 152.584C73.9174 153.437 76.1011 152.482 76.282 152.451C76.282 152.451 76.2763 152.447 76.2763 152.447C77.8517 152.116 79.2093 150.337 80.0846 147.715C80.0928 147.72 80.1013 147.725 80.1096 147.73C80.2437 147.811 80.4163 147.898 80.6428 147.987C81.5057 148.339 83.0305 148.71 85.6824 148.797C87.9982 148.941 91.238 148.981 95.7979 148.817H125.017C126.105 150.933 127.517 152.333 129.082 152.654C129.082 152.655 129.082 152.657 129.082 152.658C129.097 152.659 129.11 152.66 129.125 152.661C129.339 152.702 129.555 152.726 129.774 152.726C129.8 152.726 129.825 152.723 129.851 152.722C137.994 153.362 140.678 152.128 140.902 152.081C140.902 152.081 140.869 152.077 140.869 152.077C142.246 151.742 143.488 150.571 144.487 148.817H152.29C155.249 148.817 157.458 145.694 157.458 142.115V141.82C157.458 141.797 157.466 141.774 157.477 141.751H157.641ZM21.7084 119.657C21.4407 119.661 21.1944 119.666 20.9747 119.673L21.0225 119.526C21.2549 119.543 21.4838 119.586 21.7084 119.657Z" fill="url(#paint38_linear_1988_63960)"/>
<path d="M49.0576 79.4284C56.0994 79.2477 63.1417 79.1283 70.1856 79.0573L75.4688 79.0102L80.753 79.0049C82.5145 79.0087 84.2763 79.0183 86.039 79.0404C87.8024 79.0652 89.5632 79.0925 91.3358 79.1847C91.7813 79.2114 92.2209 79.2373 92.6851 79.2989L92.8639 79.3268L93.0264 79.3559L93.3507 79.4143L94.0038 79.5343C94.877 79.6991 95.75 79.8972 96.608 80.1411C97.4669 80.3834 98.3136 80.6642 99.1488 80.9725C99.9821 81.2856 100.804 81.6266 101.614 81.9897C104.852 83.4564 107.905 85.2725 110.844 87.2359C116.696 91.2111 122.102 95.7767 127.257 100.58L127.172 100.536H127.172C128.292 100.732 129.395 100.975 130.494 101.251C131.592 101.525 132.685 101.825 133.768 102.162C134.851 102.497 135.929 102.854 136.994 103.247C138.059 103.644 139.115 104.066 140.159 104.524C140.681 104.751 141.199 104.989 141.714 105.234C142.227 105.486 142.738 105.74 143.242 106.01C144.254 106.544 145.245 107.121 146.213 107.743C148.147 108.986 149.967 110.449 151.551 112.18C152.333 113.053 153.067 113.986 153.667 115.015C153.976 115.522 154.242 116.058 154.493 116.601C154.733 117.144 154.949 117.724 155.119 118.264C155.48 119.361 155.788 120.472 156.049 121.594L156.232 122.437C156.291 122.718 156.34 123.001 156.394 123.284C156.495 123.849 156.589 124.416 156.661 124.985C156.967 127.26 157.071 129.554 156.994 131.835C156.953 132.975 156.871 134.113 156.727 135.244C156.657 135.81 156.581 136.374 156.48 136.934C156.383 137.496 156.272 138.053 156.128 138.61V138.611L156.112 138.759L155.949 138.767C150.47 139.035 144.99 139.184 139.509 139.317C136.769 139.368 134.029 139.434 131.288 139.466L127.177 139.524L123.066 139.562L118.955 139.6L114.844 139.621C112.103 139.639 109.362 139.642 106.621 139.642C101.139 139.641 95.6567 139.604 90.1737 139.518L90.1696 139.15C95.6492 138.939 101.129 138.777 106.61 138.651C109.35 138.588 112.09 138.529 114.831 138.484L118.941 138.411L123.052 138.355L127.163 138.3L131.274 138.264C134.015 138.233 136.756 138.237 139.497 138.225C144.979 138.233 150.461 138.257 155.945 138.4L155.765 138.556L155.765 138.556C155.813 136.312 155.762 134.071 155.633 131.85C155.502 129.628 155.28 127.419 154.936 125.237C154.59 123.056 154.132 120.894 153.457 118.805C153.292 118.27 153.115 117.793 152.905 117.304C152.686 116.824 152.456 116.347 152.181 115.891C151.647 114.972 151.005 114.108 150.303 113.29C148.883 111.659 147.181 110.256 145.373 108.999C143.564 107.737 141.619 106.656 139.628 105.661C138.632 105.164 137.616 104.701 136.59 104.261C135.564 103.821 134.528 103.398 133.48 103.004C131.385 102.218 129.254 101.497 127.096 100.896H127.096L127.05 100.887L127.01 100.852L125.021 99.118L123.016 97.4046C121.669 96.2745 120.31 95.1592 118.932 94.0681C117.563 92.9663 116.16 91.9091 114.751 90.8619C113.332 89.8285 111.895 88.8197 110.432 87.853C107.506 85.9246 104.479 84.1374 101.291 82.7118C100.493 82.3586 99.6866 82.028 98.8704 81.7253C98.0526 81.4274 97.2258 81.1572 96.389 80.9251C95.5517 80.6941 94.7077 80.4952 93.8512 80.3313L93.206 80.2105L92.8807 80.1506L92.7184 80.121L92.571 80.0976C92.1627 80.0416 91.7227 80.0126 91.2898 79.9856C89.5457 79.8887 87.7849 79.8548 86.0277 79.824C84.2693 79.7958 82.5098 79.7801 80.7501 79.7701L70.1893 79.7469L49.0632 79.7958L49.0576 79.4284Z" fill="#321760"/>
<path d="M58.5026 82.9865C59.744 85.9502 60.9258 88.9353 62.1081 91.9205L62.9841 94.1632L63.4221 95.2846L63.6411 95.8452L63.7506 96.1256L63.8608 96.3804C64.4359 97.7322 65.4633 98.8722 66.7284 99.5852C67.3625 99.9381 68.0497 100.19 68.7575 100.329C68.9356 100.357 69.1114 100.4 69.2919 100.41C69.4714 100.426 69.6501 100.451 69.8309 100.448C70.1723 100.462 70.6026 100.444 70.9964 100.438C72.6009 100.411 74.2053 100.369 75.81 100.354C79.0192 100.319 82.2282 100.26 85.4377 100.25C88.6472 100.234 91.8564 100.198 95.0661 100.206L99.8805 100.204L104.695 100.227C111.115 100.266 117.534 100.34 123.955 100.532L123.848 100.864L122.097 99.6431L120.355 98.4112L116.873 95.9436C114.557 94.2915 112.252 92.6251 109.946 90.9587C107.649 89.2815 105.344 87.6147 103.056 85.9246L102.196 85.2926C102.05 85.1833 101.916 85.0905 101.78 84.9938C101.639 84.9034 101.501 84.8096 101.356 84.7271C100.782 84.3854 100.164 84.1185 99.5248 83.9283C98.8855 83.7368 98.223 83.6232 97.5562 83.5906C97.2318 83.5771 96.8693 83.5808 96.5139 83.5795L95.4473 83.5776C92.6028 83.5745 89.7583 83.5684 86.9138 83.5499L82.6471 83.5258L78.3805 83.4827C75.536 83.4503 72.6915 83.433 69.8471 83.3884C67.0026 83.3375 64.1581 83.3038 61.3136 83.233V82.8655C64.1581 82.7947 67.0026 82.7609 69.8471 82.7102C72.6915 82.6655 75.536 82.6481 78.3805 82.6158L82.6471 82.5726L86.9138 82.5487C89.7583 82.5301 92.6028 82.5241 95.4473 82.5208L96.5139 82.519C96.8696 82.5195 97.2185 82.5132 97.6047 82.5276C98.3583 82.5627 99.1089 82.6853 99.8315 82.9041C100.554 83.1223 101.251 83.4274 101.897 83.8161C102.061 83.9103 102.217 84.0163 102.375 84.1196C102.528 84.2287 102.685 84.3394 102.823 84.4439L103.68 85.0797C105.967 86.7705 108.238 88.4845 110.516 90.1882C112.785 91.9026 115.055 93.617 117.315 95.3458L120.696 97.9495L122.385 99.2533L124.066 100.568L124.459 100.876L123.959 100.9C117.542 101.21 111.125 101.402 104.707 101.559L99.8938 101.67L95.0803 101.757C91.8713 101.824 88.662 101.847 85.4528 101.89C82.2437 101.939 79.0341 101.939 75.8248 101.963C74.2201 101.978 72.6152 101.966 71.0104 101.967C70.6021 101.964 70.2297 101.976 69.7693 101.951C69.5481 101.949 69.3289 101.916 69.1095 101.891C68.8891 101.872 68.674 101.819 68.4571 101.778C67.5936 101.594 66.7626 101.264 66.0112 100.806C64.5077 99.8916 63.3258 98.4783 62.6988 96.8534L62.5827 96.5505L62.4864 96.2654L62.2937 95.6952L61.9084 94.5546L61.1378 92.2735C60.1247 89.2269 59.1112 86.1803 58.1572 83.1121L58.5026 82.9865Z" fill="#321760"/>
<path d="M61.9336 127.252C62.1782 127.028 62.427 126.837 62.6907 126.653C62.9525 126.469 63.2264 126.302 63.5104 126.151C64.0755 125.845 64.6823 125.605 65.3167 125.446C65.9513 125.29 66.6162 125.224 67.2812 125.263C67.9456 125.306 68.6062 125.46 69.2252 125.711C69.8453 125.961 70.4231 126.303 70.9478 126.705C71.475 127.106 71.9365 127.573 72.3754 128.055L72.6869 128.43L72.8423 128.619L72.9896 128.825C73.1958 129.095 73.3546 129.388 73.5214 129.676C73.8326 130.261 74.0769 130.866 74.2935 131.477C74.7062 132.702 74.9822 133.953 75.1683 135.208C75.3566 136.462 75.4898 137.72 75.551 138.978C75.6117 140.237 75.6085 141.496 75.5275 142.75C75.4475 144.004 75.3193 145.253 75.0617 146.492L75.0616 146.493L74.9071 146.297L90.6153 148.772L90.586 148.77C102.996 148.722 115.406 148.658 127.815 148.562C134.02 148.512 140.224 148.457 146.428 148.363L151.079 148.275C151.854 148.256 152.629 148.235 153.402 148.206C153.789 148.191 154.176 148.175 154.558 148.148C154.653 148.141 154.748 148.133 154.838 148.122L154.901 148.113L154.925 148.108C154.928 148.108 154.943 148.1 154.91 148.116C154.911 148.049 154.792 148.319 154.831 148.244C154.833 148.229 154.837 148.214 154.841 148.2C154.849 148.173 154.862 148.135 154.872 148.121L154.929 148.036C155.074 147.864 155.215 147.741 155.356 147.604C155.918 147.075 156.449 146.526 156.876 145.899C157.3 145.276 157.633 144.585 157.771 143.85C157.918 143.118 157.881 142.353 157.679 141.631C157.481 140.906 157.143 140.218 156.723 139.585L157.03 139.382C157.466 140.04 157.823 140.762 158.033 141.535C158.249 142.304 158.291 143.133 158.131 143.921C157.982 144.715 157.625 145.452 157.179 146.107C156.731 146.765 156.176 147.338 155.609 147.87C155.472 148.002 155.322 148.139 155.218 148.264C155.21 148.276 155.202 148.288 155.193 148.299C155.189 148.305 155.199 148.292 155.198 148.288C155.198 148.284 155.197 148.281 155.196 148.278C155.232 148.215 155.106 148.496 155.096 148.433C155.042 148.461 155.032 148.458 155.012 148.465L154.965 148.474L154.884 148.486C154.781 148.499 154.683 148.507 154.585 148.514C154.193 148.543 153.805 148.558 153.416 148.573C152.64 148.603 151.864 148.623 151.088 148.642L146.434 148.73C140.228 148.824 134.023 148.879 127.818 148.929C115.408 149.026 102.998 149.09 90.5874 149.137H90.5728L90.5582 149.135L74.8499 146.66L74.6826 146.634L74.6954 146.464L74.6955 146.463C74.6135 145.219 74.5609 143.978 74.5033 142.743C74.4374 141.507 74.3851 140.276 74.3034 139.049C74.1599 136.6 73.8745 134.142 73.1752 131.846C72.9886 131.28 72.7782 130.723 72.5164 130.202C72.3777 129.949 72.2416 129.691 72.0793 129.459L71.9625 129.28L71.8272 129.103L71.5557 128.749C71.1742 128.297 70.7744 127.859 70.3226 127.488C69.8708 127.119 69.3868 126.794 68.8638 126.55C67.8201 126.057 66.6256 125.916 65.4597 126.12C64.8787 126.228 64.3 126.396 63.7484 126.641C63.1994 126.881 62.6522 127.176 62.1753 127.529L61.9336 127.252Z" fill="#321760"/>
<path d="M60.986 143.02L29.2369 136.214C28.0142 135.952 27.1801 134.857 27.2535 133.611C27.4629 130.059 27.4555 121.487 22.8787 118.61C21.7054 117.873 20.0681 118.344 19.0431 119.093L18.8262 118.796C19.6916 118.164 21.5598 117.347 23.0743 118.299C27.8172 121.28 27.8334 130.016 27.6203 133.633C27.5577 134.696 28.2698 135.631 29.3139 135.855L61.063 142.661L60.986 143.02Z" fill="#321760"/>
<path d="M72.0401 140.389C72.0311 142.107 71.8021 143.837 71.2174 145.479C70.9217 146.297 70.532 147.094 69.9754 147.802C69.6957 148.153 69.363 148.477 68.967 148.733C68.7649 148.857 68.5489 148.963 68.3169 149.037C68.0835 149.106 67.8386 149.143 67.5931 149.142C67.3477 149.135 67.1057 149.089 66.8776 149.012C66.6507 148.931 66.4419 148.818 66.2479 148.69C65.868 148.423 65.5545 148.093 65.2936 147.738C64.7724 147.023 64.4297 146.223 64.1602 145.413C63.889 144.601 63.7197 143.764 63.5973 142.925C63.4788 142.084 63.4247 141.236 63.4268 140.389C63.4247 139.542 63.4788 138.694 63.5973 137.853C63.7197 137.013 63.889 136.176 64.1602 135.364C64.4297 134.554 64.7724 133.754 65.2936 133.04C65.5544 132.684 65.868 132.354 66.2479 132.088C66.4419 131.959 66.6507 131.846 66.8776 131.765C67.1058 131.689 67.3477 131.643 67.5931 131.635C67.8386 131.634 68.0835 131.671 68.3169 131.741C68.549 131.814 68.7649 131.921 68.967 132.044C69.3629 132.3 69.6957 132.624 69.9754 132.976C70.532 133.684 70.9217 134.481 71.2174 135.299C71.8021 136.941 72.0311 138.671 72.0401 140.389ZM71.1114 140.389C71.1135 139.571 71.0614 138.754 70.9477 137.947C70.8305 137.142 70.6688 136.341 70.4132 135.575C70.1607 134.811 69.8378 134.066 69.3787 133.434C69.15 133.12 68.8823 132.843 68.5826 132.629C68.4304 132.529 68.2717 132.442 68.1059 132.381C67.9392 132.325 67.7676 132.291 67.5932 132.283C67.4188 132.282 67.2442 132.307 67.0723 132.356C66.9012 132.41 66.7355 132.49 66.5751 132.586C66.2592 132.789 65.9724 133.06 65.7249 133.371C65.2304 133.995 64.8603 134.738 64.5818 135.509C64.304 136.283 64.1113 137.092 63.9821 137.91C63.8595 138.729 63.7994 139.559 63.7943 140.389C63.7993 141.219 63.8595 142.048 63.9821 142.868C64.1113 143.686 64.3041 144.494 64.5818 145.268C64.8603 146.039 65.2304 146.782 65.7249 147.407C65.9724 147.717 66.2592 147.989 66.5751 148.192C66.7355 148.288 66.9012 148.368 67.0723 148.421C67.2442 148.47 67.4188 148.495 67.5932 148.494C67.7676 148.486 67.9392 148.453 68.1059 148.396C68.2717 148.336 68.4304 148.249 68.5826 148.148C68.8824 147.935 69.15 147.658 69.3787 147.343C69.8378 146.712 70.1607 145.966 70.4132 145.202C70.6688 144.436 70.8305 143.636 70.9477 142.83C71.0614 142.023 71.1135 141.206 71.1114 140.389Z" fill="#321760"/>
<path d="M73.1079 140.051C73.0939 141.317 73.0046 142.581 72.8286 143.835C72.649 145.088 72.3864 146.333 71.9803 147.54C71.5739 148.744 71.0435 149.923 70.2675 150.965C69.8782 151.482 69.4163 151.959 68.8658 152.338C68.585 152.52 68.285 152.679 67.9619 152.791C67.6369 152.898 67.2948 152.959 66.9488 152.968C66.6027 152.966 66.2584 152.912 65.9293 152.811C65.602 152.704 65.2965 152.55 65.0092 152.372C64.4462 152.001 63.9685 151.529 63.5661 151.014C62.7648 149.975 62.2098 148.795 61.7792 147.588C60.927 145.163 60.59 142.598 60.5781 140.051C60.5795 139.414 60.5974 138.776 60.6395 138.139C60.6847 137.503 60.7501 136.867 60.8389 136.234C61.0343 134.971 61.3145 133.717 61.7392 132.501C62.1652 131.29 62.7121 130.1 63.5179 129.052C63.9228 128.532 64.4042 128.055 64.9745 127.678C65.2655 127.497 65.5759 127.34 65.909 127.231C66.2441 127.128 66.5954 127.071 66.9488 127.069C67.302 127.077 67.6513 127.139 67.9828 127.248C68.3124 127.362 68.6177 127.523 68.9032 127.708C69.4616 128.093 69.9285 128.575 70.3189 129.099C71.0975 130.151 71.6255 131.337 72.029 132.546C72.8251 134.974 73.1271 137.523 73.1079 140.051ZM72.7227 140.051C72.6926 137.56 72.3454 135.057 71.523 132.72C71.1053 131.559 70.5656 130.434 69.8225 129.48C69.4513 129.006 69.0185 128.587 68.5349 128.269C68.2893 128.118 68.0337 127.989 67.7669 127.902C67.4991 127.821 67.2244 127.778 66.9487 127.776C66.6729 127.784 66.4003 127.833 66.1359 127.919C65.8728 128.011 65.6221 128.144 65.3821 128.299C64.9103 128.625 64.4922 129.049 64.1353 129.527C63.4195 130.485 62.8987 131.606 62.5035 132.764C62.1058 133.925 61.8436 135.135 61.6621 136.355C61.5725 136.966 61.5052 137.581 61.4574 138.197C61.4128 138.814 61.3914 139.433 61.3861 140.052C61.3874 140.67 61.4048 141.289 61.4454 141.907C61.4892 142.524 61.5525 143.139 61.6382 143.751C61.8185 144.973 62.0702 146.187 62.4634 147.353C62.8543 148.515 63.3669 149.646 64.0873 150.614C64.4464 151.096 64.8683 151.525 65.3475 151.857C65.5913 152.015 65.8468 152.15 66.1158 152.245C66.3861 152.333 66.6657 152.384 66.9488 152.392C67.2317 152.391 67.5136 152.347 67.788 152.264C68.0611 152.176 68.3222 152.045 68.5724 151.891C69.064 151.567 69.5017 151.143 69.8739 150.663C70.6197 149.698 71.157 148.566 71.572 147.4C72.3902 145.056 72.7505 142.545 72.7227 140.051Z" fill="#321760"/>
<path d="M25.6176 130.499C25.6278 131.229 25.56 131.959 25.4471 132.682C25.3278 133.404 25.1604 134.12 24.9102 134.814C24.6597 135.506 24.338 136.184 23.8706 136.785C23.6363 137.084 23.3571 137.359 23.0247 137.577C22.8549 137.682 22.6735 137.773 22.4783 137.836C22.282 137.896 22.0758 137.928 21.8687 137.929C21.6615 137.924 21.457 137.886 21.2636 137.823C21.0712 137.755 20.8939 137.661 20.7284 137.553C20.4044 137.33 20.1353 137.052 19.9107 136.751C19.4631 136.147 19.1614 135.469 18.9305 134.779C18.4749 133.393 18.2899 131.942 18.294 130.499C18.3057 129.057 18.475 127.605 18.9411 126.223C19.1787 125.536 19.4803 124.86 19.9251 124.257C20.1485 123.958 20.4164 123.681 20.7381 123.459C20.9024 123.352 21.0786 123.259 21.2693 123.192C21.4611 123.129 21.6637 123.093 21.8687 123.088C22.0738 123.088 22.2777 123.121 22.4722 123.18C22.6656 123.243 22.8455 123.333 23.014 123.437C23.3444 123.653 23.6224 123.927 23.8559 124.224C24.3219 124.822 24.6435 125.498 24.8939 126.189C25.3865 127.577 25.594 129.04 25.6176 130.499ZM24.8945 130.499C24.9119 129.108 24.7509 127.702 24.3246 126.385C24.1088 125.731 23.8242 125.095 23.4264 124.554C23.2276 124.285 22.9948 124.047 22.7334 123.864C22.6005 123.777 22.4619 123.703 22.3167 123.651C22.171 123.603 22.0207 123.576 21.8686 123.571C21.7166 123.572 21.565 123.595 21.4164 123.639C21.2687 123.687 21.1263 123.758 20.9891 123.841C20.7192 124.019 20.4762 124.254 20.2674 124.52C19.8483 125.056 19.5437 125.693 19.315 126.351C18.8624 127.675 18.663 129.091 18.6686 130.499C18.6789 131.905 18.8624 133.323 19.3257 134.643C19.561 135.298 19.8655 135.932 20.2817 136.466C20.4896 136.732 20.7312 136.965 20.9988 137.141C21.1347 137.225 21.276 137.294 21.4222 137.341C21.569 137.385 21.7186 137.407 21.8686 137.408C22.0186 137.403 22.1667 137.375 22.3106 137.328C22.454 137.277 22.5911 137.203 22.7229 137.118C22.982 136.936 23.2135 136.7 23.4116 136.432C23.8081 135.894 24.0926 135.26 24.3083 134.607C24.525 133.952 24.6655 133.269 24.7603 132.581C24.8525 131.891 24.8818 131.195 24.8945 130.499Z" fill="#321760"/>
<path d="M21.3201 141.135C18.4205 141.135 16.0615 136.234 16.0615 130.21C16.0615 124.186 18.4205 119.285 21.3201 119.285C24.2197 119.285 26.5786 124.186 26.5786 130.21C26.5786 136.234 24.2196 141.135 21.3201 141.135ZM21.3201 119.653C18.6232 119.653 16.429 124.389 16.429 130.21C16.429 136.031 18.6232 140.767 21.3201 140.767C24.0171 140.767 26.2112 136.031 26.2112 130.21C26.2112 124.389 24.0171 119.653 21.3201 119.653Z" fill="#321760"/>
<path d="M71.9168 153.26C71.2177 153.26 70.4548 153.217 69.6211 153.121L69.6631 152.757C74.2753 153.286 76.6513 152.176 77.833 151.15C79.1029 150.048 79.302 148.804 79.3039 148.792L79.6675 148.845C79.6594 148.901 79.4548 150.217 78.0954 151.409C77.0756 152.303 75.2128 153.26 71.9168 153.26Z" fill="#321760"/>
<path d="M24.3718 141.601C23.7875 141.601 23.1582 141.57 22.4795 141.503L22.5159 141.137C30.0829 141.89 31.3312 137.903 31.3429 137.863L31.6958 137.966C31.6489 138.127 30.5629 141.601 24.3718 141.601Z" fill="#321760"/>
<path d="M15.203 129.396C15.0976 129.37 12.623 128.692 12.8055 123.621C12.8228 123.141 12.8334 122.593 12.8456 121.959C12.9551 116.277 13.1831 104.453 19.9643 96.1081C22.9013 92.4938 26.785 89.9129 30.6451 87.1309C37.0457 82.518 43.3757 79.7226 49.0559 79.4282L49.0614 79.7957C43.6958 79.9735 37.2064 83.0414 30.9286 87.6643C27.0526 90.5186 23.1947 92.7152 20.2493 96.3399C13.548 104.587 13.3217 116.325 13.2129 121.966C13.2007 122.602 13.1901 123.151 13.1727 123.634C13.0017 128.383 15.2701 129.034 15.293 129.04L15.203 129.396Z" fill="#321760"/>
<path d="M62.8522 107.847C62.3166 106.275 61.8271 104.703 61.3018 103.164C61.0377 102.395 60.7665 101.634 60.4678 100.898C60.1709 100.165 59.8426 99.446 59.4595 98.8418C59.2698 98.5471 59.0532 98.2826 58.8657 98.1466C58.6463 97.9813 58.3369 97.8332 58.0016 97.7173C57.3262 97.4811 56.5537 97.3522 55.7781 97.2643C54.9988 97.179 54.2022 97.1469 53.4053 97.1523C52.6085 97.1543 51.8079 97.192 51.0223 97.2764C50.6303 97.3191 50.2404 97.3731 49.8698 97.4473C49.6855 97.4843 49.5037 97.5263 49.3435 97.5751C49.262 97.5989 49.1896 97.6253 49.1289 97.6496L49.088 97.667L49.0589 97.6811C49.0521 97.6848 49.0507 97.6863 49.0455 97.6879C49.0489 97.686 49.0507 97.6841 49.0598 97.6751C49.0789 97.659 49.083 97.6533 49.1198 97.6082C49.1597 97.5463 49.1341 97.5854 49.1319 97.5908C49.1197 97.6083 49.1028 97.6441 49.0868 97.6746C49.0542 97.7411 49.0212 97.8191 48.9895 97.8993C48.9271 98.0619 48.8707 98.2369 48.8184 98.4139C48.7164 98.7699 48.6405 99.1399 48.596 99.5104C48.5034 100.251 48.5332 101.002 48.7351 101.672C48.9354 102.343 49.3239 102.916 49.8884 103.322C49.9587 103.373 50.029 103.425 50.1069 103.467C50.1833 103.512 50.2547 103.56 50.3436 103.597C50.5142 103.675 50.6812 103.759 50.8553 103.834L51.3998 104.029C51.5843 104.089 51.7766 104.134 51.9651 104.188C52.7283 104.385 53.5237 104.515 54.3286 104.597C55.9397 104.751 57.5887 104.768 59.2223 104.676L59.2721 105.04C57.6273 105.34 55.964 105.486 54.2773 105.466C53.4343 105.446 52.586 105.379 51.7351 105.229C50.8834 105.068 50.0381 104.835 49.2098 104.337C48.8045 104.083 48.4341 103.755 48.1328 103.371C47.828 102.989 47.6032 102.551 47.445 102.103C47.1291 101.201 47.0621 100.266 47.1311 99.3675C47.165 98.9162 47.2349 98.4711 47.3402 98.0279C47.3934 97.8059 47.456 97.5851 47.5363 97.3604C47.5773 97.2475 47.6212 97.1336 47.6759 97.0132C47.7054 96.9511 47.7312 96.8927 47.7718 96.8215C47.7956 96.7823 47.7918 96.7742 47.8654 96.6729C47.9307 96.5843 47.9755 96.546 48.0311 96.4933C48.0797 96.4513 48.1233 96.419 48.1684 96.387C48.2073 96.3617 48.2491 96.3348 48.287 96.3128L48.3948 96.2547L48.4947 96.2075C48.6236 96.1505 48.7448 96.1046 48.8604 96.0669C49.0932 95.9893 49.313 95.9334 49.532 95.8828C49.9686 95.7831 50.3958 95.7128 50.8231 95.6542C52.5288 95.4291 54.2272 95.3796 55.9546 95.5388C56.819 95.6232 57.688 95.7627 58.5764 96.0629C59.0194 96.2173 59.4724 96.4123 59.9177 96.7394C60.0282 96.8219 60.1393 96.9157 60.2432 97.017C60.3325 97.1138 60.4272 97.2117 60.5089 97.3104C60.5849 97.4091 60.6655 97.5084 60.736 97.608L60.9355 97.9072C61.4229 98.7083 61.7392 99.5198 62.0106 100.335C62.1481 100.742 62.2581 101.153 62.3704 101.562C62.4722 101.973 62.5727 102.383 62.6552 102.796C62.9889 104.446 63.1953 106.106 63.215 107.788L62.8522 107.847Z" fill="#321760"/>
<path d="M81.5295 115.987C81.6358 116.056 81.7562 116.119 81.9922 116.065C82.1534 116.027 82.2632 115.884 82.276 115.866C82.31 115.819 82.328 115.776 82.3315 115.768C82.3397 115.75 82.3463 115.727 82.3474 115.725L82.3553 115.696C82.3563 115.688 82.3564 115.693 82.3564 115.693L82.3562 115.753C82.3572 115.809 82.3611 115.875 82.367 115.943C82.3788 116.08 82.3974 116.223 82.4197 116.367C82.4644 116.655 82.5243 116.947 82.5931 117.236C82.7321 117.816 82.9063 118.391 83.1156 118.951C83.533 120.074 84.0749 121.146 84.7212 122.14C86.009 124.128 87.7355 125.811 89.8197 126.928C90.8604 127.484 91.9758 127.912 93.1335 128.209C93.7121 128.359 94.3022 128.471 94.8971 128.562C95.1924 128.608 95.4997 128.641 95.8034 128.679C96.1078 128.718 96.4123 128.753 96.7167 128.777C97.9341 128.891 99.1569 128.942 100.359 128.854C100.96 128.814 101.554 128.727 102.125 128.584C102.695 128.441 103.248 128.235 103.714 127.922C104.179 127.61 104.558 127.189 104.744 126.669C104.842 126.413 104.9 126.137 104.914 125.853C104.932 125.57 104.916 125.279 104.867 124.989C104.777 124.409 104.567 123.839 104.308 123.297C104.274 123.23 104.243 123.161 104.207 123.095C104.173 123.034 104.131 122.948 104.108 122.919C104.051 122.836 103.947 122.751 103.832 122.677C103.598 122.529 103.317 122.414 103.033 122.313C102.462 122.11 101.859 121.966 101.257 121.828C100.653 121.691 100.044 121.568 99.4346 121.447C98.2156 121.201 96.9883 120.987 95.7651 120.747C93.3173 120.278 90.8653 119.787 88.4532 119.08C86.0484 118.37 83.6627 117.438 81.5295 115.987ZM82.1727 115.086C84.1086 116.523 86.3567 117.571 88.6705 118.418C90.9918 119.262 93.4034 119.883 95.8378 120.379C97.0566 120.623 98.2791 120.852 99.5062 121.069C100.732 121.297 101.96 121.508 103.179 121.882C103.483 121.981 103.788 122.089 104.087 122.264C104.234 122.354 104.386 122.458 104.514 122.627C104.584 122.723 104.608 122.779 104.652 122.852C104.693 122.922 104.729 122.993 104.768 123.064C105.065 123.633 105.304 124.239 105.439 124.884C105.508 125.205 105.543 125.539 105.537 125.877C105.536 126.214 105.481 126.559 105.372 126.888C105.167 127.559 104.697 128.13 104.153 128.537C103.605 128.949 102.983 129.213 102.359 129.406C101.732 129.6 101.094 129.726 100.457 129.802C99.1807 129.963 97.9053 129.974 96.6404 129.922C96.3232 129.914 96.0079 129.894 95.6929 129.87C95.3772 129.848 95.0641 129.83 94.7421 129.797C94.1024 129.731 93.4642 129.631 92.8315 129.494C91.5663 129.224 90.3201 128.804 89.1527 128.209C87.9853 127.617 86.887 126.869 85.9297 125.968C84.9674 125.073 84.1464 124.033 83.4747 122.916C82.8056 121.796 82.2858 120.599 81.8998 119.366C81.708 118.748 81.5455 118.122 81.4251 117.484C81.3651 117.165 81.3144 116.844 81.279 116.515C81.2615 116.35 81.2475 116.184 81.2407 116.01C81.2375 115.922 81.2359 115.833 81.239 115.734C81.2412 115.682 81.2436 115.631 81.2525 115.561L81.2621 115.5L81.2694 115.465L81.2827 115.414C81.2859 115.402 81.2962 115.371 81.3081 115.343C81.3145 115.326 81.3373 115.275 81.377 115.219C81.394 115.193 81.5126 115.043 81.6824 115.002C81.9284 114.945 82.0575 115.013 82.1727 115.086Z" fill="#321760"/>
<path d="M152.316 115.521C152.318 115.552 152.314 115.601 152.307 115.618C152.302 115.637 152.295 115.66 152.289 115.676C152.276 115.704 152.262 115.735 152.249 115.757C152.223 115.806 152.196 115.847 152.168 115.888C152.113 115.969 152.057 116.043 151.999 116.116C151.883 116.262 151.763 116.4 151.642 116.537C151.397 116.808 151.143 117.067 150.885 117.322C150.368 117.832 149.834 118.322 149.286 118.796C148.182 119.737 147.022 120.616 145.766 121.375C145.136 121.75 144.482 122.101 143.767 122.353C143.409 122.478 143.035 122.579 142.637 122.626C142.324 122.664 142.047 122.756 141.8 122.918C141.308 123.239 140.992 123.817 140.866 124.44C140.806 124.755 140.791 125.081 140.814 125.405C140.835 125.73 140.899 126.053 141.003 126.362C141.205 126.982 141.557 127.551 142.029 127.995C142.265 128.215 142.526 128.412 142.815 128.562C143.097 128.724 143.408 128.833 143.724 128.925C144.363 129.092 145.044 129.128 145.726 129.072C146.407 129.017 147.08 128.862 147.735 128.643C149.044 128.189 150.263 127.453 151.364 126.572C152.474 125.703 153.487 124.681 154.371 123.581L154.672 123.792C154.259 124.403 153.8 124.963 153.31 125.504C152.821 126.044 152.302 126.558 151.747 127.036C150.633 127.984 149.381 128.8 147.984 129.334C147.286 129.598 146.548 129.774 145.797 129.848C145.049 129.92 144.273 129.901 143.517 129.708C143.143 129.603 142.771 129.472 142.427 129.28C142.077 129.099 141.756 128.862 141.467 128.594C140.887 128.055 140.456 127.364 140.219 126.616C140.096 126.243 140.021 125.855 139.997 125.462C139.971 125.07 139.991 124.672 140.069 124.28C140.15 123.889 140.289 123.503 140.503 123.149C140.716 122.797 141.01 122.479 141.37 122.251C141.727 122.02 142.153 121.892 142.555 121.852C142.871 121.82 143.198 121.739 143.519 121.631C144.164 121.413 144.798 121.107 145.41 120.762C146.639 120.069 147.798 119.231 148.915 118.347C149.475 117.905 150.023 117.447 150.552 116.97C150.817 116.732 151.076 116.488 151.327 116.238C151.453 116.114 151.576 115.987 151.692 115.858C151.75 115.794 151.807 115.728 151.857 115.663C151.882 115.631 151.906 115.598 151.924 115.569C151.935 115.553 151.94 115.542 151.946 115.531C151.949 115.526 151.948 115.527 151.95 115.525C151.952 115.521 151.945 115.546 151.95 115.555L152.316 115.521Z" fill="#321760"/>
<path d="M46.9816 103.002L24.6628 94.816L24.4082 94.7226L24.5888 94.5214L24.589 94.5211C25.2505 93.7657 25.9432 93.0523 26.6585 92.3556C27.3732 91.6599 28.1059 90.9822 28.8612 90.3294C30.3771 89.0312 31.9635 87.8084 33.6472 86.7226C35.3273 85.6333 37.1126 84.6927 38.9926 83.9651C39.9344 83.6062 40.904 83.3135 41.8932 83.0962C42.142 83.0479 42.3882 82.9874 42.6392 82.9495L43.3924 82.8376C43.8885 82.7793 44.3829 82.7275 44.8791 82.6781C46.8623 82.4828 48.8537 82.342 50.8542 82.3207C51.3434 82.3131 51.8808 82.3195 52.3981 82.4055C52.9158 82.4943 53.4201 82.6524 53.8989 82.8658C54.3795 83.0762 54.8267 83.3597 55.2311 83.6917C55.6349 84.024 56.0038 84.401 56.3105 84.8251C56.6168 85.2489 56.8699 85.7096 57.0653 86.1934L57.1976 86.5616C57.24 86.6833 57.2734 86.7993 57.3118 86.9184L57.5349 87.6289L58.4254 90.4713L60.1775 96.1655L59.8278 96.2782L57.9244 90.6328L56.987 87.8055L56.7533 87.0985C56.7138 86.982 56.6764 86.8599 56.6353 86.7479L56.5109 86.4171C56.3275 85.9831 56.0934 85.5719 55.8128 85.1949C55.2429 84.4483 54.488 83.8421 53.6289 83.4676C53.2005 83.2795 52.7502 83.1405 52.2883 83.0634C51.824 82.99 51.3651 82.9851 50.8622 82.995C48.8911 83.0255 46.9174 83.1747 44.9501 83.3782C44.4585 83.4293 43.9657 83.4841 43.476 83.5433L42.7555 83.6464C42.5154 83.681 42.2785 83.7383 42.0397 83.7831C41.0888 83.9865 40.1509 84.2634 39.2352 84.6065C38.3209 84.9542 37.4263 85.3571 36.5516 85.8024C35.676 86.2465 34.8299 86.7491 33.9922 87.2654C32.3197 88.3043 30.7326 89.4851 29.2115 90.744C27.6887 91.9993 26.2255 93.3424 24.8636 94.7653L24.8633 94.7655L24.7893 94.471L47.1082 102.657L46.9816 103.002Z" fill="#321760"/>
<path d="M134.149 152.724C132.772 152.724 131.575 152.562 130.585 152.341C127.469 151.648 125.721 150.286 125.648 150.229L125.876 149.94C125.893 149.954 127.644 151.314 130.685 151.987C133.49 152.608 138.002 152.753 143.562 149.921L143.729 150.248C140.018 152.138 136.76 152.724 134.149 152.724Z" fill="#321760"/>
<path opacity="0.3" d="M96.6752 111.755C74.4864 94.7482 49.426 105.893 39.6325 90.2604C38.2414 88.0399 37.3985 85.6618 36.9411 83.2612C35.5219 84.0312 34.1408 84.9149 32.8088 85.9118L22.9473 93.2807C22.9473 93.2807 20.5925 94.978 18.1923 99.0423C18.1921 99.0426 18.192 99.0428 18.1918 99.0431C18.1906 99.043 18.1893 99.0428 18.1882 99.0427C15.457 103.663 12.6698 111.346 13.2202 123.064L12.9899 123.624C12.8133 124.594 12.9307 125.593 13.3008 126.454C13.4407 126.779 13.6157 127.085 13.8262 127.361L15.2458 129.22C15.2458 129.22 15.2458 129.22 15.2458 129.22L15.2461 129.22C15.2467 129.212 15.2475 129.204 15.2482 129.195C15.2482 129.202 15.2481 129.209 15.2482 129.215H15.7349C15.7222 129.538 15.7145 129.865 15.7145 130.197C15.7145 136.336 17.9275 141.423 20.6093 141.551C20.6333 141.552 20.6569 141.55 20.6808 141.55C26.1888 142.286 27.974 141.463 28.1207 141.436C28.1207 141.436 28.145 141.433 28.145 141.433C29.5933 141.11 30.8387 139.185 31.5378 136.417L59.3756 142.653L61.2753 143.079C61.9662 148.068 64.0176 151.877 66.4798 152.496C66.4798 152.497 66.4798 152.497 66.4798 152.497C66.4854 152.498 66.4906 152.499 66.4963 152.5C66.6816 152.545 66.8689 152.575 67.0584 152.583C67.0823 152.584 67.1058 152.582 67.1296 152.583C73.9174 153.436 76.1011 152.481 76.282 152.45C76.282 152.45 76.2763 152.446 76.2763 152.446C77.8517 152.115 79.2093 150.335 80.0846 147.714C80.0928 147.719 80.1013 147.724 80.1096 147.729C80.2437 147.81 80.4163 147.897 80.6429 147.986C81.5057 148.338 83.0305 148.709 85.6824 148.796C87.9982 148.94 91.238 148.98 95.7979 148.816H125.017C126.105 150.932 127.517 152.332 129.082 152.653C129.082 152.654 129.082 152.656 129.082 152.657C129.097 152.658 129.11 152.659 129.125 152.66C129.339 152.701 129.555 152.725 129.774 152.725C129.8 152.725 129.825 152.722 129.851 152.721C137.994 153.361 140.678 152.127 140.902 152.08C140.902 152.08 140.869 152.076 140.869 152.076C141.766 151.858 142.606 151.283 143.359 150.424C135.619 149.513 127.97 147.115 121.201 142.343C107.414 132.624 110.993 122.729 96.6752 111.755ZM20.9747 119.671L21.0225 119.525C21.2549 119.542 21.4839 119.585 21.7084 119.656C21.4406 119.66 21.1944 119.665 20.9747 119.671Z" fill="url(#paint39_linear_1988_63960)"/>
<path opacity="0.95" d="M90.3197 70.8409C90.2156 70.8409 90.1109 70.8042 90.027 70.7294C89.8457 70.5677 89.8297 70.2895 89.9915 70.1082L108.361 49.5065C108.523 49.3252 108.801 49.3093 108.982 49.4709C109.164 49.6326 109.18 49.9108 109.018 50.0921L90.6482 70.6938C90.5613 70.7913 90.4408 70.8409 90.3197 70.8409Z" fill="url(#paint40_linear_1988_63960)"/>
<path d="M66.709 70.8435C66.5383 70.8435 66.3759 70.7434 66.3044 70.5767L58.0913 51.407C57.9956 51.1836 58.0992 50.925 58.3225 50.8294C58.5456 50.7331 58.8043 50.8371 58.9002 51.0603L67.1132 70.2299C67.2089 70.4534 67.1054 70.712 66.8821 70.8078C66.8255 70.832 66.7668 70.8435 66.709 70.8435Z" fill="url(#paint41_linear_1988_63960)"/>
<path d="M34.4375 152.539L38.9743 147.068C39.4069 146.546 39.3347 145.773 38.8131 145.34L10.2078 121.62L4.10449 128.98L32.7097 152.7C33.2314 153.133 34.0049 153.061 34.4375 152.539Z" fill="url(#paint42_linear_1988_63960)"/>
<path d="M30.9425 148.755C32.1638 149.768 33.9748 149.599 34.9876 148.378C36.0004 147.156 35.8313 145.345 34.61 144.332C33.3886 143.32 31.5775 143.489 30.5648 144.71C29.552 145.931 29.7211 147.742 30.9425 148.755Z" fill="url(#paint43_linear_1988_63960)"/>
<path d="M15.2188 101.356L20.8826 103.935C21.6693 104.294 21.9508 105.85 21.3751 106.494L8.26253 120.563C7.08447 121.902 5.10034 122.168 3.61074 121.188L2.59268 120.518C1.07474 119.519 0.752779 117.427 1.90007 116.018L13.698 101.707C14.0671 101.26 14.6908 101.116 15.2188 101.356Z" fill="#97A6B7"/>
<path d="M15.209 102.143L20.8729 104.722C21.6595 105.08 21.8736 106.098 21.2978 106.743L8.25282 121.35C7.0747 122.688 5.09064 122.955 3.60104 121.975L2.58291 121.305C1.06497 120.306 0.743013 118.214 1.89031 116.805L13.6882 102.494C14.0574 102.046 14.681 101.902 15.209 102.143Z" fill="url(#paint44_linear_1988_63960)"/>
<path d="M6.4794 121.391C8.18111 120.789 9.1473 119.133 8.63751 117.69C8.12765 116.248 6.33485 115.567 4.63314 116.169C2.93143 116.77 1.96518 118.427 2.47504 119.869C2.98483 121.311 4.77769 121.993 6.4794 121.391Z" fill="#D8DEE8"/>
<path d="M21.4507 133.157L15.1046 138.598C14.7048 138.941 14.1196 138.957 13.7012 138.637L3.91302 131.154C3.73771 131.02 3.60613 130.837 3.53481 130.628L0.649639 122.173C0.504519 121.747 0.628853 121.276 0.964987 120.978L5.0197 117.38C5.38844 117.053 5.92824 117.007 6.34733 117.266L17.0863 123.919C17.245 124.017 17.3766 124.154 17.4688 124.316L21.6946 131.759C21.9582 132.223 21.8559 132.809 21.4507 133.157Z" fill="url(#paint45_linear_1988_63960)"/>
<path d="M4.97463 129.636L8.15627 126.464C8.45249 126.169 8.908 126.103 9.27477 126.304C11.1794 127.349 16.8541 130.652 19.309 132.085C19.8823 132.419 19.9671 133.212 19.4782 133.661C18.2045 134.83 16.0287 136.826 15.0172 137.752C14.6788 138.061 14.1674 138.082 13.8044 137.802L5.064 131.05C4.61345 130.702 4.57143 130.038 4.97463 129.636Z" fill="url(#paint46_linear_1988_63960)"/>
<path d="M15.6809 102.82L9.36144 110.789C8.91216 111.355 8.80557 112.121 9.08296 112.789L12.7567 121.631C13.0559 122.351 13.756 122.823 14.5355 122.83L21.2751 122.89L26.6212 114.46C26.9416 113.955 26.9934 113.325 26.7597 112.774L22.7462 103.316C22.4407 102.596 21.7389 102.124 20.9568 102.113L17.2797 102.061C16.658 102.052 16.0673 102.332 15.6809 102.82Z" fill="#D8DEE8"/>
<path d="M16.9759 103.984L20.3412 113.101C20.4363 113.359 20.6881 113.525 20.9622 113.51L25.2273 113.282C25.6582 113.259 25.9372 112.817 25.7728 112.418L22.1349 103.585C22.0394 103.353 21.8149 103.2 21.5641 103.197L17.5728 103.14C17.1328 103.134 16.8235 103.571 16.9759 103.984Z" fill="url(#paint47_linear_1988_63960)"/>
<path d="M20.1515 115.295L25.8153 117.874C26.602 118.232 26.8836 119.788 26.3077 120.433L13.1952 134.502C12.0171 135.84 10.033 136.107 8.54343 135.126L7.5253 134.456C6.00735 133.458 5.6854 131.366 6.83269 129.956L18.6307 115.646C18.9998 115.198 19.6235 115.054 20.1515 115.295Z" fill="#97A6B7"/>
<path d="M20.1387 116.081L25.8025 118.66C26.5892 119.019 26.8032 120.037 26.2274 120.682L13.1825 135.288C12.0045 136.627 10.0203 136.893 8.53073 135.913L7.5126 135.243C5.99466 134.244 5.6727 132.152 6.81999 130.743L18.618 116.432C18.987 115.985 19.6107 115.841 20.1387 116.081Z" fill="url(#paint48_linear_1988_63960)"/>
<path d="M11.411 135.325C13.1127 134.723 14.079 133.067 13.5691 131.625C13.0593 130.182 11.2665 129.501 9.56476 130.103C7.86305 130.704 6.89686 132.361 7.40665 133.803C7.91645 135.245 9.70925 135.927 11.411 135.325Z" fill="#D8DEE8"/>
<path d="M13.6719 106.784L23.9983 115.535L30.3776 107.704L20.0511 98.9526L13.6719 106.784Z" fill="url(#paint49_linear_1988_63960)"/>
<path d="M13.6523 106.802C13.0732 107.485 14.9154 109.998 17.7669 112.415C20.6185 114.831 23.3997 116.236 23.9787 115.553C24.5579 114.87 22.7157 112.357 19.8641 109.94C17.0126 107.523 14.2315 106.118 13.6523 106.802Z" fill="url(#paint50_linear_1988_63960)"/>
<path opacity="0.6" d="M28.8811 106.958L24.1446 112.851C23.5422 113.562 22.5141 113.734 21.7153 113.254C20.9219 112.777 19.9315 112.087 18.8345 111.157C17.7376 110.228 16.8937 109.364 16.2938 108.659C15.6896 107.95 15.6904 106.908 16.2928 106.197L21.0292 100.304L28.8811 106.958Z" fill="url(#paint51_linear_1988_63960)"/>
<path d="M20.0508 98.9525C19.4716 99.6358 21.3138 102.149 24.1654 104.566C27.017 106.982 29.7981 108.387 30.3772 107.704C30.9563 107.021 29.1141 104.508 26.2625 102.091C23.411 99.6743 20.6299 98.2692 20.0508 98.9525Z" fill="url(#paint52_linear_1988_63960)"/>
<path d="M30.5258 96.3683C30.7051 96.1878 31.3554 96.7389 31.2067 96.9453L27.3411 104.441C27.1714 104.677 26.2129 104.176 25.2134 103.329C24.2139 102.482 23.5624 101.619 23.7671 101.412L30.5258 96.3683Z" fill="url(#paint53_linear_1988_63960)"/>
<path opacity="0.95" d="M31.1196 96.6107C31.0142 96.6107 30.9084 96.573 30.8242 96.4966C30.6442 96.3335 30.6305 96.0553 30.7937 95.8753L39.5131 86.2558C39.6764 86.0759 39.9546 86.062 40.1345 86.2253C40.3146 86.3883 40.3282 86.6665 40.165 86.8465L31.4457 96.466C31.3588 96.5619 31.2394 96.6107 31.1196 96.6107Z" fill="#9E66FF"/>
<path d="M148.615 90.0288C148.966 90.1619 154.321 92.2976 155.422 97.9026C155.511 98.3554 156.371 103.171 153.115 106.573C149.463 110.388 142.432 110.293 139.642 107.104C138.991 106.36 138.647 105.536 138.455 104.844L139.19 102.884C140.088 101.798 141.309 101.54 141.962 101.379C143.57 100.982 144.785 101.7 145.706 100.922C146.215 100.492 146.317 99.8725 146.407 99.3192C146.715 97.4344 145.655 96.2743 145.577 95.112C145.52 94.2432 145.216 92.3393 146.347 91.0979C147.063 90.3117 148.055 90.0976 148.615 90.0288Z" fill="url(#paint54_linear_1988_63960)"/>
<path d="M150.7 152.493C150.763 152.148 151.874 151.835 152.424 152.298C152.697 152.527 152.885 152.992 152.727 153.202C152.67 153.279 152.905 153.413 152.68 153.416C151.931 153.425 150.638 152.836 150.7 152.493Z" fill="url(#paint55_linear_1988_63960)"/>
<path d="M151.867 152.618L153.01 152.456C152.48 151.817 152.579 149.781 152.579 149.781L151.363 150.053C151.363 150.053 151.502 150.612 151.737 151.436C151.818 151.718 151.854 152.16 151.867 152.618Z" fill="url(#paint56_linear_1988_63960)"/>
<path d="M151.763 152.48C151.763 152.48 153.139 152.162 153.287 152.436C153.436 152.71 153.552 153.442 152.679 153.419C151.806 153.395 151.685 152.712 151.763 152.48Z" fill="url(#paint57_linear_1988_63960)"/>
<path d="M135.022 153.788C135.132 153.455 136.275 153.302 136.756 153.837C136.994 154.102 137.115 154.589 136.93 154.775C136.862 154.843 137.076 155.009 136.853 154.98C136.11 154.883 134.912 154.119 135.022 153.788Z" fill="url(#paint58_linear_1988_63960)"/>
<path d="M136.157 154.074H137.311C136.876 153.367 137.257 151.365 137.257 151.365L136.016 151.464C136.016 151.464 136.075 152.036 136.193 152.885C136.233 153.176 136.207 153.618 136.157 154.074Z" fill="url(#paint59_linear_1988_63960)"/>
<path d="M133.167 110.306C132.633 112.076 131.869 114.934 131.378 118.519C129.976 128.746 132.956 129.072 132.399 140.404C132.222 144.021 135.524 152.362 135.815 152.546C135.956 152.56 136.109 152.569 136.272 152.564C136.559 152.556 136.964 152.512 137.435 152.37C137.958 152.28 139.844 147.156 139.407 144.11C139.097 141.954 139.187 139.641 139.366 135.013C139.395 134.263 141.308 120.425 141.308 120.425C141.89 125.547 142.559 129.9 143.139 133.274C145.003 144.115 151.063 150.676 151.379 150.782C151.442 150.807 152.011 151.014 152.475 150.707C152.682 150.57 152.753 150.393 152.753 150.393C152.915 150.266 152.705 139.57 150.857 131.52C148.174 119.836 149.342 117.102 148.492 111.883C147.756 107.367 133.167 110.306 133.167 110.306Z" fill="url(#paint60_linear_1988_63960)"/>
<path d="M144.004 89.1178C142.223 89.0653 138.318 88.6363 135.239 90.0579C135.191 90.0799 136.296 90.7526 136.069 91.0199C135.857 91.2681 135.133 92.1368 134.476 93.3112C134.001 94.1618 133.571 95.1532 133.138 96.631C132.374 99.237 132.155 101.456 132.082 102.423C131.67 107.86 132.078 110.368 132.449 112.074C134.06 112.904 138.21 114.388 143.154 113.651C145.412 113.314 147.22 112.56 148.491 111.888C147.208 107.991 148.215 105.907 148.69 103.985C149.367 101.245 149.378 101.452 149.935 99.2755C150.855 95.6839 151.006 92.014 150.374 91.263C148.67 89.2382 145.599 89.165 144.004 89.1178Z" fill="url(#paint61_linear_1988_63960)"/>
<path d="M136.079 153.923C136.079 153.923 137.486 153.801 137.595 154.093C137.704 154.385 137.716 155.127 136.855 154.981C135.994 154.835 135.97 154.142 136.079 153.923Z" fill="url(#paint62_linear_1988_63960)"/>
<path d="M138.992 87.0675C138.44 86.1319 138.686 85.0632 138.741 84.8322C138.973 83.8653 139.059 83.7187 139.238 83.5141L139.491 83.2457C139.491 83.2457 139.507 83.234 139.524 83.2225C139.7 83.1011 140.357 82.9039 140.498 82.8967C140.952 82.8739 141.873 84.5033 142.401 87.0142C142.444 87.1038 142.487 87.1944 142.529 87.2859C142.721 87.7044 142.893 88.1178 143.048 88.5244C143.148 88.7894 143.388 88.9766 143.669 89.0037C146.313 89.2591 146.696 89.5928 146.708 89.7899C146.737 90.2279 144.993 90.734 143.681 90.9267C140.819 91.3468 137.878 90.59 137.892 90.0549C137.897 89.8471 138.35 89.583 140.17 89.3023C140.569 89.2408 140.845 88.867 140.788 88.4661C140.766 88.3081 140.744 88.1501 140.722 87.9921C140.525 87.9482 139.398 87.7568 138.992 87.0675Z" fill="url(#paint63_linear_1988_63960)"/>
<path d="M138.415 82.7807C138.622 83.5472 139.2 84.27 139.418 84.3526C139.447 84.3633 139.608 84.4334 139.776 84.5821C139.799 84.6023 139.821 84.6272 139.844 84.661C140.14 85.0997 139.525 85.8735 139.73 86.0503C139.879 86.1787 140.344 85.8294 140.442 85.9484C140.534 86.0604 140.172 86.4404 140.279 86.5755C140.359 86.6775 140.598 86.5008 140.813 86.6326C140.92 86.6982 140.914 86.7746 141.074 87.02C141.165 87.1588 141.279 87.3066 141.358 87.3846C141.742 87.7644 142.535 87.7287 142.631 87.51C142.658 87.4491 142.612 87.4161 142.608 87.2365C142.608 87.2365 142.605 87.0701 142.665 86.8605C142.751 86.561 143.076 86.2766 143.381 85.9033C143.945 85.212 144.021 84.7312 144.039 84.5707C144.046 84.5135 144.048 84.4711 144.049 84.4405C144.081 83.8265 143.861 82.9957 143.472 82.5527C142.82 81.8107 141.97 82.473 140.96 81.8348C139.796 81.0986 139.979 79.6176 139.449 79.6012C138.865 79.583 138.033 81.3635 138.415 82.7807Z" fill="url(#paint64_linear_1988_63960)"/>
<path d="M139.958 85.7975C140.077 85.489 140.471 85.6437 140.562 85.9774C140.652 86.3112 140.422 86.745 140.091 86.7628C139.76 86.7805 139.798 86.2127 139.958 85.7975Z" fill="url(#paint65_linear_1988_63960)"/>
<path opacity="0.3" d="M143.273 108.87C141.495 108.386 140.4 110.534 138.872 110.217C136.766 109.781 136.016 105.121 135.813 103.858C135.079 99.2974 136.448 97.61 135.216 95.6274C134.946 95.1927 134.551 94.7462 133.959 94.3433C133.678 94.9716 133.409 95.7056 133.138 96.6299C132.374 99.2359 132.155 101.455 132.082 102.422C131.67 107.859 132.078 110.367 132.449 112.073C134.06 112.903 138.21 114.387 143.154 113.65C145.196 113.345 146.867 112.7 148.109 112.082C146.792 111.866 145.939 111.37 145.362 110.816C144.55 110.035 144.3 109.15 143.273 108.87Z" fill="url(#paint66_linear_1988_63960)"/>
<path d="M131.083 104.247L125.926 92.7049C125.863 92.5624 125.714 92.4784 125.559 92.4979L116.543 93.638C116.303 93.6684 116.163 93.9273 116.27 94.1459L122.349 106.617C122.422 106.767 122.59 106.846 122.752 106.806L130.779 104.815L131.083 104.247Z" fill="url(#paint67_linear_1988_63960)"/>
<path d="M129.665 102.849L125.49 93.5039C125.438 93.3885 125.318 93.3204 125.193 93.3363L117.893 94.2594C117.698 94.284 117.585 94.4937 117.671 94.6706L122.593 104.768C122.653 104.89 122.789 104.954 122.92 104.921L129.419 103.309L129.665 102.849Z" fill="#9E66FF"/>
<path d="M123.977 93.4475L123.646 92.6984C123.6 92.5943 123.492 92.5324 123.379 92.5457L119.627 92.9883C119.453 93.0088 119.349 93.1934 119.422 93.3535L119.791 94.1692C119.839 94.2737 119.949 94.3345 120.062 94.319L123.775 93.81C123.946 93.7866 124.047 93.6056 123.977 93.4475Z" fill="url(#paint68_linear_1988_63960)"/>
<path d="M118.859 95.9739C118.865 95.9738 118.871 95.9732 118.876 95.9725L125.489 95.1216C125.571 95.1112 125.629 95.036 125.618 94.9542C125.607 94.8718 125.53 94.815 125.451 94.8248L118.839 95.6757C118.757 95.6862 118.699 95.7614 118.709 95.8432C118.719 95.9197 118.785 95.975 118.859 95.9739Z" fill="url(#paint69_linear_1988_63960)"/>
<path d="M119.198 96.6422C119.204 96.6421 119.211 96.6415 119.217 96.6408L125.796 95.7254C125.878 95.7143 125.935 95.6386 125.923 95.5563C125.912 95.4745 125.838 95.4175 125.755 95.4286L119.176 96.344C119.094 96.3552 119.037 96.4308 119.048 96.5132C119.059 96.5885 119.124 96.6432 119.198 96.6422Z" fill="url(#paint70_linear_1988_63960)"/>
<path d="M122.509 97.695C122.516 97.6949 122.524 97.6942 122.531 97.6929L126.119 97.0936C126.2 97.0802 126.255 97.0028 126.242 96.921C126.228 96.8398 126.15 96.7841 126.07 96.798L122.482 97.3974C122.401 97.4109 122.346 97.4883 122.36 97.5701C122.372 97.6436 122.436 97.696 122.509 97.695Z" fill="url(#paint71_linear_1988_63960)"/>
<path d="M120.862 103.563C120.862 103.563 119.392 102.561 119.221 101.854C119.05 101.148 119.093 99.8184 119.093 99.8184L119.949 101.691C119.949 101.691 120.363 101.572 120.541 100.955C120.719 100.338 121.021 100.903 120.899 101.369C120.777 101.835 120.862 103.563 120.862 103.563Z" fill="url(#paint72_linear_1988_63960)"/>
<path d="M135.237 90.0562C133.698 90.2895 130.764 91.5863 129.193 93.6663C126.287 97.5143 127.398 101.556 124.964 102.996C124.268 103.407 123.046 103.742 120.84 102.959L119.994 103.41C119.994 103.41 118.962 108.678 125.34 108.875C131.718 109.072 134.896 101.12 134.896 101.12L137.89 91.3868L135.237 90.0562Z" fill="url(#paint73_linear_1988_63960)"/>
<defs>
<linearGradient id="paint0_linear_1988_63960" x1="99.6705" y1="114.201" x2="31.8897" y2="146.88" gradientUnits="userSpaceOnUse">
<stop stop-color="#AA80F9"/>
<stop offset="0.9964" stop-color="#6165D7"/>
</linearGradient>
<linearGradient id="paint1_linear_1988_63960" x1="99.671" y1="114.202" x2="31.8902" y2="146.881" gradientUnits="userSpaceOnUse">
<stop stop-color="#AA80F9"/>
<stop offset="0.9964" stop-color="#6165D7"/>
</linearGradient>
<linearGradient id="paint2_linear_1988_63960" x1="36.7448" y1="52.5621" x2="-12.7688" y2="130.806" gradientUnits="userSpaceOnUse">
<stop stop-color="#AA80F9"/>
<stop offset="0.9964" stop-color="#6165D7"/>
</linearGradient>
<linearGradient id="paint3_linear_1988_63960" x1="5.80567" y1="117.811" x2="48.1664" y2="117.811" gradientUnits="userSpaceOnUse">
<stop stop-color="#AA80F9"/>
<stop offset="0.9964" stop-color="#6165D7"/>
</linearGradient>
<linearGradient id="paint4_linear_1988_63960" x1="41.4785" y1="44.2514" x2="81.621" y2="44.2514" gradientUnits="userSpaceOnUse">
<stop stop-color="#FF9085"/>
<stop offset="1" stop-color="#FB6FBB"/>
</linearGradient>
<linearGradient id="paint5_linear_1988_63960" x1="75.3779" y1="55.1683" x2="127.98" y2="55.1683" gradientUnits="userSpaceOnUse">
<stop stop-color="#FF9085"/>
<stop offset="1" stop-color="#FB6FBB"/>
</linearGradient>
<linearGradient id="paint6_linear_1988_63960" x1="41.4785" y1="92.0671" x2="81.621" y2="92.0671" gradientUnits="userSpaceOnUse">
<stop stop-color="#FF9085"/>
<stop offset="1" stop-color="#FB6FBB"/>
</linearGradient>
<linearGradient id="paint7_linear_1988_63960" x1="145.316" y1="-11.2445" x2="45.3719" y2="52.3285" gradientUnits="userSpaceOnUse">
<stop stop-color="#AA80F9"/>
<stop offset="0.9964" stop-color="#6165D7"/>
</linearGradient>
<linearGradient id="paint8_linear_1988_63960" x1="133.748" y1="15.0333" x2="74.3699" y2="52.803" gradientUnits="userSpaceOnUse">
<stop stop-color="#AA80F9"/>
<stop offset="0.9964" stop-color="#6165D7"/>
</linearGradient>
<linearGradient id="paint9_linear_1988_63960" x1="75.2754" y1="91.2582" x2="157.458" y2="91.2582" gradientUnits="userSpaceOnUse">
<stop stop-color="#AA80F9"/>
<stop offset="0.9964" stop-color="#6165D7"/>
</linearGradient>
<linearGradient id="paint10_linear_1988_63960" x1="111.418" y1="100.716" x2="159.996" y2="43.2511" gradientUnits="userSpaceOnUse">
<stop stop-color="#AA80F9"/>
<stop offset="0.9964" stop-color="#6165D7"/>
</linearGradient>
<linearGradient id="paint11_linear_1988_63960" x1="111.417" y1="100.717" x2="159.996" y2="43.2514" gradientUnits="userSpaceOnUse">
<stop stop-color="#AA80F9"/>
<stop offset="0.9964" stop-color="#6165D7"/>
</linearGradient>
<linearGradient id="paint12_linear_1988_63960" x1="135.028" y1="20.7731" x2="160.801" y2="49.4148" gradientUnits="userSpaceOnUse">
<stop stop-color="#AA80F9"/>
<stop offset="0.9964" stop-color="#6165D7"/>
</linearGradient>
<linearGradient id="paint13_linear_1988_63960" x1="157.002" y1="43.5736" x2="160.845" y2="47.8449" gradientUnits="userSpaceOnUse">
<stop stop-color="#444B8C"/>
<stop offset="0.9964" stop-color="#26264F"/>
</linearGradient>
<linearGradient id="paint14_linear_1988_63960" x1="112.235" y1="29.7023" x2="132.729" y2="27.0574" gradientUnits="userSpaceOnUse">
<stop offset="0.0036" stop-color="#EBEFF2"/>
<stop offset="1" stop-color="white"/>
</linearGradient>
<linearGradient id="paint15_linear_1988_63960" x1="127.306" y1="27.7698" x2="148.772" y2="24.9995" gradientUnits="userSpaceOnUse">
<stop stop-color="#D8DEE8"/>
<stop offset="0.9964" stop-color="#97A6B7"/>
</linearGradient>
<linearGradient id="paint16_linear_1988_63960" x1="136.418" y1="27.7004" x2="148.052" y2="26.1989" gradientUnits="userSpaceOnUse">
<stop stop-color="#D8DEE8"/>
<stop offset="0.9964" stop-color="#97A6B7"/>
</linearGradient>
<linearGradient id="paint17_linear_1988_63960" x1="114.564" y1="39.3941" x2="124.801" y2="38.0729" gradientUnits="userSpaceOnUse">
<stop offset="0.0036" stop-color="#EBEFF2"/>
<stop offset="1" stop-color="white"/>
</linearGradient>
<linearGradient id="paint18_linear_1988_63960" x1="126.643" y1="33.0148" x2="147.137" y2="30.3699" gradientUnits="userSpaceOnUse">
<stop offset="0.0036" stop-color="#EBEFF2"/>
<stop offset="1" stop-color="white"/>
</linearGradient>
<linearGradient id="paint19_linear_1988_63960" x1="115.308" y1="40.3576" x2="126.254" y2="37.5648" gradientUnits="userSpaceOnUse">
<stop stop-color="#AA80F9"/>
<stop offset="0.9964" stop-color="#6165D7"/>
</linearGradient>
<linearGradient id="paint20_linear_1988_63960" x1="98.7684" y1="41.8435" x2="125.48" y2="35.0279" gradientUnits="userSpaceOnUse">
<stop stop-color="#AA80F9"/>
<stop offset="0.9964" stop-color="#6165D7"/>
</linearGradient>
<linearGradient id="paint21_linear_1988_63960" x1="79.6018" y1="49.7964" x2="123.898" y2="38.4942" gradientUnits="userSpaceOnUse">
<stop stop-color="#AA80F9"/>
<stop offset="0.9964" stop-color="#6165D7"/>
</linearGradient>
<linearGradient id="paint22_linear_1988_63960" x1="108.139" y1="43.7902" x2="116.452" y2="42.9906" gradientUnits="userSpaceOnUse">
<stop stop-color="#AA80F9"/>
<stop offset="0.9964" stop-color="#6165D7"/>
</linearGradient>
<linearGradient id="paint23_linear_1988_63960" x1="112.281" y1="45.3057" x2="125.739" y2="38.2075" gradientUnits="userSpaceOnUse">
<stop stop-color="#444B8C"/>
<stop offset="0.9964" stop-color="#26264F"/>
</linearGradient>
<linearGradient id="paint24_linear_1988_63960" x1="38.9032" y1="97.8214" x2="12.1912" y2="27.4748" gradientUnits="userSpaceOnUse">
<stop stop-color="#AA80F9"/>
<stop offset="0.9964" stop-color="#6165D7"/>
</linearGradient>
<linearGradient id="paint25_linear_1988_63960" x1="38.9028" y1="97.8216" x2="12.1908" y2="27.475" gradientUnits="userSpaceOnUse">
<stop stop-color="#AA80F9"/>
<stop offset="0.9964" stop-color="#6165D7"/>
</linearGradient>
<linearGradient id="paint26_linear_1988_63960" x1="43.2561" y1="14.6701" x2="9.61443" y2="33.0146" gradientUnits="userSpaceOnUse">
<stop stop-color="#AA80F9"/>
<stop offset="0.9964" stop-color="#6165D7"/>
</linearGradient>
<linearGradient id="paint27_linear_1988_63960" x1="14.9069" y1="28.7767" x2="9.86225" y2="31.5275" gradientUnits="userSpaceOnUse">
<stop stop-color="#444B8C"/>
<stop offset="0.9964" stop-color="#26264F"/>
</linearGradient>
<linearGradient id="paint28_linear_1988_63960" x1="61.7344" y1="30.5726" x2="43.2852" y2="21.2653" gradientUnits="userSpaceOnUse">
<stop offset="0.0036" stop-color="#EBEFF2"/>
<stop offset="1" stop-color="white"/>
</linearGradient>
<linearGradient id="paint29_linear_1988_63960" x1="48.1629" y1="23.7435" x2="28.8393" y2="13.9951" gradientUnits="userSpaceOnUse">
<stop stop-color="#D8DEE8"/>
<stop offset="0.9964" stop-color="#97A6B7"/>
</linearGradient>
<linearGradient id="paint30_linear_1988_63960" x1="39.5935" y1="20.6448" x2="29.1203" y2="15.3613" gradientUnits="userSpaceOnUse">
<stop stop-color="#D8DEE8"/>
<stop offset="0.9964" stop-color="#97A6B7"/>
</linearGradient>
<linearGradient id="paint31_linear_1988_63960" x1="56.3171" y1="38.937" x2="47.1013" y2="34.2878" gradientUnits="userSpaceOnUse">
<stop offset="0.0036" stop-color="#EBEFF2"/>
<stop offset="1" stop-color="white"/>
</linearGradient>
<linearGradient id="paint32_linear_1988_63960" x1="47.0458" y1="28.9081" x2="28.5966" y2="19.6008" gradientUnits="userSpaceOnUse">
<stop offset="0.0036" stop-color="#EBEFF2"/>
<stop offset="1" stop-color="white"/>
</linearGradient>
<linearGradient id="paint33_linear_1988_63960" x1="55.2967" y1="39.599" x2="45.9028" y2="33.3261" gradientUnits="userSpaceOnUse">
<stop stop-color="#AA80F9"/>
<stop offset="0.9964" stop-color="#6165D7"/>
</linearGradient>
<linearGradient id="paint34_linear_1988_63960" x1="70.3973" y1="46.5002" x2="47.4735" y2="31.1925" gradientUnits="userSpaceOnUse">
<stop stop-color="#AA80F9"/>
<stop offset="0.9964" stop-color="#6165D7"/>
</linearGradient>
<linearGradient id="paint35_linear_1988_63960" x1="85.8328" y1="60.3717" x2="47.8156" y2="34.9851" gradientUnits="userSpaceOnUse">
<stop stop-color="#AA80F9"/>
<stop offset="0.9964" stop-color="#6165D7"/>
</linearGradient>
<linearGradient id="paint36_linear_1988_63960" x1="60.9148" y1="45.2199" x2="53.3411" y2="41.7021" gradientUnits="userSpaceOnUse">
<stop stop-color="#AA80F9"/>
<stop offset="0.9964" stop-color="#6165D7"/>
</linearGradient>
<linearGradient id="paint37_linear_1988_63960" x1="56.5035" y1="45.2716" x2="46.1711" y2="34.1025" gradientUnits="userSpaceOnUse">
<stop stop-color="#444B8C"/>
<stop offset="0.9964" stop-color="#26264F"/>
</linearGradient>
<linearGradient id="paint38_linear_1988_63960" x1="98.9315" y1="106.975" x2="51.2579" y2="170.632" gradientUnits="userSpaceOnUse">
<stop stop-color="#CA44FF"/>
<stop offset="0.9964" stop-color="#2A0626"/>
</linearGradient>
<linearGradient id="paint39_linear_1988_63960" x1="106.571" y1="86.386" x2="45.9431" y2="176.41" gradientUnits="userSpaceOnUse">
<stop stop-color="#AE2896"/>
<stop offset="1" stop-color="#7F3D8F"/>
</linearGradient>
<linearGradient id="paint40_linear_1988_63960" x1="89.8799" y1="60.1001" x2="109.13" y2="60.1001" gradientUnits="userSpaceOnUse">
<stop stop-color="#FFC444"/>
<stop offset="0.9964" stop-color="#F36F56"/>
</linearGradient>
<linearGradient id="paint41_linear_1988_63960" x1="58.0556" y1="60.8185" x2="67.1488" y2="60.8185" gradientUnits="userSpaceOnUse">
<stop stop-color="#FFC444"/>
<stop offset="0.9964" stop-color="#F36F56"/>
</linearGradient>
<linearGradient id="paint42_linear_1988_63960" x1="5.27881" y1="125.645" x2="36.6689" y2="147.988" gradientUnits="userSpaceOnUse">
<stop stop-color="#AA80F9"/>
<stop offset="0.9964" stop-color="#6165D7"/>
</linearGradient>
<linearGradient id="paint43_linear_1988_63960" x1="30.4357" y1="144.878" x2="35.1168" y2="148.21" gradientUnits="userSpaceOnUse">
<stop stop-color="#444B8C"/>
<stop offset="0.9964" stop-color="#26264F"/>
</linearGradient>
<linearGradient id="paint44_linear_1988_63960" x1="11.5592" y1="101.983" x2="11.2658" y2="122.645" gradientUnits="userSpaceOnUse">
<stop offset="0.0036" stop-color="#EBEFF2"/>
<stop offset="1" stop-color="white"/>
</linearGradient>
<linearGradient id="paint45_linear_1988_63960" x1="11.3553" y1="117.178" x2="11.048" y2="138.819" gradientUnits="userSpaceOnUse">
<stop stop-color="#D8DEE8"/>
<stop offset="0.9964" stop-color="#97A6B7"/>
</linearGradient>
<linearGradient id="paint46_linear_1988_63960" x1="12.3238" y1="126.238" x2="12.1573" y2="137.967" gradientUnits="userSpaceOnUse">
<stop stop-color="#D8DEE8"/>
<stop offset="0.9964" stop-color="#97A6B7"/>
</linearGradient>
<linearGradient id="paint47_linear_1988_63960" x1="21.4498" y1="103.195" x2="21.3032" y2="113.516" gradientUnits="userSpaceOnUse">
<stop offset="0.0036" stop-color="#EBEFF2"/>
<stop offset="1" stop-color="white"/>
</linearGradient>
<linearGradient id="paint48_linear_1988_63960" x1="16.4889" y1="115.921" x2="16.1955" y2="136.583" gradientUnits="userSpaceOnUse">
<stop offset="0.0036" stop-color="#EBEFF2"/>
<stop offset="1" stop-color="white"/>
</linearGradient>
<linearGradient id="paint49_linear_1988_63960" x1="22.4909" y1="103.828" x2="20.9632" y2="115.021" gradientUnits="userSpaceOnUse">
<stop stop-color="#AA80F9"/>
<stop offset="0.9964" stop-color="#6165D7"/>
</linearGradient>
<linearGradient id="paint50_linear_1988_63960" x1="22.0848" y1="87.2277" x2="18.3564" y2="114.541" gradientUnits="userSpaceOnUse">
<stop stop-color="#AA80F9"/>
<stop offset="0.9964" stop-color="#6165D7"/>
</linearGradient>
<linearGradient id="paint51_linear_1988_63960" x1="27.8008" y1="67.2775" x2="21.6179" y2="112.572" gradientUnits="userSpaceOnUse">
<stop stop-color="#AA80F9"/>
<stop offset="0.9964" stop-color="#6165D7"/>
</linearGradient>
<linearGradient id="paint52_linear_1988_63960" x1="25.0859" y1="96.316" x2="25.2385" y2="104.666" gradientUnits="userSpaceOnUse">
<stop stop-color="#AA80F9"/>
<stop offset="0.9964" stop-color="#6165D7"/>
</linearGradient>
<linearGradient id="paint53_linear_1988_63960" x1="27.0634" y1="100.258" x2="21.5444" y2="114.437" gradientUnits="userSpaceOnUse">
<stop stop-color="#444B8C"/>
<stop offset="0.9964" stop-color="#26264F"/>
</linearGradient>
<linearGradient id="paint54_linear_1988_63960" x1="138.455" y1="99.7481" x2="155.59" y2="99.7481" gradientUnits="userSpaceOnUse">
<stop stop-color="#AA80F9"/>
<stop offset="0.9964" stop-color="#6165D7"/>
</linearGradient>
<linearGradient id="paint55_linear_1988_63960" x1="150.083" y1="151.497" x2="152.534" y2="153.121" gradientUnits="userSpaceOnUse">
<stop stop-color="#444B8C"/>
<stop offset="0.9964" stop-color="#26264F"/>
</linearGradient>
<linearGradient id="paint56_linear_1988_63960" x1="152.453" y1="153.143" x2="151.914" y2="149.346" gradientUnits="userSpaceOnUse">
<stop stop-color="#FFC444"/>
<stop offset="0.9964" stop-color="#F36F56"/>
</linearGradient>
<linearGradient id="paint57_linear_1988_63960" x1="150.266" y1="151.223" x2="152.717" y2="152.847" gradientUnits="userSpaceOnUse">
<stop stop-color="#444B8C"/>
<stop offset="0.9964" stop-color="#26264F"/>
</linearGradient>
<linearGradient id="paint58_linear_1988_63960" x1="134.55" y1="152.715" x2="136.75" y2="154.667" gradientUnits="userSpaceOnUse">
<stop stop-color="#444B8C"/>
<stop offset="0.9964" stop-color="#26264F"/>
</linearGradient>
<linearGradient id="paint59_linear_1988_63960" x1="136.663" y1="154.675" x2="136.663" y2="150.841" gradientUnits="userSpaceOnUse">
<stop stop-color="#FFC444"/>
<stop offset="0.9964" stop-color="#F36F56"/>
</linearGradient>
<linearGradient id="paint60_linear_1988_63960" x1="136.485" y1="156.434" x2="150.875" y2="98.503" gradientUnits="userSpaceOnUse">
<stop stop-color="#444B8C"/>
<stop offset="0.9964" stop-color="#26264F"/>
</linearGradient>
<linearGradient id="paint61_linear_1988_63960" x1="132.947" y1="111.099" x2="149.563" y2="92.3419" gradientUnits="userSpaceOnUse">
<stop stop-color="#AA80F9"/>
<stop offset="0.9964" stop-color="#6165D7"/>
</linearGradient>
<linearGradient id="paint62_linear_1988_63960" x1="134.773" y1="152.468" x2="136.973" y2="154.419" gradientUnits="userSpaceOnUse">
<stop stop-color="#444B8C"/>
<stop offset="0.9964" stop-color="#26264F"/>
</linearGradient>
<linearGradient id="paint63_linear_1988_63960" x1="136.71" y1="82.8761" x2="148.638" y2="97.8395" gradientUnits="userSpaceOnUse">
<stop stop-color="#FFC444"/>
<stop offset="0.9964" stop-color="#F36F56"/>
</linearGradient>
<linearGradient id="paint64_linear_1988_63960" x1="140.61" y1="81.1655" x2="144.985" y2="96.3306" gradientUnits="userSpaceOnUse">
<stop stop-color="#311944"/>
<stop offset="1" stop-color="#893976"/>
</linearGradient>
<linearGradient id="paint65_linear_1988_63960" x1="137.211" y1="82.4784" x2="149.139" y2="97.4416" gradientUnits="userSpaceOnUse">
<stop stop-color="#FFC444"/>
<stop offset="0.9964" stop-color="#F36F56"/>
</linearGradient>
<linearGradient id="paint66_linear_1988_63960" x1="133.589" y1="111.666" x2="150.204" y2="92.9095" gradientUnits="userSpaceOnUse">
<stop stop-color="#AA80F9"/>
<stop offset="0.9964" stop-color="#6165D7"/>
</linearGradient>
<linearGradient id="paint67_linear_1988_63960" x1="121.281" y1="95.1644" x2="129.979" y2="108.771" gradientUnits="userSpaceOnUse">
<stop stop-color="#444B8C"/>
<stop offset="0.9964" stop-color="#26264F"/>
</linearGradient>
<linearGradient id="paint68_linear_1988_63960" x1="122.135" y1="94.2706" x2="120.051" y2="90.1086" gradientUnits="userSpaceOnUse">
<stop stop-color="#AA80F9"/>
<stop offset="0.9964" stop-color="#6165D7"/>
</linearGradient>
<linearGradient id="paint69_linear_1988_63960" x1="125.619" y1="95.3988" x2="118.708" y2="95.3988" gradientUnits="userSpaceOnUse">
<stop stop-color="#444B8C"/>
<stop offset="0.9964" stop-color="#26264F"/>
</linearGradient>
<linearGradient id="paint70_linear_1988_63960" x1="125.925" y1="96.0347" x2="119.047" y2="96.0347" gradientUnits="userSpaceOnUse">
<stop stop-color="#444B8C"/>
<stop offset="0.9964" stop-color="#26264F"/>
</linearGradient>
<linearGradient id="paint71_linear_1988_63960" x1="126.244" y1="97.2455" x2="122.357" y2="97.2455" gradientUnits="userSpaceOnUse">
<stop stop-color="#444B8C"/>
<stop offset="0.9964" stop-color="#26264F"/>
</linearGradient>
<linearGradient id="paint72_linear_1988_63960" x1="119.563" y1="100.62" x2="121.65" y2="103.885" gradientUnits="userSpaceOnUse">
<stop stop-color="#FFC444"/>
<stop offset="0.9964" stop-color="#F36F56"/>
</linearGradient>
<linearGradient id="paint73_linear_1988_63960" x1="125.798" y1="104.765" x2="142.414" y2="86.0086" gradientUnits="userSpaceOnUse">
<stop stop-color="#AA80F9"/>
<stop offset="0.9964" stop-color="#6165D7"/>
</linearGradient>
</defs>
</svg>
