<svg width="93" height="93" viewBox="0 0 93 93" fill="none" xmlns="http://www.w3.org/2000/svg">
<path d="M46.5 93.0001C72.1812 93.0001 93 72.1814 93 46.5001C93 20.8189 72.1812 0 46.5 0C20.8188 0 0 20.8189 0 46.5001C0 72.1814 20.8188 93.0001 46.5 93.0001Z" fill="#8543AD"/>
<path d="M58.6249 91.3763L58.9388 91.3046C63.4275 90.0584 67.7035 88.1448 71.6236 85.6278C78.1803 81.4183 83.5741 75.6287 87.3096 68.7909C91.0435 61.9545 93.0002 54.2896 93 46.4999C92.9922 46.2519 92.9845 45.1243 92.9729 44.8763C72.1641 24.1489 71.0656 23.0329 92.9438 44.9112C92.9335 44.3445 92.9128 43.778 92.8818 43.212C92.5531 38.5643 91.5276 33.9924 89.8399 29.6495C89.5585 28.9774 89.2614 28.312 88.9487 27.6539L79.3929 18.1001C79.3458 17.9555 79.2653 17.824 79.1579 17.7163C79.0506 17.6086 78.9193 17.5276 78.7749 17.4801H78.771L75.5141 14.2212V14.2173C75.4523 14.0312 75.3355 13.8682 75.1792 13.7499C75.0228 13.6316 74.8342 13.5635 74.6383 13.5547V13.5586C74.5037 13.552 74.3692 13.5736 74.2435 13.622C74.1177 13.6704 74.0034 13.7444 73.9079 13.8395V13.8434L68.0954 19.652V19.6559C67.969 19.783 67.8804 19.9426 67.8393 20.117C67.7983 20.2915 67.8064 20.4739 67.8629 20.644V20.6459L68.6418 22.9806V22.9845L62.558 29.0682C58.244 25.0702 52.5793 22.8489 46.6976 22.8489C40.2264 22.8489 34.3674 25.48 30.1223 29.7251C29.5914 30.254 29.0857 30.8081 28.6091 31.3855V31.3894C28.1306 31.9687 27.6791 32.5693 27.2567 33.1912V33.1951C26.8363 33.819 26.443 34.4622 26.0807 35.1249V35.1287C25.7203 35.7933 25.389 36.4714 25.0926 37.1728V37.1767C24.7961 37.8761 24.5346 38.5969 24.3059 39.3292V39.3331C24.0773 40.0655 23.8836 40.8114 23.7266 41.5729V41.5767C23.5716 42.3401 23.4515 43.1151 23.3701 43.9018V43.9056C23.2926 44.6922 23.25 45.4886 23.25 46.2965V46.3004C23.25 47.1083 23.2907 47.9046 23.3701 48.6912V48.6951C23.4515 49.4817 23.5716 50.2587 23.7266 51.0201V51.024C23.8816 51.7854 24.0773 52.5314 24.3059 53.2637V53.2676C24.5346 54 24.7961 54.7207 25.0926 55.4202V55.4241C25.389 56.1235 25.7203 56.8036 26.0807 57.4681V57.472C26.4411 58.1346 26.8363 58.7779 27.2567 59.4017V59.4056C27.6791 60.0276 28.1306 60.6282 28.6091 61.2075V61.2114C29.0857 61.7887 29.5914 62.3429 30.1204 62.8718V62.8757L58.6249 91.3763Z" fill="#6A1B9A"/>
<path d="M74.6383 13.5625C74.6073 13.5623 74.5762 13.5636 74.5453 13.5664C74.3056 13.5772 74.0785 13.6767 73.9079 13.8454L68.0954 19.6579C67.9683 19.7853 67.8792 19.9456 67.8382 20.1209C67.7971 20.2961 67.8057 20.4793 67.8629 20.6499L68.6418 22.9885L62.558 29.0722C58.2433 25.0758 52.5788 22.8559 46.6976 22.8567C33.759 22.8567 23.25 33.3638 23.25 46.3024C23.25 59.241 33.759 69.75 46.6976 69.75C59.6343 69.75 70.1472 59.241 70.1472 46.3024C70.1472 40.1818 67.7757 34.6212 63.9278 30.444L70.0116 24.3602L72.3501 25.1391C72.5209 25.1961 72.7042 25.2043 72.8795 25.1629C73.0547 25.1215 73.2149 25.032 73.3421 24.9046L79.1546 19.0921C79.2719 18.9753 79.3573 18.8304 79.4026 18.6713C79.448 18.5121 79.4518 18.344 79.4137 18.1829C79.3756 18.0218 79.2969 17.8732 79.1851 17.7512C79.0733 17.6292 78.932 17.5379 78.7749 17.486L76.3278 16.6722L75.5141 14.2251C75.4523 14.039 75.3355 13.8761 75.1792 13.7578C75.0228 13.6394 74.8342 13.5714 74.6383 13.5625ZM74.1694 16.3254L74.6422 17.7436C74.6897 17.8868 74.77 18.0168 74.8766 18.1234C74.9832 18.2301 75.1133 18.3103 75.2564 18.3578L76.6746 18.8306L72.3947 23.1105L70.5173 22.4847L69.8895 20.6053L74.1714 16.3235L74.1694 16.3254ZM46.6957 24.7923C52.0652 24.7889 57.24 26.8034 61.194 30.4362L58.4195 33.2107C55.1988 30.3197 51.0255 28.7173 46.6976 28.7099C42.0318 28.7099 37.5571 30.5634 34.2578 33.8626C30.9586 37.1619 29.1051 41.6366 29.1051 46.3024C29.1056 50.9679 30.9594 55.4421 34.2585 58.7409C37.5577 62.0397 42.0321 63.893 46.6976 63.893C51.3631 63.893 55.8375 62.0397 59.1367 58.7409C62.4359 55.4421 64.2896 50.9679 64.2901 46.3024C64.2818 41.9758 62.6795 37.8041 59.7893 34.5844L62.5638 31.806C66.1973 35.759 68.2124 40.9332 68.2097 46.3024C68.2115 49.1278 67.6562 51.9259 66.5758 54.5365C65.4953 57.1472 63.9108 59.5192 61.9128 61.517C59.9148 63.5148 57.5427 65.0991 54.9319 66.1793C52.3211 67.2596 49.523 67.8146 46.6976 67.8125C43.8723 67.8146 41.0743 67.2596 38.4636 66.1793C35.853 65.099 33.4809 63.5147 31.4831 61.5169C29.4853 59.5191 27.901 57.147 26.8207 54.5364C25.7404 51.9257 25.1855 49.1277 25.1875 46.3024C25.1857 43.4772 25.7409 40.6794 26.8213 38.069C27.9016 35.4586 29.486 33.0867 31.4838 31.0891C33.4816 29.0915 35.8536 27.5074 38.4641 26.4272C41.0746 25.3471 43.8725 24.7922 46.6976 24.7942L46.6957 24.7923ZM46.6957 32.6198C49.989 32.625 53.17 33.8178 55.6547 35.9794L52.8879 38.7461C51.1424 37.3145 48.9551 36.5313 46.6976 36.5296C44.1061 36.5302 41.6208 37.56 39.7885 39.3927C37.9562 41.2254 36.9268 43.7108 36.9268 46.3024C36.9273 48.8936 37.9569 51.3786 39.7892 53.2108C41.6215 55.0431 44.1064 56.0727 46.6976 56.0732C49.2892 56.0732 51.7746 55.0438 53.6073 53.2115C55.44 51.3792 56.4699 48.894 56.4704 46.3024C56.4689 44.0467 55.6872 41.861 54.2577 40.116L57.0323 37.3415C59.1901 39.8283 60.3788 43.0099 60.3802 46.3024C60.3797 49.9309 58.938 53.4106 56.372 55.9762C53.8061 58.5418 50.3261 59.9831 46.6976 59.9831C43.0691 59.9836 39.589 58.5428 37.0227 55.9776C34.4564 53.4124 33.0141 49.9329 33.0131 46.3043C33.0128 44.5072 33.3666 42.7276 34.0542 41.0672C34.7418 39.4068 35.7498 37.8981 37.0206 36.6273C38.2914 35.3565 39.8001 34.3486 41.4605 33.6609C43.1209 32.9733 44.9005 32.6195 46.6976 32.6198H46.6957ZM46.6957 40.4376C47.9163 40.4402 49.1056 40.8235 50.0979 41.5342L47.1878 44.4443C47.027 44.4017 46.872 44.3475 46.6976 44.3475C46.3111 44.3478 45.9334 44.4628 45.6122 44.6777C45.2911 44.8927 45.0408 45.198 44.8931 45.5552C44.7453 45.9123 44.7068 46.3052 44.7823 46.6843C44.8578 47.0633 45.0439 47.4115 45.3172 47.6847C45.5905 47.958 45.9387 48.1442 46.3177 48.2197C46.6967 48.2952 47.0897 48.2566 47.4468 48.1089C47.8039 47.9612 48.1093 47.7109 48.3242 47.3897C48.5392 47.0685 48.6541 46.6908 48.6545 46.3043C48.6545 46.1319 48.5964 45.9769 48.5557 45.82L51.4678 42.9021C52.1773 43.8941 52.56 45.0827 52.5624 46.3024C52.5619 47.8575 51.9438 49.3487 50.844 50.4482C49.7442 51.5476 48.2527 52.1653 46.6976 52.1653C45.1429 52.1648 43.6519 51.5469 42.5525 50.4475C41.4531 49.3481 40.8353 47.8572 40.8348 46.3024C40.8348 44.7473 41.4524 43.2558 42.5518 42.156C43.6513 41.0562 45.1425 40.4381 46.6976 40.4376H46.6957Z" fill="white"/>
</svg>
