<svg width="93" height="93" viewBox="0 0 93 93" fill="none" xmlns="http://www.w3.org/2000/svg">
<g clip-path="url(#clip0_1988_63675)">
<path d="M46.5 93.0001C72.1812 93.0001 93 72.1814 93 46.5001C93 20.8189 72.1812 0 46.5 0C20.8188 0 0 20.8189 0 46.5001C0 72.1814 20.8188 93.0001 46.5 93.0001Z" fill="#8543AD"/>
<path d="M52.9753 92.4962C53.4528 92.4455 53.9294 92.3874 54.4051 92.3219C55.9324 92.0586 57.4455 91.7191 58.9389 91.3047C60.433 90.8903 61.9054 90.4014 63.3506 89.8399C64.7957 89.2781 66.2119 88.6444 67.5937 87.9412C68.9748 87.2377 70.3198 86.4656 71.6237 85.6278C72.9279 84.791 74.1895 83.8896 75.4038 82.9269C76.6187 81.9628 77.7846 80.9385 78.8971 79.8579C80.0084 78.7773 81.065 77.6418 82.063 76.4557C83.0631 75.2699 84.0034 74.0348 84.8801 72.755C85.7555 71.4756 86.5664 70.1533 87.3097 68.7929C88.052 67.4324 88.7258 66.0356 89.3286 64.6079C89.9326 63.1796 90.4648 61.7221 90.9232 60.2407C91.3809 58.7599 91.7644 57.2571 92.0721 55.738C92.3811 54.2186 92.6139 52.6848 92.7696 51.1422C92.9238 49.5996 93.0007 48.0503 93.0002 46.5C92.9924 45.7115 92.9646 44.9233 92.9168 44.1362L69.8935 21.109H65.0498V23.0465L65.6969 23.6937L65.1098 24.2168L58.2995 17.4045L56.5054 16.6702L55.0329 20.2546L59.5744 24.7961C59.0823 24.4474 58.5805 24.1102 58.0535 23.8041L49.5498 15.3004H47.6123V19.1754L49.6215 21.1865C49.449 21.173 49.2746 21.142 49.1041 21.1323C47.8716 21.0697 46.6358 21.1229 45.4132 21.2912C45.3745 21.297 45.3396 21.3105 45.3008 21.3144L40.6566 16.6702L38.8645 17.4065L40.337 20.9909L41.5808 22.2386L41.3755 22.3103C40.5869 22.597 39.81 22.9187 39.0698 23.3004C38.1263 23.7847 37.2292 24.3466 36.3767 24.9744L35.253 23.8506L32.5133 21.109L31.1435 22.4808L33.8831 25.2204L34.8713 26.2085C31.5243 29.2176 29.31 33.283 28.5976 37.727L21.5587 51.7119C21.4842 51.8596 21.4489 52.024 21.456 52.1893C21.4631 52.3546 21.5124 52.5154 21.5992 52.6562C21.6861 52.7971 21.8075 52.9133 21.952 52.9939C22.0966 53.0745 22.2593 53.1167 22.4248 53.1165L25.2031 55.8949V62.8893C25.2031 63.1462 25.3052 63.3926 25.4869 63.5743C25.6686 63.756 25.915 63.858 26.1719 63.858L34.8829 72.571L35.1212 74.6402C35.1371 74.8739 35.2371 75.094 35.4027 75.2596C35.5684 75.4253 35.7884 75.5253 36.0221 75.5412L52.9753 92.4943V92.4962Z" fill="#6A1B9A"/>
<path d="M47.6123 15.3044V19.1794H49.5498V15.3044H47.6123ZM40.6566 16.6742L38.8645 17.4086L40.337 20.9948L42.1291 20.2586L40.6566 16.6742ZM56.5054 16.6742L55.0329 20.2586L56.827 20.9948L58.2995 17.4086L56.5054 16.6742ZM65.0498 21.1111V23.0486H66.4273L55.961 32.3175L49.3076 38.2095L45.3919 34.2957L39.1105 40.5791C39.2616 41.296 39.5077 41.974 39.8061 42.6211L45.3919 37.0354L49.2243 40.8698L57.0615 33.9296L67.956 24.2828V25.9568H69.8935V21.113L65.0498 21.1111ZM32.5133 21.1111L31.1435 22.4829L33.8831 25.2224L35.253 23.8525L32.5133 21.1111ZM47.1124 21.1363C37.9635 21.5955 30.1108 28.3652 28.5976 37.7291L21.5587 51.7159C21.4842 51.8637 21.4489 52.0279 21.456 52.1932C21.4631 52.3585 21.5124 52.5192 21.5992 52.6601C21.6861 52.8009 21.8075 52.9172 21.952 52.9978C22.0966 53.0784 22.2593 53.1207 22.4248 53.1206H25.2031V62.8951C25.2031 63.152 25.3052 63.3986 25.4869 63.5803C25.6686 63.762 25.915 63.8639 26.1719 63.8639H33.887L35.1212 74.6443C35.1295 74.7755 35.1645 74.9035 35.2239 75.0208C35.2833 75.1381 35.366 75.2421 35.4669 75.3264C35.5678 75.4107 35.6847 75.4735 35.8107 75.5111C35.9367 75.5487 36.069 75.5603 36.1996 75.5452C36.3302 75.53 36.4563 75.4886 36.5703 75.4231C36.6843 75.3577 36.7838 75.2697 36.8628 75.1646C36.9417 75.0595 36.9984 74.9392 37.0294 74.8115C37.0604 74.6837 37.0651 74.5511 37.0432 74.4215L35.716 62.7847C35.6889 62.5487 35.5761 62.3311 35.3989 62.1728C35.2217 62.0146 34.9926 61.9267 34.755 61.9264H27.1406V52.1518C27.1406 51.8949 27.0386 51.6483 26.8569 51.4667C26.6752 51.285 26.4288 51.1831 26.1719 51.1831H24L30.3879 38.4827C30.4339 38.3919 30.4652 38.2946 30.4809 38.1941C30.8299 35.8741 31.6342 33.6457 32.8474 31.6376C34.0606 29.6294 35.6588 27.881 37.5502 26.4927C39.4416 25.1045 41.5887 24.1039 43.8682 23.5484C46.1476 22.9929 48.5144 22.8934 50.8324 23.2558C53.8865 23.713 56.7698 24.9547 59.2005 26.8596L60.6575 25.5713C57.9171 23.3312 54.6245 21.8696 51.125 21.3397C49.7983 21.1375 48.4527 21.0694 47.1124 21.1363ZM48.581 24.988C41.1023 24.988 35.0185 31.0718 35.0185 38.5505C35.0185 46.0293 41.1023 52.113 48.581 52.113C56.0598 52.113 62.1435 46.0293 62.1435 38.5505C62.1435 36.5937 61.7211 34.7336 60.9713 33.0519L59.4349 34.4102C60.1094 36.1695 60.3456 38.0666 60.123 39.9377C59.9003 41.8087 59.2257 43.5974 58.1572 45.1494C57.0887 46.7014 55.6585 47.97 53.9901 48.8456C52.3217 49.7213 50.4653 50.1778 48.581 50.1755C42.1485 50.1755 36.956 44.983 36.956 38.5505C36.956 32.118 42.1485 26.9255 48.581 26.9255C51.433 26.9255 54.0351 27.9466 56.0559 29.6419L57.5051 28.3593C55.0405 26.1859 51.8671 24.9871 48.581 24.988ZM64.5731 29.859L63.12 31.1494C65.4969 34.7904 66.4532 39.1776 65.8073 43.4775L57.292 62.0737C57.2231 62.2253 57.1944 62.3921 57.2087 62.5581L58.2995 75.1653C58.3075 75.2943 58.3412 75.4204 58.3986 75.5362C58.4561 75.6519 58.5361 75.755 58.6339 75.8394C58.7318 75.9237 58.8455 75.9877 58.9685 76.0274C59.0914 76.0671 59.221 76.0818 59.3498 76.0707C59.4785 76.0596 59.6037 76.0228 59.718 75.9626C59.8323 75.9024 59.9334 75.8198 60.0153 75.7199C60.0973 75.6201 60.1584 75.5049 60.1952 75.381C60.2319 75.2572 60.2435 75.1272 60.2293 74.9988L59.1636 62.6413L67.6499 44.0996C67.6874 44.0183 67.7135 43.9323 67.7274 43.8439C68.4762 38.9513 67.3496 33.9564 64.5731 29.859Z" fill="white"/>
</g>
<defs>
<clipPath id="clip0_1988_63675">
<rect width="93" height="93" fill="white"/>
</clipPath>
</defs>
</svg>
