<svg width="135" height="134" viewBox="0 0 135 134" fill="none" xmlns="http://www.w3.org/2000/svg">
<rect x="0.499756" width="134" height="134" rx="67.0002" fill="#F1E3FA"/>
<g filter="url(#filter0_dd_2033_44715)">
<rect x="24.7874" y="24.2876" width="85.4253" height="85.4253" rx="42.7126" fill="#E3CFF0"/>
<rect x="25.462" y="24.9623" width="84.0759" height="84.0759" rx="42.038" stroke="#6A1B9A" stroke-width="1.34931"/>
<path d="M91.6007 65.6082L90.3907 64.8291L70.1851 77.8078C69.3729 78.3216 68.4446 78.6034 67.4998 78.6034C66.555 78.6034 65.6268 78.3382 64.8146 77.8243L44.609 64.8291L43.399 65.6082C42.9183 65.9065 42.6365 66.4369 42.6365 67.0005C42.6365 67.5641 42.9183 68.0945 43.399 68.3928L66.6047 83.3109C66.8865 83.4932 67.1849 83.5761 67.4998 83.5761C67.8148 83.5761 68.1297 83.4932 68.3949 83.3109L91.6007 68.3928C92.0814 68.0945 92.3632 67.5641 92.3632 67.0005C92.3632 66.4369 92.0814 65.9065 91.6007 65.6082Z" fill="#6A1B9A"/>
<path d="M91.6007 73.8957L90.3907 73.1167L70.1851 86.0954C69.3729 86.6092 68.4446 86.891 67.4998 86.891C66.555 86.891 65.6268 86.6258 64.8146 86.1119L44.609 73.1167L43.399 73.8957C42.9183 74.1941 42.6365 74.7245 42.6365 75.2881C42.6365 75.8517 42.9183 76.3821 43.399 76.6804L66.6047 91.5985C66.8865 91.7808 67.1849 91.8637 67.4998 91.8637C67.8148 91.8637 68.1297 91.7808 68.3949 91.5985L91.6007 76.6804C92.0814 76.3821 92.3632 75.8517 92.3632 75.2881C92.3632 74.7245 92.0814 74.1941 91.6007 73.8957Z" fill="#6A1B9A"/>
<path d="M43.399 60.1049L66.6047 75.0229C66.8865 75.2052 67.1849 75.2881 67.4998 75.2881C67.8148 75.2881 68.1297 75.2052 68.3949 75.0229L91.6007 60.1049C92.0814 59.8065 92.3632 59.2761 92.3632 58.7125C92.3632 58.149 92.0814 57.6186 91.6007 57.3202L68.3949 42.4022C67.8479 42.0541 67.1517 42.0541 66.6047 42.4022L43.399 57.3202C42.9183 57.6186 42.6365 58.149 42.6365 58.7125C42.6365 59.2761 42.9183 59.8065 43.399 60.1049ZM73.0029 56.4914C72.373 55.8284 72.3896 54.7841 73.0361 54.1543C73.6991 53.5244 74.7434 53.541 75.3732 54.1874L78.622 57.5523C79.2519 58.1987 79.2519 59.2098 78.622 59.8563L75.3732 63.2211C75.0417 63.5526 74.6107 63.7184 74.1798 63.7184C73.7488 63.7184 73.351 63.5692 73.0195 63.2542C72.3565 62.6244 72.3399 61.5635 72.9863 60.9171L75.1246 58.696L72.9863 56.4748L73.0029 56.4914ZM64.5825 63.7018L67.1849 52.9277C67.4004 52.0326 68.2955 51.4856 69.1905 51.7011C70.0856 51.9166 70.6326 52.8116 70.4171 53.7067L67.8148 64.4808C67.6324 65.2433 66.9528 65.7406 66.2069 65.7406C66.0743 65.7406 65.9417 65.7406 65.8091 65.6909C64.914 65.4754 64.367 64.5803 64.5825 63.6852V63.7018ZM56.361 57.5523L59.6099 54.1874C60.2397 53.5244 61.3006 53.5078 61.947 54.1543C62.61 54.7841 62.6266 55.845 61.9802 56.4914L59.8419 58.7125L61.9802 60.9337C62.61 61.5967 62.5935 62.641 61.947 63.2708C61.6321 63.5858 61.2011 63.7349 60.7867 63.7349C60.3723 63.7349 59.9248 63.5692 59.5933 63.2377L56.3445 59.8728C55.7146 59.2264 55.7146 58.2153 56.3445 57.5688L56.361 57.5523Z" fill="#6A1B9A"/>
</g>
<defs>
<filter id="filter0_dd_2033_44715" x="13.0874" y="13.5876" width="108.825" height="108.825" filterUnits="userSpaceOnUse" color-interpolation-filters="sRGB">
<feFlood flood-opacity="0" result="BackgroundImageFix"/>
<feColorMatrix in="SourceAlpha" type="matrix" values="0 0 0 0 0 0 0 0 0 0 0 0 0 0 0 0 0 0 127 0" result="hardAlpha"/>
<feMorphology radius="1" operator="dilate" in="SourceAlpha" result="effect1_dropShadow_2033_44715"/>
<feOffset dy="1"/>
<feGaussianBlur stdDeviation="1.5"/>
<feColorMatrix type="matrix" values="0 0 0 0 0.332549 0 0 0 0 0.0847059 0 0 0 0 0.483137 0 0 0 0.3 0"/>
<feBlend mode="normal" in2="BackgroundImageFix" result="effect1_dropShadow_2033_44715"/>
<feColorMatrix in="SourceAlpha" type="matrix" values="0 0 0 0 0 0 0 0 0 0 0 0 0 0 0 0 0 0 127 0" result="hardAlpha"/>
<feMorphology radius="5" operator="dilate" in="SourceAlpha" result="effect2_dropShadow_2033_44715"/>
<feOffset dy="1"/>
<feGaussianBlur stdDeviation="3.35"/>
<feColorMatrix type="matrix" values="0 0 0 0 0.415686 0 0 0 0 0.105882 0 0 0 0 0.603922 0 0 0 0.3 0"/>
<feBlend mode="normal" in2="effect1_dropShadow_2033_44715" result="effect2_dropShadow_2033_44715"/>
<feBlend mode="normal" in="SourceGraphic" in2="effect2_dropShadow_2033_44715" result="shape"/>
</filter>
</defs>
</svg>
