<svg width="48" height="48" viewBox="0 0 48 48" fill="none" xmlns="http://www.w3.org/2000/svg">
<g clip-path="url(#clip0_1988_63314)">
<path d="M24 13.5C21.9233 13.5 19.8932 14.1158 18.1665 15.2696C16.4398 16.4233 15.094 18.0632 14.2993 19.9818C13.5045 21.9004 13.2966 24.0117 13.7018 26.0485C14.1069 28.0853 15.1069 29.9562 16.5754 31.4246C18.0438 32.8931 19.9148 33.8931 21.9516 34.2982C23.9884 34.7034 26.0996 34.4955 28.0182 33.7007C29.9368 32.906 31.5767 31.5602 32.7304 29.8335C33.8842 28.1068 34.5 26.0767 34.5 24C34.4969 21.2162 33.3897 18.5473 31.4212 16.5788C29.4527 14.6103 26.7838 13.5031 24 13.5ZM29.5605 22.0605L23.5605 28.0605C23.4213 28.1998 23.256 28.3104 23.074 28.3858C22.892 28.4612 22.697 28.5 22.5 28.5C22.303 28.5 22.108 28.4612 21.926 28.3858C21.7441 28.3104 21.5787 28.1998 21.4395 28.0605L18.4395 25.0605C18.1663 24.7776 18.0151 24.3987 18.0185 24.0054C18.0219 23.6121 18.1797 23.2359 18.4578 22.9578C18.7359 22.6797 19.1121 22.5219 19.5054 22.5185C19.8987 22.5151 20.2776 22.6663 20.5605 22.9395L22.5 24.8788L27.4395 19.9395C27.7224 19.6663 28.1013 19.5151 28.4946 19.5185C28.8879 19.5219 29.2641 19.6797 29.5422 19.9578C29.8203 20.2359 29.9781 20.6121 29.9815 21.0054C29.9849 21.3987 29.8337 21.7776 29.5605 22.0605Z" fill="#6A1B9A"/>
<path d="M45.7266 19.26L42.6929 18.5013C42.3017 17.1714 41.7686 15.8874 41.1029 14.6715L42.7143 11.9865C43.0591 11.4129 43.202 10.7404 43.1202 10.0762C43.0385 9.41198 42.7367 8.79423 42.2631 8.3214L39.6768 5.7363C39.2041 5.26242 38.5864 4.9605 37.9221 4.87872C37.2578 4.79694 36.5852 4.94001 36.0117 5.2851L33.3282 6.8958C32.112 6.23052 30.8277 5.69815 29.4975 5.3079L28.7388 2.2719C28.5773 1.62242 28.2029 1.04576 27.6753 0.633961C27.1478 0.222163 26.4975 -0.00103138 25.8282 3.58319e-06H22.1712C21.5021 -0.000687305 20.852 0.222647 20.3246 0.634402C19.7972 1.04616 19.4229 1.62262 19.2612 2.2719L18.5025 5.3079C17.1724 5.69834 15.8882 6.2307 14.672 6.8958L11.987 5.28435C11.4134 4.93975 10.741 4.79703 10.0769 4.87894C9.41282 4.96085 8.79525 5.26267 8.3226 5.7363L5.73555 8.3232C5.26232 8.79614 4.96093 9.41381 4.87938 10.0779C4.79783 10.7419 4.94081 11.4142 5.28555 11.9876L6.89625 14.6726C6.2312 15.8885 5.69884 17.1725 5.30835 18.5024L2.27235 19.2611C1.62297 19.4226 1.04638 19.797 0.634532 20.3244C0.222687 20.8519 -0.000696384 21.502 3.07812e-06 22.1712V25.8288C-0.000956051 26.4981 0.222255 27.1485 0.634031 27.6761C1.04581 28.2038 1.62242 28.5783 2.2719 28.74L5.3079 29.4987C5.69842 30.8286 6.23078 32.1126 6.8958 33.3287L5.28435 36.0137C4.93996 36.5873 4.79736 37.2596 4.87926 37.9237C4.96116 38.5877 5.26285 39.2053 5.7363 39.678L8.3232 42.2649C8.79599 42.7384 9.41369 43.04 10.0778 43.1215C10.7419 43.2031 11.4143 43.0599 11.9876 42.7149L14.6726 41.1042C15.8885 41.7693 17.1725 42.3016 18.5024 42.6921L19.2611 45.7281C19.4227 46.3774 19.7971 46.9539 20.3245 47.3657C20.852 47.7774 21.5021 48.0007 22.1712 48H25.8282C26.4974 48.0009 27.1475 47.7777 27.675 47.3659C28.2024 46.9541 28.5767 46.3775 28.7382 45.7281L29.4969 42.6921C30.8271 42.3019 32.1114 41.7695 33.3276 41.1042L36.0126 42.7157C36.5861 43.0602 37.2583 43.2029 37.9223 43.121C38.5862 43.0391 39.2037 42.7373 39.6762 42.2637L42.2646 39.6768C42.7378 39.2038 43.0391 38.5862 43.1207 37.9221C43.2022 37.2581 43.0593 36.5859 42.7146 36.0125L41.1032 33.3282C41.7689 32.1122 42.3019 30.8282 42.6932 29.4983L45.7269 28.7396C46.3765 28.578 46.9533 28.2036 47.3653 27.6761C47.7773 27.1485 48.0007 26.4982 48 25.8288V22.1712C48.0008 21.5017 47.7773 20.8513 47.3653 20.3236C46.9532 19.7959 46.3763 19.4215 45.7266 19.26ZM24 37.5C21.33 37.5 18.7199 36.7082 16.4998 35.2248C14.2797 33.7414 12.5494 31.633 11.5276 29.1662C10.5058 26.6994 10.2385 23.985 10.7594 21.3663C11.2803 18.7475 12.5661 16.3421 14.4541 14.4541C16.3421 12.5661 18.7475 11.2803 21.3663 10.7594C23.985 10.2385 26.6994 10.5058 29.1662 11.5276C31.633 12.5494 33.7414 14.2797 35.2248 16.4998C36.7082 18.7199 37.5 21.33 37.5 24C37.496 27.5792 36.0724 31.0107 33.5416 33.5416C31.0107 36.0724 27.5792 37.496 24 37.5Z" fill="#6A1B9A"/>
</g>
<defs>
<clipPath id="clip0_1988_63314">
<rect width="48" height="48" fill="white"/>
</clipPath>
</defs>
</svg>
