<svg width="135" height="134" viewBox="0 0 135 134" fill="none" xmlns="http://www.w3.org/2000/svg">
<rect x="0.499756" width="134" height="134" rx="67.0002" fill="#F1E3FA"/>
<g filter="url(#filter0_dd_2033_44734)">
<rect x="24.7874" y="24.2876" width="85.4253" height="85.4253" rx="42.7126" fill="#E3CFF0"/>
<rect x="25.462" y="24.9623" width="84.0759" height="84.0759" rx="42.038" stroke="#6A1B9A" stroke-width="1.34931"/>
<g clip-path="url(#clip0_2033_44734)">
<path d="M53.8982 89.1455L54.9923 88.5819L56.4108 91.3353L55.3167 91.8989L53.8982 89.1455Z" fill="#6A1B9A"/>
<path d="M45.0625 91.3184L46.481 88.565L47.5751 89.1286L46.1566 91.882L45.0625 91.3184Z" fill="#6A1B9A"/>
<path d="M50.1038 93.4717L50.1812 90.3745L51.4119 90.4053L51.3344 93.5024L50.1038 93.4717Z" fill="#6A1B9A"/>
<path d="M79.9614 42.6724L81.0555 42.1087L82.474 44.8621L81.3799 45.4258L79.9614 42.6724Z" fill="#6A1B9A"/>
<path d="M88.8069 44.855L90.2254 42.1016L91.3195 42.6652L89.9009 45.4186L88.8069 44.855Z" fill="#6A1B9A"/>
<path d="M84.9758 43.5659L85.0533 40.4687L86.2839 40.4995L86.2065 43.5967L84.9758 43.5659Z" fill="#6A1B9A"/>
<path d="M88.6572 84.876C88.7393 84.876 88.8213 84.8555 88.8931 84.8042L88.8521 81.707L75.0378 81.7173L75.0789 84.9068C75.1507 84.9581 75.2327 84.9786 75.325 84.9786L88.6572 84.876Z" fill="#6A1B9A"/>
<path d="M73.7866 86.2603L73.8892 93.0392H90.3289L90.2263 86.127L73.7866 86.2603Z" fill="#6A1B9A"/>
<path d="M90.0826 69.4619L88.2776 63.8316C88.1751 63.6572 87.9802 63.5547 87.7751 63.5547C87.3136 63.5547 86.8726 63.7906 86.606 64.17C86.2368 64.8161 86.1034 65.575 86.2163 66.3134C86.3701 67.2569 86.7598 69.6568 86.9444 70.7644C87.0059 71.113 87.0367 71.3284 87.0367 71.3387L87.1187 71.8207L86.6675 72.0053C86.3188 72.1694 86.0009 72.3745 85.7035 72.6104C85.2933 72.9385 84.9548 73.3283 84.6882 73.7795C84.4318 74.2307 84.1857 74.7025 83.96 75.1845L82.8422 74.6615C83.0165 74.2923 83.2011 73.9231 83.396 73.5744L74.5146 77.2869C74.5762 78.4458 75.0377 79.5431 75.8376 80.3841C75.8684 80.4149 75.8992 80.4559 75.9402 80.4866L88.1751 80.4764C88.2161 80.4149 88.2571 80.3431 88.2981 80.2815C88.6571 79.7277 88.9648 79.2252 88.9648 79.215L88.975 79.1944C89.0776 79.0303 89.1596 78.856 89.2109 78.6714L90.9441 72.2309L90.4313 70.6208L90.0826 69.4619Z" fill="#6A1B9A"/>
<path d="M92.421 67.0621L84.4216 47.9252L76.9145 51.0634C76.4428 51.2582 75.889 51.0326 75.6941 50.5609C75.6326 50.407 75.6121 50.2327 75.6326 50.0686C75.7249 49.443 75.8787 47.8944 75.407 46.9919C74.5557 45.4023 72.5764 44.8075 70.9868 45.6587C69.3972 46.5099 68.8024 48.4892 69.6536 50.0788C70.0638 50.8378 70.7509 51.4018 71.5714 51.6582C71.9201 51.7608 72.1559 52.0684 72.1765 52.4274C72.197 52.7863 71.9816 53.1247 71.6534 53.2683L63.5413 56.6116C63.6541 56.745 63.7464 56.8885 63.8182 57.0526C64.1771 57.8526 64.6694 58.9602 65.1822 60.0985C65.4591 60.6934 65.736 61.3087 65.9821 61.8933C66.2487 62.4881 66.4949 63.0419 66.7102 63.5136C67.8486 61.3087 70.5561 60.4472 72.761 61.5856C74.6583 62.5701 75.6121 64.7546 75.0172 66.8057V66.8159C75.0172 66.8364 75.007 66.857 75.007 66.8775C74.8942 67.3185 74.7198 67.7389 74.484 68.1389C74.4429 68.2107 74.4019 68.2722 74.3506 68.344C73.9404 68.9388 73.3969 69.4311 72.761 69.7695C71.879 70.231 70.7099 70.2926 69.7049 70.2105L72.4431 76.3229C72.5149 76.4767 72.5559 76.6305 72.5867 76.7844L73.2943 76.4869L74.5147 75.9742L85.0882 71.554C85.3036 71.3899 85.5292 71.2361 85.7651 71.1028C85.5907 70.067 85.1703 67.5031 85.0164 66.5083C84.8626 65.4827 85.0472 64.4366 85.5702 63.5342L85.5805 63.5136C86.083 62.7547 86.9342 62.3137 87.8367 62.3343C88.4931 62.3445 89.0982 62.724 89.3956 63.3085L89.4161 63.3598L91.2211 68.9901L91.7236 68.785C92.3902 68.4979 92.6979 67.7287 92.421 67.0621Z" fill="#6A1B9A"/>
<path d="M61.4185 48.7248L61.3262 41.6997H44.8865L44.9788 48.8581L61.4185 48.7248Z" fill="#6A1B9A"/>
<path d="M46.5479 50.1094C46.4658 50.1094 46.3838 50.1299 46.312 50.1812L46.353 53.2784V53.4014C46.4248 53.4527 46.5069 53.4835 46.5992 53.4732L59.9006 53.3707L59.9109 53.3912H59.9314C60.0135 53.3912 60.0955 53.3707 60.1673 53.3194L60.116 50.0786C60.0442 50.0274 59.9622 49.9966 59.8699 50.0068L46.5479 50.1094Z" fill="#6A1B9A"/>
<path d="M68.2794 70.026C68.146 69.7286 68.1768 69.3799 68.3717 69.1133C68.3717 69.103 68.3819 69.103 68.3819 69.0928C68.5768 68.8261 68.9152 68.6825 69.2434 68.7236C69.869 68.7953 71.4176 68.9184 72.3098 68.4159C73.038 68.0057 73.5815 67.3288 73.8174 66.5289C74.1661 65.0418 73.4277 63.5137 72.0432 62.8471C70.4228 62.0677 68.4742 62.7548 67.6948 64.3752C67.623 64.5188 67.5615 64.6726 67.5205 64.8264C67.3769 65.2777 66.9051 65.5341 66.4436 65.3905C66.1975 65.3187 66.0026 65.1341 65.9001 64.8982C65.6437 64.2931 65.254 63.3496 64.8232 62.3241C64.8232 62.3241 64.8232 62.3138 64.813 62.3138C64.0746 60.6627 63.2131 58.7449 62.6798 57.5347C62.6183 57.4014 62.5157 57.2988 62.3824 57.2476C62.3209 57.2271 62.2593 57.2065 62.1876 57.2065C62.1158 57.2065 62.0337 57.2271 61.9722 57.2578L61.8594 57.3091L60.6595 57.8424L51.45 61.9651C50.9372 62.7548 50.2501 63.4112 49.4296 63.8727C49.604 64.9085 50.0244 67.4724 50.1783 68.4672C50.3424 69.4927 50.1475 70.5388 49.6245 71.4413L49.6142 71.4618C49.1322 72.1899 48.322 72.6309 47.4503 72.6514C47.4195 72.6514 47.3888 72.6514 47.3477 72.6514C46.6914 72.6412 46.0863 72.2617 45.7889 71.6772L45.7684 71.6259L43.7788 65.4007L43.2353 65.6469C42.5789 65.9443 42.2815 66.7237 42.5789 67.3801L51.1936 86.6298L58.1469 83.5121C57.2956 82.8557 56.3624 81.9532 56.024 80.9379C55.2343 78.5894 56.4957 76.0358 58.8442 75.2461C61.1928 74.4564 63.7464 75.7179 64.5361 78.0664C64.813 78.8868 64.8437 79.7688 64.6284 80.6098C66.3821 79.8201 69.2331 78.5484 70.9253 77.7895C71.3048 77.6151 71.4791 77.1741 71.3048 76.7947L68.2794 70.026Z" fill="#6A1B9A"/>
<path d="M44.9274 64.9084L46.9272 71.1541C47.0298 71.3284 47.2246 71.431 47.4297 71.431C47.8912 71.431 48.3322 71.1951 48.5886 70.8156C48.9578 70.1695 49.0911 69.4106 48.9681 68.6722C48.7732 67.4313 48.1476 63.688 48.1476 63.647L48.1168 63.4829L48.0656 63.165L48.5168 62.9804C48.5271 62.9804 49.7885 62.4368 50.4859 61.2062C50.5166 61.1446 50.5474 61.0933 50.5884 61.0318L52.2498 60.2934L60.4748 56.6117C60.2594 55.863 59.8697 55.1759 59.3364 54.6118L46.8759 54.7144C46.517 55.2682 46.2093 55.7707 46.2093 55.781L46.1991 55.8015C46.0965 55.9656 46.0145 56.1399 45.9632 56.3245L44.23 62.765L44.5479 63.7495L44.9274 64.9084Z" fill="#6A1B9A"/>
</g>
</g>
<defs>
<filter id="filter0_dd_2033_44734" x="13.0874" y="13.5876" width="108.825" height="108.825" filterUnits="userSpaceOnUse" color-interpolation-filters="sRGB">
<feFlood flood-opacity="0" result="BackgroundImageFix"/>
<feColorMatrix in="SourceAlpha" type="matrix" values="0 0 0 0 0 0 0 0 0 0 0 0 0 0 0 0 0 0 127 0" result="hardAlpha"/>
<feMorphology radius="1" operator="dilate" in="SourceAlpha" result="effect1_dropShadow_2033_44734"/>
<feOffset dy="1"/>
<feGaussianBlur stdDeviation="1.5"/>
<feColorMatrix type="matrix" values="0 0 0 0 0.332549 0 0 0 0 0.0847059 0 0 0 0 0.483137 0 0 0 0.3 0"/>
<feBlend mode="normal" in2="BackgroundImageFix" result="effect1_dropShadow_2033_44734"/>
<feColorMatrix in="SourceAlpha" type="matrix" values="0 0 0 0 0 0 0 0 0 0 0 0 0 0 0 0 0 0 127 0" result="hardAlpha"/>
<feMorphology radius="5" operator="dilate" in="SourceAlpha" result="effect2_dropShadow_2033_44734"/>
<feOffset dy="1"/>
<feGaussianBlur stdDeviation="3.35"/>
<feColorMatrix type="matrix" values="0 0 0 0 0.415686 0 0 0 0 0.105882 0 0 0 0 0.603922 0 0 0 0.3 0"/>
<feBlend mode="normal" in2="effect1_dropShadow_2033_44734" result="effect2_dropShadow_2033_44734"/>
<feBlend mode="normal" in="SourceGraphic" in2="effect2_dropShadow_2033_44734" result="shape"/>
</filter>
<clipPath id="clip0_2033_44734">
<rect width="53.0418" height="53.0418" fill="white" transform="translate(40.979 40.4795)"/>
</clipPath>
</defs>
</svg>
