<svg width="49" height="48" viewBox="0 0 49 48" fill="none" xmlns="http://www.w3.org/2000/svg">
<g clip-path="url(#clip0_1988_63335)">
<path d="M1.56325 21.0889C0.779031 21.0889 0.143311 21.7247 0.143311 22.5088V43.3643C0.143311 44.1485 0.779124 44.7842 1.56325 44.7842H10.1182V21.0889H1.56325Z" fill="#6A1B9A"/>
<path d="M48.1067 28.9301C48.1067 27.1276 47.1382 25.5469 45.6943 24.6812C46.2475 23.8824 46.5719 22.9133 46.5719 21.8701C46.5719 19.1408 44.3514 16.9202 41.622 16.9202H31.1728C31.4931 15.469 31.9311 13.2913 32.236 11.0115C33.0297 5.07892 32.4873 1.78876 30.5291 0.657289C29.3083 -0.0479935 27.9921 -0.191056 26.8228 0.25407C25.9195 0.598133 24.6997 1.44404 24.0045 3.52014L21.2582 10.7109C19.8659 14.1493 15.6022 17.7592 12.958 19.7552V45.4126C17.8587 47.1297 22.9726 48.0001 28.1898 48.0001H39.5754C42.3047 48.0001 44.5253 45.7795 44.5253 43.0502C44.5253 42.0944 44.2529 41.201 43.7818 40.4436C45.4319 39.6399 46.5718 37.9455 46.5718 35.9901C46.5718 34.9469 46.2473 33.978 45.6941 33.179C47.1382 32.3133 48.1067 30.7326 48.1067 28.9301Z" fill="#6A1B9A"/>
</g>
<defs>
<clipPath id="clip0_1988_63335">
<rect width="48" height="48" fill="white" transform="translate(0.125)"/>
</clipPath>
</defs>
</svg>
