<svg width="49" height="48" viewBox="0 0 49 48" fill="none" xmlns="http://www.w3.org/2000/svg">
<path d="M41.625 18H38.625V14C38.625 6.28031 32.3447 0 24.625 0C16.9052 0 10.625 6.28031 10.625 14V18H7.62503C7.07228 18 6.625 18.4473 6.625 19V44.0001C6.625 46.2061 8.41891 48 10.625 48H38.6251C40.8311 48 42.625 46.2061 42.625 44V19C42.625 18.4473 42.1777 18 41.625 18ZM27.6192 38.8897C27.6504 39.1718 27.5597 39.4551 27.3702 39.667C27.1807 39.8789 26.9092 40 26.6251 40H22.625C22.3409 40 22.0694 39.8789 21.8799 39.667C21.6904 39.4552 21.5996 39.1719 21.6309 38.8897L22.2617 33.2168C21.2373 32.4717 20.6251 31.293 20.6251 30C20.6251 27.794 22.419 26 24.6251 26C26.8312 26 28.6251 27.7939 28.6251 30C28.6251 31.293 28.0128 32.4717 26.9884 33.2168L27.6192 38.8897ZM32.625 18H16.625V14C16.625 9.58884 20.2139 6 24.625 6C29.0361 6 32.625 9.58884 32.625 14V18Z" fill="#6A1B9A"/>
</svg>
