<svg width="48" height="48" viewBox="0 0 48 48" fill="none" xmlns="http://www.w3.org/2000/svg">
<path d="M23.9943 1.49341C10.7452 1.49079 0.00262541 12.2291 4.58147e-07 25.4782C-0.00168701 34.1327 4.65826 42.1174 12.1945 46.3726C12.4248 46.5053 12.6989 46.5392 12.9545 46.4667C13.2084 46.3958 13.424 46.2276 13.5545 45.9987L20.9544 32.9209C21.2258 32.4403 21.0566 31.8308 20.5764 31.5589C17.2057 29.6657 16.008 25.3985 17.9012 22.0279C19.7945 18.6572 24.0616 17.4595 27.4323 19.3528C30.8029 21.246 32.0006 25.5131 30.1074 28.8838C29.4781 30.0042 28.5526 30.9296 27.4323 31.5589C26.952 31.8308 26.7829 32.4403 27.0543 32.9209L34.4341 45.9987C34.5643 46.2283 34.78 46.3974 35.0341 46.4686C35.1212 46.4938 35.2114 46.5067 35.3022 46.5066C35.4747 46.5064 35.6442 46.4616 35.7942 46.3766C47.3334 39.8663 51.4101 25.2342 44.8998 13.6949C40.6444 6.15261 32.6543 1.4891 23.9943 1.49341Z" fill="#6A1B9A"/>
</svg>
