<svg width="49" height="48" viewBox="0 0 49 48" fill="none" xmlns="http://www.w3.org/2000/svg">
<path d="M21.26 40.53C21.17 40.575 21.08 40.62 20.975 40.665C20.78 40.755 20.585 40.785 20.375 40.785C20.165 40.785 19.97 40.74 19.775 40.665C12.395 37.44 7.625 30.15 7.625 22.095V13.875C7.625 13.29 7.97 12.75 8.51 12.51L19.76 7.395C20.15 7.215 20.6 7.215 21.005 7.395L32.255 12.51C32.795 12.75 33.14 13.29 33.14 13.875V16.575C33.635 16.53 34.13 16.5 34.64 16.5C35.93 16.5 37.19 16.68 38.39 16.965V10.5C38.39 9.915 38.045 9.375 37.505 9.135L20.99 1.635C20.6 1.455 20.15 1.455 19.745 1.635L3.26 9.135C2.72 9.375 2.375 9.915 2.375 10.5V22.095C2.375 32.34 8.465 41.565 17.9 45.57L19.79 46.38C19.985 46.455 20.18 46.5 20.375 46.5C20.57 46.5 20.78 46.455 20.96 46.38L22.85 45.57C23.54 45.27 24.215 44.94 24.875 44.595C23.45 43.455 22.22 42.09 21.26 40.53Z" fill="#6A1B9A"/>
<path d="M30.125 17.1599V14.8499L20.375 10.4249L10.625 14.8499V22.0949C10.625 28.4849 14.15 34.3049 19.715 37.2899C19.175 35.6999 18.875 34.0049 18.875 32.2499C18.875 25.1249 23.63 19.1099 30.125 17.1599Z" fill="#6A1B9A"/>
<path d="M34.625 19.5C27.59 19.5 21.875 25.215 21.875 32.25C21.875 39.285 27.59 45 34.625 45C41.66 45 47.375 39.285 47.375 32.25C47.375 25.215 41.66 19.5 34.625 19.5ZM40.67 30.195L34.505 36.42C34.22 36.705 33.845 36.87 33.44 36.87C33.05 36.87 32.66 36.705 32.375 36.435L28.58 32.64C27.995 32.055 27.995 31.11 28.58 30.51C29.165 29.925 30.11 29.925 30.71 30.51L33.44 33.24L38.54 28.095C39.125 27.51 40.07 27.495 40.655 28.095C41.24 28.68 41.255 29.625 40.655 30.21L40.67 30.195Z" fill="#6A1B9A"/>
</svg>
