<svg width="135" height="134" viewBox="0 0 135 134" fill="none" xmlns="http://www.w3.org/2000/svg">
<rect x="0.499756" width="134" height="134" rx="67.0002" fill="#F1E3FA"/>
<g filter="url(#filter0_dd_2033_44812)">
<rect x="24.7874" y="24.2876" width="85.4253" height="85.4253" rx="42.7126" fill="#E3CFF0"/>
<rect x="25.462" y="24.9623" width="84.0759" height="84.0759" rx="42.038" stroke="#6A1B9A" stroke-width="1.34931"/>
<path fill-rule="evenodd" clip-rule="evenodd" d="M67.5 48.8153C74.785 48.8153 80.6905 54.7209 80.6905 62.0058C80.6905 69.2908 74.7849 75.1964 67.5 75.1964C60.2151 75.1964 54.3095 69.2907 54.3095 62.0058C54.3095 54.721 60.2151 48.8153 67.5 48.8153ZM63.3774 83.3608C60.9479 83.9526 58.4399 82.9716 57.0562 80.8558L55.3096 78.1851C55.0531 77.7929 54.7614 77.5235 54.3661 77.3193L49.8025 87.1215C49.6733 87.3988 49.9085 87.7054 50.2097 87.6528L55.9326 86.6529L58.8515 91.6759C59.005 91.94 59.3913 91.9225 59.5202 91.6455L63.3774 83.3608ZM71.6228 83.3608L75.4799 91.6455C75.6088 91.9225 75.9952 91.9399 76.1486 91.6759L79.0675 86.6529L84.7904 87.6528C85.0917 87.7054 85.3268 87.3988 85.1976 87.1215L80.634 77.3192C80.2386 77.5234 79.9469 77.7929 79.6905 78.185L77.944 80.8557C76.56 82.9716 74.0521 83.9525 71.6228 83.3608ZM70.0409 42.9959C68.5113 41.851 66.4887 41.851 64.9591 42.9959L62.4044 44.9081C61.7057 45.4311 60.9703 45.6988 60.0989 45.7473L56.9129 45.9245C55.0051 46.0306 53.4556 47.3307 53.0199 49.191L52.2921 52.2979C52.093 53.1476 51.7018 53.8254 51.0654 54.4226L48.7386 56.6064C47.3455 57.914 46.9943 59.9059 47.8562 61.6111L49.2958 64.459C49.6895 65.2379 49.8254 66.0086 49.7218 66.8751L49.343 70.0436C49.1162 71.9408 50.1276 73.6925 51.884 74.4448L54.8173 75.7011C55.6196 76.0446 56.2191 76.5477 56.6967 77.278L58.4432 79.9487C59.489 81.5477 61.3896 82.2395 63.2186 81.6867L66.2732 80.7636C67.1086 80.5111 67.8912 80.5111 68.7266 80.7636L71.7812 81.6867C73.6102 82.2395 75.5108 81.5477 76.5566 79.9487L78.3031 77.278C78.7808 76.5477 79.3803 76.0446 80.1826 75.7011L83.116 74.4449C84.8723 73.6926 85.8837 71.941 85.6569 70.0437L85.2781 66.8752C85.1745 66.0086 85.3105 65.238 85.7041 64.4591L87.1437 61.6112C88.0056 59.906 87.6544 57.9141 86.2613 56.6065L83.9345 54.4227C83.2982 53.8255 82.9069 53.1477 82.7078 52.298L81.98 49.1911C81.5442 47.3309 79.9948 46.0307 78.087 45.9246L74.901 45.7474C74.0296 45.6989 73.2942 45.4313 72.5955 44.9082L70.0409 42.9959ZM69.1602 58.4453C69.2002 58.3431 69.2614 58.2473 69.3436 58.1645C69.6656 57.8422 70.0144 57.3211 70.0777 56.8618V54.7162C70.0777 52.7979 68.5082 51.229 66.59 51.229V54.1369C66.59 56.5529 64.4204 57.6476 62.7196 58.9247L62.7182 68.5044C64.8761 70.5711 66.9589 70.1041 70.6714 69.4649C70.8047 69.5079 70.9466 69.531 71.0936 69.531H73.3306C74.0927 69.531 74.7163 68.9075 74.7163 68.1454C74.7163 67.3834 74.0927 66.7596 73.3306 66.7596H74.1571C74.9192 66.7595 75.5428 66.136 75.5428 65.3738C75.5428 64.6116 74.9192 63.9881 74.1571 63.9881H75.1294C75.8916 63.9881 76.5151 63.3645 76.5151 62.6023C76.5151 61.8402 75.8916 61.2166 75.1294 61.2166H74.5457C75.3078 61.2166 75.9314 60.5931 75.9314 59.8309C75.9314 59.0687 75.3077 58.4453 74.5457 58.4452C72.7506 58.4453 70.9554 58.4453 69.1602 58.4453ZM61.0601 68.5044L61.0683 58.9259H59.0266V68.5044H61.0601Z" fill="#6A1B9A"/>
</g>
<defs>
<filter id="filter0_dd_2033_44812" x="13.0874" y="13.5876" width="108.825" height="108.825" filterUnits="userSpaceOnUse" color-interpolation-filters="sRGB">
<feFlood flood-opacity="0" result="BackgroundImageFix"/>
<feColorMatrix in="SourceAlpha" type="matrix" values="0 0 0 0 0 0 0 0 0 0 0 0 0 0 0 0 0 0 127 0" result="hardAlpha"/>
<feMorphology radius="1" operator="dilate" in="SourceAlpha" result="effect1_dropShadow_2033_44812"/>
<feOffset dy="1"/>
<feGaussianBlur stdDeviation="1.5"/>
<feColorMatrix type="matrix" values="0 0 0 0 0.332549 0 0 0 0 0.0847059 0 0 0 0 0.483137 0 0 0 0.3 0"/>
<feBlend mode="normal" in2="BackgroundImageFix" result="effect1_dropShadow_2033_44812"/>
<feColorMatrix in="SourceAlpha" type="matrix" values="0 0 0 0 0 0 0 0 0 0 0 0 0 0 0 0 0 0 127 0" result="hardAlpha"/>
<feMorphology radius="5" operator="dilate" in="SourceAlpha" result="effect2_dropShadow_2033_44812"/>
<feOffset dy="1"/>
<feGaussianBlur stdDeviation="3.35"/>
<feColorMatrix type="matrix" values="0 0 0 0 0.415686 0 0 0 0 0.105882 0 0 0 0 0.603922 0 0 0 0.3 0"/>
<feBlend mode="normal" in2="effect1_dropShadow_2033_44812" result="effect2_dropShadow_2033_44812"/>
<feBlend mode="normal" in="SourceGraphic" in2="effect2_dropShadow_2033_44812" result="shape"/>
</filter>
</defs>
</svg>
