<svg width="48" height="48" viewBox="0 0 48 48" fill="none" xmlns="http://www.w3.org/2000/svg">
<g clip-path="url(#clip0_1988_63311)">
<path fill-rule="evenodd" clip-rule="evenodd" d="M37.5363 25.6664H10.4636C7.23042 25.6664 4.6062 23.0311 4.6062 19.7979C4.6062 18.0152 5.39236 16.3543 6.7543 15.2471C6.49963 14.5716 6.35568 13.8519 6.35568 13.1211C6.35568 10.663 7.87264 8.50381 10.1093 7.64014C10.0982 7.47405 10.0872 7.30796 10.0872 7.14187C10.0872 3.21107 13.2982 0 17.229 0C20.6394 0 23.5183 2.36955 24.2159 5.62491C25.7107 5.6692 27.0726 6.42215 27.9142 7.61799C28.8886 7.06436 29.9737 6.7654 31.1142 6.7654C34.6685 6.7654 37.5585 9.65536 37.5585 13.2097C37.5585 13.4533 37.5363 13.6858 37.5142 13.9294H37.5363C40.7695 13.9294 43.3937 16.5647 43.3937 19.7979C43.3937 23.0311 40.7695 25.6664 37.5363 25.6664Z" fill="#6A1B9A"/>
<path fill-rule="evenodd" clip-rule="evenodd" d="M16.9412 32.1883H9.95439C9.50041 32.1883 9.13501 31.8229 9.13501 31.3689C9.13501 30.926 9.50041 30.5606 9.95439 30.5606H16.1219V24.8471C16.1219 24.4042 16.4873 24.0388 16.9412 24.0388C17.3952 24.0388 17.7606 24.4042 17.7606 24.8471V31.3689C17.7606 31.8229 17.3952 32.1883 16.9412 32.1883Z" fill="#6A1B9A"/>
<path fill-rule="evenodd" clip-rule="evenodd" d="M7.77291 34.3696C6.12308 34.3696 4.77222 33.0298 4.77222 31.3689C4.77222 29.7191 6.12308 28.3793 7.77291 28.3793C9.42274 28.3793 10.7736 29.7191 10.7736 31.3689C10.7736 33.0298 9.42274 34.3696 7.77291 34.3696Z" fill="#6A1B9A"/>
<path fill-rule="evenodd" clip-rule="evenodd" d="M38.0457 32.1883H31.0589C30.6049 32.1883 30.2395 31.8229 30.2395 31.3689V24.8471C30.2395 24.4042 30.6049 24.0388 31.0589 24.0388C31.5129 24.0388 31.8783 24.4042 31.8783 24.8471V30.5606H38.0457C38.4886 30.5606 38.854 30.926 38.854 31.3689C38.854 31.8229 38.4886 32.1883 38.0457 32.1883Z" fill="#6A1B9A"/>
<path fill-rule="evenodd" clip-rule="evenodd" d="M40.227 34.3696C38.5772 34.3696 37.2263 33.0298 37.2263 31.3689C37.2263 29.7191 38.5772 28.3793 40.227 28.3793C41.8768 28.3793 43.2166 29.7191 43.2166 31.3689C43.2166 33.0298 41.8768 34.3696 40.227 34.3696Z" fill="#6A1B9A"/>
<path fill-rule="evenodd" clip-rule="evenodd" d="M20.4735 40.0277H13.4866C13.0326 40.0277 12.6672 39.6623 12.6672 39.2194C12.6672 38.7655 13.0326 38.4001 13.4866 38.4001H19.6541V24.8471C19.6541 24.4042 20.0195 24.0388 20.4735 24.0388C20.9164 24.0388 21.2818 24.4042 21.2818 24.8471V39.2194C21.2818 39.6623 20.9164 40.0277 20.4735 40.0277Z" fill="#6A1B9A"/>
<path fill-rule="evenodd" clip-rule="evenodd" d="M11.3051 42.2089C9.65531 42.2089 8.30444 40.8691 8.30444 39.2193C8.30444 37.5695 9.65531 36.2186 11.3051 36.2186C12.955 36.2186 14.2948 37.5695 14.2948 39.2193C14.2948 40.8691 12.955 42.2089 11.3051 42.2089Z" fill="#6A1B9A"/>
<path fill-rule="evenodd" clip-rule="evenodd" d="M34.5134 40.0277H27.5266C27.0837 40.0277 26.7183 39.6623 26.7183 39.2194V24.8471C26.7183 24.4042 27.0837 24.0388 27.5266 24.0388C27.9805 24.0388 28.3459 24.4042 28.3459 24.8471V38.4001H34.5134C34.9674 38.4001 35.3328 38.7655 35.3328 39.2194C35.3328 39.6623 34.9674 40.0277 34.5134 40.0277Z" fill="#6A1B9A"/>
<path fill-rule="evenodd" clip-rule="evenodd" d="M36.6948 42.2089C35.045 42.2089 33.6941 40.8691 33.6941 39.2193C33.6941 37.5695 35.045 36.2186 36.6948 36.2186C38.3446 36.2186 39.6955 37.5695 39.6955 39.2193C39.6955 40.8691 38.3446 42.2089 36.6948 42.2089Z" fill="#6A1B9A"/>
<path fill-rule="evenodd" clip-rule="evenodd" d="M23.9946 43.6374C23.5517 43.6374 23.1863 43.272 23.1863 42.8181V24.8471C23.1863 24.4042 23.5517 24.0388 23.9946 24.0388C24.4486 24.0388 24.814 24.4042 24.814 24.8471V42.8181C24.814 43.272 24.4486 43.6374 23.9946 43.6374Z" fill="#6A1B9A"/>
<path fill-rule="evenodd" clip-rule="evenodd" d="M23.9945 48C22.3447 48 21.0049 46.6492 21.0049 44.9994C21.0049 43.3495 22.3447 41.9987 23.9945 41.9987C25.6554 41.9987 26.9952 43.3495 26.9952 44.9994C26.9952 46.6492 25.6554 48 23.9945 48Z" fill="#6A1B9A"/>
</g>
<defs>
<clipPath id="clip0_1988_63311">
<rect width="48" height="48" fill="white"/>
</clipPath>
</defs>
</svg>
