<svg width="48" height="48" viewBox="0 0 48 48" fill="none" xmlns="http://www.w3.org/2000/svg">
<g clip-path="url(#clip0_1988_63308)">
<path d="M32.2665 35.2726H15.7334C14.0732 35.2726 12.7273 33.9267 12.7273 32.2665V15.7334C12.7273 14.0732 14.0732 12.7273 15.7334 12.7273H32.2666C33.9268 12.7273 35.2727 14.0732 35.2727 15.7334V32.2666C35.2726 33.9267 33.9267 35.2726 32.2665 35.2726Z" fill="#6A1B9A"/>
<path d="M32.2666 33.0181H15.7334C15.3184 33.0181 14.9819 32.6817 14.9819 32.2666V15.7334C14.9819 15.3184 15.3184 14.9819 15.7334 14.9819H32.2666C32.6817 14.9819 33.0181 15.3184 33.0181 15.7334V32.2666C33.0181 32.6817 32.6817 33.0181 32.2666 33.0181Z" fill="#6A1B9A"/>
<path d="M3.70911 19.4906C4.53908 19.4906 5.21191 18.8178 5.21191 17.9878C5.21191 17.1578 4.53908 16.485 3.70911 16.485C2.87913 16.485 2.2063 17.1578 2.2063 17.9878C2.2063 18.8178 2.87913 19.4906 3.70911 19.4906Z" fill="#6A1B9A"/>
<path d="M44.2911 31.515C45.1211 31.515 45.7939 30.8422 45.7939 30.0122C45.7939 29.1822 45.1211 28.5094 44.2911 28.5094C43.4612 28.5094 42.7883 29.1822 42.7883 30.0122C42.7883 30.8422 43.4612 31.515 44.2911 31.515Z" fill="#6A1B9A"/>
<path d="M2.20618 38.2781C3.03615 38.2781 3.70898 37.6052 3.70898 36.7753C3.70898 35.9453 3.03615 35.2725 2.20618 35.2725C1.3762 35.2725 0.703369 35.9453 0.703369 36.7753C0.703369 37.6052 1.3762 38.2781 2.20618 38.2781Z" fill="#6A1B9A"/>
<path d="M45.7938 12.7275C46.6238 12.7275 47.2966 12.0547 47.2966 11.2247C47.2966 10.3948 46.6238 9.72192 45.7938 9.72192C44.9638 9.72192 44.291 10.3948 44.291 11.2247C44.291 12.0547 44.9638 12.7275 45.7938 12.7275Z" fill="#6A1B9A"/>
<path d="M30.0121 5.21216C30.8421 5.21216 31.5149 4.53933 31.5149 3.70935C31.5149 2.87937 30.8421 2.20654 30.0121 2.20654C29.1821 2.20654 28.5093 2.87937 28.5093 3.70935C28.5093 4.53933 29.1821 5.21216 30.0121 5.21216Z" fill="#6A1B9A"/>
<path d="M17.9877 45.7939C18.8176 45.7939 19.4905 45.1211 19.4905 44.2911C19.4905 43.4612 18.8176 42.7883 17.9877 42.7883C17.1577 42.7883 16.4849 43.4612 16.4849 44.2911C16.4849 45.1211 17.1577 45.7939 17.9877 45.7939Z" fill="#6A1B9A"/>
<path d="M11.2247 3.70898C12.0547 3.70898 12.7275 3.03615 12.7275 2.20618C12.7275 1.3762 12.0547 0.703369 11.2247 0.703369C10.3948 0.703369 9.72192 1.3762 9.72192 2.20618C9.72192 3.03615 10.3948 3.70898 11.2247 3.70898Z" fill="#6A1B9A"/>
<path d="M36.775 47.2968C37.605 47.2968 38.2778 46.6239 38.2778 45.7939C38.2778 44.964 37.605 44.2911 36.775 44.2911C35.945 44.2911 35.2722 44.964 35.2722 45.7939C35.2722 46.6239 35.945 47.2968 36.775 47.2968Z" fill="#6A1B9A"/>
<path d="M23.9998 30.3982C24.2141 30.3982 24.4181 30.4896 24.5605 30.6491C25.0515 31.1996 25.7715 31.5151 26.5362 31.5151C27.8513 31.5151 28.9559 30.5944 29.0506 29.4194C29.0703 29.1747 29.2091 28.9549 29.4212 28.8309C30.249 28.3476 30.7635 27.5043 30.7635 26.6303C30.7635 25.9995 30.5007 25.3867 30.0229 24.9045C29.7331 24.6118 29.7331 24.1398 30.0229 23.847C30.5007 23.3648 30.7635 22.752 30.7635 22.1212C30.7635 20.9863 29.9349 19.986 28.7019 19.6319C28.3181 19.5218 28.0877 19.1298 28.1772 18.7406C28.2109 18.5938 28.2271 18.4742 28.2271 18.3637C28.2271 17.3278 27.2789 16.485 26.1135 16.485C25.511 16.485 24.9341 16.7165 24.5327 17.1201C24.2494 17.4035 23.7503 17.4035 23.467 17.1201C23.0656 16.7165 22.4887 16.485 21.8862 16.485C20.7208 16.485 19.7726 17.3279 19.7726 18.3637C19.7726 18.4878 19.7866 18.6125 19.813 18.7339C19.8982 19.1214 19.6685 19.5082 19.2868 19.6179C18.0605 19.9713 17.2363 20.9771 17.2363 22.1212C17.2363 22.6683 17.433 23.196 17.8051 23.6477C18.026 23.9167 18.034 24.302 17.8235 24.5794C17.4397 25.0865 17.2363 25.666 17.2363 26.2545C17.2363 27.1924 17.7442 28.0911 18.5955 28.6588C18.8025 28.7968 18.9279 29.0286 18.9302 29.2778C18.9405 30.5114 20.0773 31.515 21.4636 31.515C22.2283 31.515 22.9483 31.1995 23.4393 30.6491C23.5815 30.4895 23.7855 30.3982 23.9998 30.3982Z" fill="#6A1B9A"/>
<path d="M47.2967 23.2969H35.9757V21.6972H39.0302C39.4185 21.6972 39.7333 21.3824 39.7333 20.994C39.7333 20.6057 39.4185 20.2909 39.0302 20.2909H35.9757V18.6911H38.0963C38.8864 18.6911 39.6291 18.3835 40.1877 17.8248L44.812 13.2005C45.1133 13.3506 45.4473 13.4305 45.7938 13.4305C46.3831 13.4305 46.9371 13.201 47.3538 12.7844C47.7705 12.3677 48 11.8137 48 11.2244C48 10.6351 47.7705 10.0811 47.3538 9.6644C46.9372 9.24768 46.3831 9.01818 45.7938 9.01818C45.2045 9.01818 44.6505 9.24768 44.2338 9.6643C43.8171 10.081 43.5876 10.635 43.5876 11.2243C43.5876 11.5708 43.6675 11.9048 43.8176 12.2061L39.1933 16.8304C38.9003 17.1234 38.5107 17.2848 38.0962 17.2848H35.9756V15.7335C35.9756 13.6882 34.3116 12.0244 32.2665 12.0244H30.7151V5.79985C31.5878 5.50557 32.2181 4.67992 32.2181 3.70923C32.2181 2.49274 31.2284 1.50312 30.012 1.50312C28.7956 1.50312 27.8059 2.49283 27.8059 3.70923C27.8059 4.67992 28.4363 5.50548 29.3089 5.79985V12.0243H27.7091V8.96981C27.7091 8.5815 27.3943 8.26668 27.006 8.26668C26.6177 8.26668 26.3029 8.5815 26.3029 8.96981V12.0243H24.7031V0.703244C24.7031 0.314933 24.3883 0.00012207 23.9999 0.00012207C23.6116 0.00012207 23.2968 0.314933 23.2968 0.703244V12.0243H21.6971V8.96981C21.6971 8.5815 21.3823 8.26668 20.994 8.26668C20.6056 8.26668 20.2908 8.5815 20.2908 8.96981V12.0243H18.6911V9.90374C18.6911 9.11371 18.3834 8.37093 17.8247 7.81237L13.1989 3.18648C13.6075 2.36139 13.4705 1.33259 12.7844 0.646338C11.9241 -0.213815 10.5246 -0.213721 9.6644 0.646338C8.80425 1.50649 8.80425 2.90608 9.6644 3.76633C10.0945 4.19636 10.6595 4.41142 11.2244 4.41142C11.5608 4.41142 11.8966 4.33332 12.2045 4.18079L16.8304 8.80678C17.1235 9.09974 17.2848 9.48937 17.2848 9.90374V12.0243H15.7335C15.4199 12.0243 15.108 12.0636 14.8065 12.1412C14.4304 12.2379 14.204 12.6213 14.3008 12.9974C14.3975 13.3735 14.781 13.5999 15.157 13.5031C15.344 13.455 15.5379 13.4305 15.7334 13.4305H32.2665C33.5363 13.4305 34.5694 14.4636 34.5694 15.7334V32.2666C34.5694 32.4619 34.545 32.6557 34.497 32.8425C34.4003 33.2186 34.6268 33.6019 35.0029 33.6985C35.0616 33.7136 35.1204 33.7208 35.1785 33.7208C35.4917 33.7208 35.7773 33.51 35.8589 33.1926C35.9363 32.8914 35.9756 32.5798 35.9756 32.2665V30.7151H42.2C42.4943 31.5877 43.32 32.2181 44.2906 32.2181C45.5071 32.2181 46.4968 31.2285 46.4968 30.012C46.4968 28.7955 45.507 27.8059 44.2906 27.8059C43.32 27.8059 42.4944 28.4363 42.2 29.3089H35.9756V27.709H39.0301C39.4184 27.709 39.7332 27.3942 39.7332 27.0059C39.7332 26.6176 39.4184 26.3028 39.0301 26.3028H35.9756V24.7032H47.2967C47.685 24.7032 47.9998 24.3883 47.9998 24C47.9998 23.6117 47.685 23.2969 47.2967 23.2969ZM45.2281 10.6588C45.3793 10.5077 45.5801 10.4245 45.7937 10.4245C46.0074 10.4245 46.2082 10.5077 46.3593 10.6588C46.5104 10.8099 46.5936 11.0107 46.5936 11.2244C46.5936 11.438 46.5104 11.6389 46.3593 11.79C46.2082 11.9411 46.0074 12.0243 45.7937 12.0243C45.5801 12.0243 45.3793 11.9411 45.2281 11.79C45.077 11.6389 44.9939 11.438 44.9939 11.2244C44.9939 11.0107 45.077 10.8098 45.2281 10.6588ZM30.012 2.90936C30.4531 2.90936 30.8119 3.26823 30.8119 3.70923C30.8119 4.15023 30.453 4.5091 30.012 4.5091C29.571 4.5091 29.2121 4.15023 29.2121 3.70923C29.2121 3.26823 29.5709 2.90936 30.012 2.90936ZM10.6586 2.77192C10.3467 2.46002 10.3467 1.95255 10.6586 1.64074C10.8146 1.48474 11.0194 1.40684 11.2243 1.40684C11.4291 1.40684 11.634 1.48484 11.7899 1.64074C12.1018 1.95265 12.1018 2.46011 11.7899 2.77202C11.4781 3.08374 10.9706 3.08383 10.6586 2.77192ZM44.2907 29.2122C44.7318 29.2122 45.0906 29.5711 45.0906 30.0121C45.0906 30.4532 44.7317 30.812 44.2907 30.812C43.8497 30.812 43.4909 30.4531 43.4909 30.0121C43.4908 29.571 43.8496 29.2122 44.2907 29.2122Z" fill="#6A1B9A"/>
<path d="M35.7954 43.8193L31.1695 39.1933C30.8764 38.9003 30.7151 38.5107 30.7151 38.0963V35.9758H32.2665C32.5801 35.9758 32.8919 35.9364 33.1933 35.8589C33.5693 35.7621 33.7957 35.3788 33.699 35.0027C33.6022 34.6266 33.2191 34.4002 32.8427 34.497C32.6558 34.5451 32.4619 34.5695 32.2665 34.5695H15.7333C14.4635 34.5695 13.4305 33.5363 13.4305 32.2666V15.7335C13.4305 15.538 13.4549 15.3441 13.5029 15.1573C13.5998 14.7813 13.3734 14.3979 12.9974 14.3011C12.6212 14.2042 12.2379 14.4306 12.1411 14.8067C12.0635 15.108 12.0242 15.4198 12.0242 15.7335V17.2848H5.79973C5.50545 16.4122 4.67979 15.7818 3.70911 15.7818C2.49261 15.7818 1.50299 16.7715 1.50299 17.988C1.50299 19.2045 2.49271 20.1941 3.70911 20.1941C4.67979 20.1941 5.50535 19.5637 5.79973 18.6911H12.0241V20.2909H8.96968C8.58137 20.2909 8.26656 20.6057 8.26656 20.994C8.26656 21.3824 8.58137 21.6972 8.96968 21.6972H12.0241V23.2969H0.703122C0.314811 23.2969 0 23.6117 0 24C0 24.3883 0.314811 24.7032 0.703122 24.7032H12.0241V26.3029H8.96968C8.58137 26.3029 8.26656 26.6177 8.26656 27.006C8.26656 27.3943 8.58137 27.7091 8.96968 27.7091H12.0241V29.309H9.90352C9.11349 29.309 8.37072 29.6166 7.81216 30.1752L3.18786 34.7995C2.88655 34.6494 2.55252 34.5696 2.20602 34.5696C1.61671 34.5696 1.06275 34.7991 0.646029 35.2157C0.229499 35.6324 0 36.1865 0 36.7757C0 37.3649 0.229499 37.9189 0.646216 38.3357C1.06284 38.7524 1.6169 38.9818 2.20621 38.9818C2.79552 38.9818 3.34949 38.7523 3.7662 38.3357C4.18292 37.9189 4.41242 37.365 4.41242 36.7757C4.41242 36.4292 4.33255 36.0951 4.18245 35.7938L8.80675 31.1695C9.09971 30.8766 9.48934 30.7151 9.9038 30.7151H12.0244V32.2665C12.0244 34.3117 13.6884 35.9756 15.7335 35.9756H17.2849V42.2C16.4123 42.4943 15.7819 43.32 15.7819 44.2906C15.7819 45.5071 16.7716 46.4968 17.988 46.4968C19.2044 46.4968 20.1941 45.507 20.1941 44.2906C20.1941 43.32 19.5638 42.4944 18.6911 42.2V35.9756H20.2909V39.0301C20.2909 39.4184 20.6057 39.7332 20.994 39.7332C21.3823 39.7332 21.6971 39.4184 21.6971 39.0301V35.9756H23.2968V47.2968C23.2968 47.6851 23.6116 47.9999 23.9999 47.9999C24.3882 47.9999 24.703 47.6851 24.703 47.2968V35.9758H26.3028V39.0303C26.3028 39.4186 26.6176 39.7334 27.0059 39.7334C27.3942 39.7334 27.709 39.4186 27.709 39.0303V35.9758H29.3088V38.0963C29.3088 38.8863 29.6164 39.6291 30.1751 40.1877L34.801 44.8136C34.3923 45.6387 34.5293 46.6675 35.2155 47.3537C35.6456 47.7838 36.2106 47.9988 36.7755 47.9988C37.3405 47.9988 37.9055 47.7838 38.3355 47.3537C39.1957 46.4936 39.1957 45.094 38.3355 44.2338C37.6494 43.5476 36.6205 43.4106 35.7954 43.8193ZM3.70911 18.7878C3.26802 18.7878 2.90924 18.429 2.90924 17.988C2.90924 17.5469 3.26811 17.1881 3.70911 17.1881C4.15011 17.1881 4.50898 17.547 4.50898 17.988C4.50908 18.4291 4.1502 18.7878 3.70911 18.7878ZM2.77171 37.3413C2.62058 37.4924 2.41977 37.5755 2.20612 37.5755C1.99246 37.5755 1.79165 37.4924 1.64052 37.3413C1.4894 37.1901 1.40624 36.9893 1.40624 36.7757C1.40624 36.562 1.4894 36.3612 1.64052 36.2101C1.79165 36.059 1.99246 35.9758 2.20612 35.9758C2.41977 35.9758 2.62058 36.059 2.77171 36.2101C2.92283 36.3612 3.00599 36.562 3.00599 36.7757C3.00599 36.9893 2.92283 37.1902 2.77171 37.3413ZM17.9878 45.0907C17.5467 45.0907 17.188 44.7318 17.188 44.2908C17.188 43.8498 17.5468 43.491 17.9878 43.491C18.4288 43.491 18.7877 43.8498 18.7877 44.2908C18.7877 44.7318 18.4289 45.0907 17.9878 45.0907ZM37.3412 46.3594C37.0293 46.6713 36.5219 46.6712 36.2099 46.3594C35.898 46.0475 35.898 45.54 36.2099 45.2282C36.3659 45.0723 36.5708 44.9943 36.7756 44.9943C36.9805 44.9943 37.1853 45.0723 37.3412 45.2282C37.653 45.54 37.653 46.0475 37.3412 46.3594Z" fill="#6A1B9A"/>
<path d="M18.2242 29.2589C18.2242 29.2595 18.2242 29.2601 18.2242 29.2606C18.2242 30.8915 19.6774 32.2183 21.4637 32.2183C22.4903 32.2183 23.4061 31.7797 24 31.0974C24.5939 31.7797 25.5098 32.2183 26.5363 32.2183C28.2554 32.2183 29.6653 30.9893 29.769 29.4432C30.8131 28.8373 31.4666 27.7762 31.4666 26.6304C31.4666 25.7876 31.1073 24.9836 30.4888 24.3759C31.1072 23.7682 31.4666 22.9641 31.4666 22.1214C31.4666 20.6177 30.3668 19.3439 28.8611 18.93C28.9056 18.7461 28.9303 18.557 28.9303 18.3638C28.9303 16.9401 27.6667 15.7819 26.1136 15.7819C25.2723 15.7819 24.5166 16.1221 24 16.6598C23.4835 16.1221 22.7277 15.7819 21.8865 15.7819C20.3333 15.7819 19.0697 16.9401 19.0697 18.3638C19.0697 18.557 19.0945 18.7461 19.139 18.93C17.6333 19.3438 16.5334 20.6176 16.5334 22.1214C16.5334 22.8563 16.7935 23.5497 17.274 24.1223C16.8042 24.7304 16.5334 25.4687 16.5334 26.2547C16.5333 27.4502 17.1721 28.5665 18.2242 29.2589ZM20.178 20.1945C20.1842 20.1947 20.1905 20.1955 20.1967 20.1955C20.3572 20.1955 20.5186 20.1408 20.6507 20.029C20.9202 19.8008 20.9743 19.4136 20.7933 19.1223C20.788 19.1137 20.7831 19.1049 20.7775 19.0966C20.7746 19.0923 20.7711 19.0883 20.7681 19.0841C20.7572 19.0688 20.7461 19.0538 20.734 19.0394C20.7336 19.0389 20.7333 19.0384 20.733 19.0381C20.6157 18.8994 20.4757 18.6699 20.4757 18.3637C20.4757 17.7154 21.1085 17.188 21.8862 17.188C22.6638 17.188 23.2966 17.7154 23.2966 18.3637C23.2966 18.752 23.6115 19.0668 23.9998 19.0668C24.3881 19.0668 24.7029 18.752 24.7029 18.3637C24.7029 17.7154 25.3357 17.188 26.1133 17.188C26.891 17.188 27.5238 17.7154 27.5238 18.3637C27.5238 18.537 27.4784 18.6847 27.4183 18.8062C27.0184 18.844 26.6316 18.9407 26.2644 19.0955C25.9065 19.2464 25.7388 19.6588 25.8897 20.0166C26.0405 20.3744 26.4529 20.5423 26.8108 20.3913C27.1147 20.2632 27.4417 20.1973 27.7827 20.1947C27.7895 20.1948 27.7962 20.1955 27.8029 20.1955C27.8092 20.1955 27.8154 20.1947 27.8217 20.1945C29.0576 20.2025 30.0601 21.0636 30.0601 22.1212C30.0601 22.786 29.6557 23.3963 28.9781 23.754C28.7475 23.8756 28.6032 24.115 28.6032 24.3758C28.6032 24.6366 28.7475 24.8759 28.9781 24.9976C29.6557 25.3552 30.0601 25.9656 30.0601 26.6304C30.0601 27.126 29.8298 27.5988 29.4407 27.9523C29.0711 27.2679 28.4177 26.723 27.5922 26.4637C27.2219 26.3474 26.8272 26.5533 26.7107 26.9237C26.5943 27.2942 26.8003 27.6889 27.1707 27.8053C27.8876 28.0305 28.3692 28.6154 28.3692 29.2607C28.3692 30.1162 27.5469 30.8122 26.536 30.8122C25.5252 30.8122 24.7028 30.1162 24.7028 29.2607V24.7516C24.7028 23.8962 25.5252 23.2003 26.536 23.2003C26.9243 23.2003 27.2391 22.8855 27.2391 22.4971C27.2391 22.1088 26.9243 21.794 26.536 21.794C25.8559 21.794 25.2244 21.9868 24.7028 22.315V21.4169C24.7028 21.0286 24.388 20.7137 23.9997 20.7137C23.6114 20.7137 23.2965 21.0286 23.2965 21.4169V25.3203C23.0599 25.1718 22.8004 25.0489 22.5197 24.9607C22.1491 24.8443 21.7546 25.0503 21.6382 25.4206C21.5218 25.7911 21.7277 26.1858 22.0981 26.3023C22.815 26.5275 23.2965 27.1124 23.2965 27.7576V29.2606C23.2965 30.1161 22.4742 30.8121 21.4634 30.8121C20.4525 30.8121 19.6301 30.1161 19.6301 29.2606C19.6301 28.894 19.7855 28.5375 20.0677 28.257C20.3432 27.9833 20.3445 27.5381 20.0707 27.2626C19.797 26.9872 19.3518 26.9859 19.0764 27.2596C18.9079 27.4272 18.7629 27.6102 18.6423 27.8047C18.1983 27.3847 17.9391 26.8321 17.9391 26.2545C17.9391 25.2128 18.7567 24.2976 19.9274 24.029C20.3058 23.9422 20.5423 23.565 20.4555 23.1865C20.3687 22.8079 19.9913 22.5716 19.6129 22.6584C19.1417 22.7665 18.7078 22.947 18.323 23.1839C18.0736 22.8706 17.9392 22.5036 17.9392 22.1212C17.9395 21.0636 18.9421 20.2026 20.178 20.1945Z" fill="white"/>
</g>
<defs>
<clipPath id="clip0_1988_63308">
<rect width="48" height="48" fill="white"/>
</clipPath>
</defs>
</svg>
